<svg xmlns="http://www.w3.org/2000/svg" width="1203.532" height="732.232" viewBox="0 0 1203.532 732.232"><g transform="translate(-10 -35.983)"><g transform="translate(10.807 35.983)"><path d="M308.266-127.791v379c0,79.913-45.245,113.406-143.961,113.406-54.059,0-93.428-15.278-117.519-45.245q-30.849-37.9-37.019-125.158L36.8,184.222c0,106.355,37.019,153.362,128.1,153.362,38.194,0,64.636-4.113,80.5-12.927,23.5-12.34,35.256-37.019,35.256-72.862V-119.565Zm182.742,379h-61.7c-41.719,0-62.873-22.916-62.873-68.161V-119.565l27.617-9.4V182.459q0,44.07,40.544,44.07h56.409ZM636.144-110.163c0,12.927-5.876,19.391-18.215,19.391s-18.8-6.464-18.8-19.391c0-12.339,6.464-18.8,18.8-18.8S636.144-122.5,636.144-110.163Zm-66.4,0c0,12.927-5.876,19.391-18.215,19.391s-18.8-6.464-18.8-19.391c0-12.339,6.464-18.8,18.8-18.8S569.746-122.5,569.746-110.163Zm128.1,361.371H667.874c-37.606,0-64.635-14.69-81.676-43.482-16.453,28.792-44.657,43.482-84.026,43.482H472.205V226.529h27.029c48.183,0,72.274-25.854,72.274-78.15V-6.159l27.617-8.814v166.29c0,49.946,24.091,75.212,72.862,75.212h25.854Zm105.18-361.371c0,12.927-6.464,19.391-18.8,19.391s-18.8-6.464-18.8-19.391c0-12.339,6.464-18.8,18.8-18.8S803.021-122.5,803.021-110.163ZM898.8,251.208H868.832c-37.606,0-64.635-14.69-81.676-43.482C770.7,236.518,742.5,251.208,703.13,251.208H673.163V226.529h27.029c48.183,0,72.274-25.854,72.274-78.15V-6.159l27.617-8.814v166.29c0,49.946,24.091,75.212,72.862,75.212H898.8Zm106.943-98.128c0,58.172-37.606,98.128-96.953,98.128H870.007V226.529h35.256c48.77,0,72.862-25.854,72.862-78.15V-5.571l27.617-9.4Zm-14.1,192.144c0,12.927-6.464,19.391-18.8,19.391s-18.216-6.464-18.216-19.391c0-11.752,5.876-17.628,18.216-17.628S991.64,333.471,991.64,345.223Zm-66.4,0c0,12.927-6.464,19.391-18.8,19.391s-18.215-6.464-18.215-19.391c0-11.752,5.876-17.628,18.215-17.628S925.241,333.471,925.241,345.223ZM1194.36,231.817c0,40.544-9.4,72.274-28.2,95.778-19.978,24.679-48.183,37.019-85.2,37.019-18.8,0-36.431-3.526-52.884-11.164l-11.752-27.029a150.513,150.513,0,0,0,64.635,14.1q43.188,0,65.223-33.493c13.515-18.8,20.566-43.482,20.566-74.037V-6.159l27.617-8.814Z" transform="translate(-0.478 141.319)" fill="#8b916f"/><path d="M409.037-133.157V190.621c0,24.691,9.48,35.226,31.7,35.226h64.636c43.275,0,63.431-22.023,63.431-69.307v-161l45.3-14.459v178.4c0,45.28,20.342,66.369,64.018,66.369h28.2c43.275,0,63.431-22.023,63.431-69.307v-161l45.3-14.459v178.4c0,45.28,20.342,66.369,64.018,66.369H911.4c43.676,0,64.018-22.023,64.018-69.307V-3.741l45.3-15.423V161.242c0,63.983-42.516,106.972-105.8,106.972H867.3v-.2c-31.647-1.67-56.435-13.849-73.927-36.3-18.668,24.235-46.892,36.5-84.107,36.5l-38.811-.042c-33.619-.8-59.8-13.042-78.04-36.457-18.668,24.235-46.892,36.5-84.106,36.5H435.449c-46.917,0-71.716-26.628-71.716-77V-117.734ZM469.5,243.535H440.737c-31.848,0-49.388-18.792-49.388-52.913V-108.452l-9.93,3.38v296.28c0,40.469,17.168,59.317,54.029,59.317H469.5Zm200.958-.268c-48.833-3.034-74.037-31.846-74.037-83.788V5.295l-9.93,3.169V156.541c0,56.689-27.835,86.758-80.5,86.992v6.993h2.321c35.863,0,61.55-13.13,76.348-39.026l7.544-13.2,7.745,13.086c15.043,25.418,38.133,38.231,70.51,39.1Zm196.844-.238c-45.812-4.077-69.924-32.753-69.924-83.551V5.295l-9.93,3.169V156.541c0,54.543-25.767,84.443-74.625,86.838v7.1c34.008-.847,58.489-13.951,72.793-38.982l7.544-13.2,7.745,13.086c14.4,24.328,36.169,37.109,66.4,38.919Zm47.625,7.5c53.525,0,88.11-35.046,88.11-89.285V5.542l-9.93,3.38V156.541c0,56.061-27.416,86.088-79.325,86.974v7.012ZM488.3,243.535h-1.116v6.992H488.3Zm206.834,0h-6.992v6.992h6.992Zm200.958,0H884.989v6.992h11.105ZM323.248-131.491V259.37c0,83.4-48.555,122.25-152.8,122.25-56.656,0-98.514-16.334-124.412-48.547C24.119,306.151,11.368,263.59,7.084,203l-.468-6.619,45.162-16.69v12.7c0,102.649,34.55,144.519,119.252,144.519,36.969,0,61.9-3.864,76.206-11.814,20.438-10.733,30.707-32.612,30.707-65.131V-118Zm-152.8,495.423c94.708,0,135.117-31.271,135.117-104.562V-107.767l-9.93,2.958V259.958c0,39.613-13.454,66.761-39.988,80.692-17.058,9.479-44,13.941-84.612,13.941-91.076,0-133.625-46.264-136.753-149.579l-9.042,3.342c4.4,52.629,16.015,90.828,34.547,113.6C82.19,349.821,119.411,363.932,170.443,363.932Zm387.226-493.58c16.943,0,27.059,10.335,27.059,27.646,0,17.943-9.863,28.234-27.059,28.234-17.312,0-27.647-10.555-27.647-28.234C530.022-119.313,540.357-129.648,557.669-129.648Zm0,38.194c6.481,0,9.372-1.523,9.372-10.547,0-8.522-2.891-9.959-9.372-9.959-7.446,0-9.96,2.513-9.96,9.959C547.709-93.085,551.063-91.454,557.669-91.454Zm66.4-38.194c16.944,0,27.059,10.335,27.059,27.646,0,17.943-9.863,28.234-27.059,28.234-17.311,0-27.647-10.555-27.647-28.234C596.42-119.313,606.756-129.648,624.067-129.648Zm0,38.194c6.481,0,9.372-1.523,9.372-10.547,0-8.522-2.891-9.959-9.372-9.959-7.446,0-9.959,2.513-9.959,9.959C614.108-93.085,617.462-91.454,624.067-91.454Zm166.29-38.194C807.668-129.648,818-119.313,818-102c0,17.679-10.335,28.234-27.646,28.234S762.71-84.322,762.71-102C762.71-119.313,773.045-129.648,790.357-129.648Zm0,38.194c6.605,0,9.959-1.631,9.959-10.547,0-7.446-2.513-9.959-9.959-9.959S780.4-109.448,780.4-102C780.4-93.085,783.751-91.454,790.357-91.454Zm418.985,72.538v258.9c0,42.218-10.141,76.3-30.143,101.3-21.678,26.78-52.657,40.338-92.107,40.338-20.431,0-39.476-4.033-56.608-11.986l-3.047-1.415-22.447-51.629,21.232,9.991a141.8,141.8,0,0,0,60.87,13.26c25.853,0,44.771-9.653,57.835-29.51,12.75-17.753,19.11-40.926,19.11-69.176V-4.458Zm-122.25,382.849c34.328,0,59.949-11.036,78.328-33.739,17.643-22.054,26.235-51.576,26.235-90.214V5.295l-9.93,3.169V241.155c0,32.031-7.479,58.677-22.228,79.2-16.153,24.566-40.583,37.175-72.4,37.175a162.759,162.759,0,0,1-48.1-7.084l1.953,4.492C1055.078,360.986,1070.21,363.932,1087.092,363.932ZM912.577,326.914c17.311,0,27.647,9.9,27.647,26.471,0,17.679-10.335,28.234-27.647,28.234-17.2,0-27.059-10.291-27.059-28.234C885.518,336.563,895.38,326.914,912.577,326.914Zm0,37.018c6.605,0,9.959-1.631,9.959-10.547,0-5.952-1.49-8.784-9.959-8.784-8.07,0-9.372,2.59-9.372,8.784C903.2,362.41,906.1,363.932,912.577,363.932Zm66.4-37.018c17.311,0,27.647,9.9,27.647,26.471,0,17.679-10.335,28.234-27.647,28.234-17.2,0-27.059-10.291-27.059-28.234C951.916,336.563,961.779,326.914,978.975,326.914Zm0,37.018c6.605,0,9.959-1.631,9.959-10.547,0-5.952-1.49-8.784-9.959-8.784-8.07,0-9.372,2.59-9.372,8.784C969.6,362.41,972.494,363.932,978.975,363.932Z" transform="translate(-6.616 133.157)" fill="#8b916f"/></g><path d="M0,0H0Z" transform="translate(1048.128 702.214)" fill="#8b916f"/><path d="M0-3H164.82V3H0Z" transform="translate(1048.128 702.214)" fill="#8b916f"/><g transform="translate(235.813 591.811)"><path d="M5.005-14.657V102.951H16.671V34.386A39.065,39.065,0,0,1,55.477-4.9a37.82,37.82,0,0,1,20,5.476l5.238-9.523a45.918,45.918,0,0,0-25.236-6.9c-15,0-31.664,6.19-39.044,22.141l-.476-20.95ZM175.228,104.618c18.808,0,39.282-7.618,50.71-22.617L217.6,75.335C208.8,87,190.7,93.19,175.228,93.19c-24.283,0-45.472-15.951-47.853-43.567H233.317c4.523-45.948-25-66.184-58.09-66.184S115.471,8.912,115.471,44.147C115.471,81.525,142.135,104.618,175.228,104.618ZM127.375,39.386c2.619-28.807,23.569-45.234,47.853-45.234,28.331,0,47.377,16.189,47.615,45.234ZM287.36-14.657V102.951h11.666V37.481c0-24.283,16.9-42.615,41.187-42.853,25.474-.238,41.9,14.046,41.9,40.711v67.613h11.666V35.1c0-32.616-21.665-51.9-53.09-51.9-16.427.238-32.854,6.9-41.9,23.093v-20.95ZM458.535-48.939v34.283h-25V-4.9h25v71.66c0,23.093,8.095,37.854,33.092,37.854,7.38,0,14.761-2.381,22.141-5.952l-4.047-9.523C503.769,92,497.341,93.9,491.627,93.9c-18.332,0-21.665-11.189-21.665-27.14V-4.9h40v-9.761h-40V-50.13ZM662.088-14.657V11.055C652.327-7.277,633.043-16.085,614-16.085c-32.854,0-59.756,24.283-59.756,60.233s26.9,60.709,59.756,60.709c19.046,0,36.663-8.571,48.091-26.9v25h11.666V-14.657ZM614-4.9c65.47,0,65.47,98.324,0,98.324-26.664,0-48.091-19.76-48.091-49.281S587.333-4.9,614-4.9ZM729.224-63.7V102.951H740.89V-63.7Z" transform="translate(-1.081 67.624)" fill="#56593e"/><path d="M727.724-65.2h19.514V109.3H727.724Zm11.666,7.849h-3.817v158.8h3.817ZM476.311-52.06v35.9h40V1.453h-40V69.189c0,8.518,1.024,13.887,3.321,17.408,1.626,2.493,4.89,5.808,14.42,5.808,4.7,0,10.518-1.554,16.4-4.375l3.7-1.778L521.266,103l-3.364,1.628c-8.822,4.269-16.623,6.344-23.85,6.344a45.6,45.6,0,0,1-17.2-2.958,28.378,28.378,0,0,1-11.811-8.814c-5.387-6.882-8.006-16.7-8.006-30.006V1.453h-25v-17.61h25v-33.9ZM508.459-8.308h-40V-43.351l-3.579.373v34.67h-25V-6.4h25V69.189c0,11.487,2.073,19.72,6.338,25.168,4.615,5.9,12.083,8.762,22.83,8.762,5.117,0,10.717-1.316,17.034-4.011l-1-2.345a44.142,44.142,0,0,1-16.037,3.492,30.7,30.7,0,0,1-12.727-2.342,18.976,18.976,0,0,1-8.267-7.027c-4.073-6.245-4.6-14.875-4.6-21.7V-6.4h40ZM343.084-18.3h.028c16.677,0,30.867,5.118,41.036,14.8,10.453,9.954,15.979,24.14,15.979,41.023V109.3H380.613V37.763a45.717,45.717,0,0,0-2.665-16.134,30.238,30.238,0,0,0-7.343-11.306A31.483,31.483,0,0,0,359.022,3.4,48.561,48.561,0,0,0,342.673.976,39.478,39.478,0,0,0,327.5,4.044a34.946,34.946,0,0,0-11.713,8.12c-6.712,7.07-10.409,16.922-10.409,27.742V109.3H285.86V-16.157h19.276V-3.131a46.892,46.892,0,0,1,12.475-9.175A58.1,58.1,0,0,1,343.056-18.3Zm49.195,119.751V37.525c0-14.683-4.683-26.9-13.542-35.339-8.676-8.261-20.984-12.631-35.595-12.637a50.214,50.214,0,0,0-21.963,5.136,38.891,38.891,0,0,0-16.541,15.947l-7.35,13.153V-8.308h-3.579v109.76h3.817V39.906c0-12.84,4.462-24.611,12.565-33.146a42.751,42.751,0,0,1,14.326-9.936,47.282,47.282,0,0,1,18.181-3.7c.222,0,.444,0,.663,0,13.56,0,24.892,3.986,32.771,11.529a38.019,38.019,0,0,1,9.26,14.206,53.493,53.493,0,0,1,3.17,18.9v63.689ZM177.652-18.061c19.742,0,36.757,6.777,47.909,19.081A54.259,54.259,0,0,1,237.441,22.7c2.538,8.819,3.28,18.822,2.206,29.731l-.348,3.54H134.251a41.875,41.875,0,0,0,13.823,25.243A45.126,45.126,0,0,0,177.652,91.69a61.643,61.643,0,0,0,22.238-4.275c7.414-2.948,13.3-7.1,17.007-12.021l2.432-3.221,14.477,11.581L231.483,86.8a59.3,59.3,0,0,1-24.175,18.167,76.489,76.489,0,0,1-29.657,6c-17.477,0-33.464-6.152-45.016-17.322a59.074,59.074,0,0,1-13.693-20.378,70.55,70.55,0,0,1-4.972-26.7c0-17.911,6.613-34.371,18.622-46.346A63.246,63.246,0,0,1,177.652-18.061Zm54.466,66.184a69.084,69.084,0,0,0-2.22-23.252A46.482,46.482,0,0,0,219.746,6.291c-9.646-10.642-24.6-16.5-42.094-16.5a55.45,55.45,0,0,0-39.517,16C127.614,16.275,121.82,30.761,121.82,46.572a62.752,62.752,0,0,0,4.394,23.739A51.277,51.277,0,0,0,138.092,88c10.081,9.747,24.13,15.116,39.56,15.116a68.573,68.573,0,0,0,26.588-5.372,53.245,53.245,0,0,0,18.541-12.76L220.546,83.2a49.723,49.723,0,0,1-17.756,11.51,69.679,69.679,0,0,1-25.138,4.831,52.968,52.968,0,0,1-34.7-12.38,47.966,47.966,0,0,1-11.591-14.893,54.512,54.512,0,0,1-5.469-19.882l-.367-4.261Zm384.3-65.708A62.552,62.552,0,0,1,645.8-10.428,54.266,54.266,0,0,1,660.588,1.1V-16.157H680.1V109.3H660.588V92.073a58.169,58.169,0,0,1-15.4,12.084,59.848,59.848,0,0,1-28.767,7.048,63.45,63.45,0,0,1-44.954-18,61.414,61.414,0,0,1-13.714-20.484,68.34,68.34,0,0,1-5.012-26.145,67.806,67.806,0,0,1,5.015-26.078A60.584,60.584,0,0,1,571.483.165C583.219-11.281,599.179-17.585,616.421-17.585ZM668.436,29.2l-7.388-13.875A44.929,44.929,0,0,0,652.814,4.31,46.762,46.762,0,0,0,642.1-3.5a54.68,54.68,0,0,0-25.68-6.234c-15.183,0-29.2,5.512-39.459,15.52A52.781,52.781,0,0,0,565.007,23.5a60,60,0,0,0-4.418,23.076,60.535,60.535,0,0,0,4.422,23.158,53.611,53.611,0,0,0,11.968,17.883,55.65,55.65,0,0,0,39.443,15.743,52.087,52.087,0,0,0,25.038-6.106A52.794,52.794,0,0,0,661.182,78.3l7.254-11.637v34.787h3.817V-8.308h-3.817ZM59.1-17.364A49.737,49.737,0,0,1,85.171-9.875l3.218,1.95L79.352,8.506l-3.509-2.16A33.684,33.684,0,0,0,57.925,1.453,35.141,35.141,0,0,0,23.019,36.811V109.3H3.505V-16.157H22.217L22.5-3.547q.34-.356.689-.7a41.642,41.642,0,0,1,10.551-7.581,53.475,53.475,0,0,1,24.1-5.515C58.265-17.358,58.687-17.364,59.1-17.364ZM77.814-4.984A41.283,41.283,0,0,0,59.1-9.515c-.363,0-.732.005-1.1.015H57.9A45.622,45.622,0,0,0,37.3-4.836a31.779,31.779,0,0,0-14.882,15.2l-7.1,15.346L14.545-8.308H11.354v109.76h3.817V36.811A42.99,42.99,0,0,1,57.858-6.4H57.9A42.645,42.645,0,0,1,76.342-2.308Zm99.838-2.364c15.145,0,27.939,4.414,37,12.763,9.386,8.649,14.413,21.223,14.538,36.363l.032,3.956H125.5l.389-4.28c1.338-14.722,7.248-27.166,17.091-35.987a49.2,49.2,0,0,1,15.964-9.559A54.083,54.083,0,0,1,177.652-7.348ZM221.18,37.886a46.376,46.376,0,0,0-3.109-13.928,35,35,0,0,0-8.737-12.771C201.747,4.2,190.791.5,177.652.5a46.262,46.262,0,0,0-16,2.776,41.391,41.391,0,0,0-13.431,8.036c-7.385,6.619-12.166,15.743-13.966,26.573ZM616.421-6.4c16.323,0,30.072,5.769,39.762,16.682a51.406,51.406,0,0,1,9.97,17.039,58.55,58.55,0,0,1,0,38.73,51.406,51.406,0,0,1-9.97,17.039c-9.689,10.913-23.438,16.682-39.762,16.682a51.714,51.714,0,0,1-36.81-14.71A50.019,50.019,0,0,1,568.456,68.2a57.451,57.451,0,0,1-4.05-21.624,57.179,57.179,0,0,1,4.052-21.592A49.6,49.6,0,0,1,579.621,8.186C589.155-1.217,602.224-6.4,616.421-6.4Zm0,98.324c14.015,0,25.735-4.856,33.892-14.044a43.594,43.594,0,0,0,8.443-14.455,50.7,50.7,0,0,0,0-33.477A43.594,43.594,0,0,0,650.314,15.5c-8.157-9.188-19.877-14.044-33.892-14.044-12.121,0-23.233,4.376-31.289,12.321a41.8,41.8,0,0,0-9.4,14.155,49.375,49.375,0,0,0-3.477,18.643,49.647,49.647,0,0,0,3.479,18.685A42.214,42.214,0,0,0,585.142,79.5,43.919,43.919,0,0,0,616.421,91.928Z" transform="translate(-3.505 65.2)" fill="#56593e"/></g><g transform="translate(-1038.128)"><path d="M0,0H0Z" transform="translate(1048.128 702.214)" fill="#8b916f"/><path d="M0-3H164.82V3H0Z" transform="translate(1048.128 702.214)" fill="#8b916f"/></g></g></svg>