<svg xmlns="http://www.w3.org/2000/svg" xmlns:xlink="http://www.w3.org/1999/xlink" width="148.943" height="100" viewBox="0 0 148.943 100"><defs><clipPath id="a"><path d="M3,395H149.61v8.075H3Zm0,0" transform="translate(-3 -395)"/></clipPath></defs><g transform="translate(-0.035 0.012)"><path d="M207.413,280.277q-.952.434-1.929.8.479,1,1.013,1.97,1.014-.489,2-1.044Q207.929,281.161,207.413,280.277Zm0,0" transform="translate(-157.638 -215.062)" fill="#eadc00" fill-rule="evenodd"/><path d="M8.627,141.7l-5.8-4.672s5.42-8.66,15.311-7.731c0,0,8.36.437,10.93,7.16,0,0,2.9,8.968-3.764,14.9,0,0-10.564,9.264-14.8,11.58l5.028-2.146H30.22v7.231H2.313v-6.835L17.792,148.7c3.268-2.636,5.689-7.938,1.694-11.2a4.744,4.744,0,0,0-3.93-.97C12.756,137.023,10.158,139.952,8.627,141.7Zm0,0" transform="translate(-1.747 -99.161)" fill="#9f9fa1" fill-rule="evenodd"/><path d="M336.216,138.448l-.006-6.948h25.465v6.205l-9.566,9.371s8,.8,9.95,8.293c2.194,8.441-5.282,15.544-14.217,14.91a18.32,18.32,0,0,1-13.72-6.678l5.3-5.213s3.934,5.122,9.6,4.391c0,0,4.958,0,5.207-4.358.327-5.742-6.493-5.954-10.878-5.43l-1.281-5.122,12.257-12.258-4.848,2.836Zm0,0" transform="translate(-256.339 -100.907)" fill="#9f9fa1" fill-rule="evenodd"/><path d="M488.2,127.641a19.875,19.875,0,1,1-20,19.875A19.976,19.976,0,0,1,488.2,127.641Zm0,7.583c6.337,0,11.506,5.522,11.506,12.292s-5.169,12.291-11.506,12.291-11.507-5.522-11.507-12.291S481.858,135.224,488.2,135.224Zm0,0" transform="translate(-359.215 -97.946)" fill="#9f9fa1" fill-rule="evenodd"/><path d="M229.66,132.31q.71-.693,1.476-1.339-.708-.817-1.476-1.584-.769.766-1.476,1.584Q228.95,131.618,229.66,132.31Zm0,0" transform="translate(-175.055 -99.286)" fill="#eadc00" fill-rule="evenodd"/><path d="M228.03,104.014q.974-.991,2.033-1.9-.971-1.192-2.033-2.289-1.061,1.1-2.034,2.289Q227.054,103.023,228.03,104.014Zm0,0" transform="translate(-173.377 -76.603)" fill="#94bf0b" fill-rule="evenodd"/><path d="M241.81,120.318q.946-.706,1.96-1.345-.67-1.069-1.4-2.086c-.7.52-1.37,1.064-2.014,1.635Q241.112,119.395,241.81,120.318Zm0,0" transform="translate(-184.391 -89.694)" fill="#9f9fa1" fill-rule="evenodd"/><path d="M261.245,152.091c-.229-.523-.474-1.037-.729-1.544q.895-.329,1.813-.6.353.856.665,1.734Q262.109,151.857,261.245,152.091Zm0,0" transform="translate(-199.863 -115.063)" fill="#5bc3cd" fill-rule="evenodd"/><path d="M249.893,156.451c-.265-.425-.54-.844-.831-1.254.482-.235.971-.459,1.466-.666q.409.7.777,1.415Q250.59,156.177,249.893,156.451Zm0,0" transform="translate(-191.075 -118.579)" fill="#94bf0b" fill-rule="evenodd"/><path d="M253.17,136.471q-.524-.905-1.1-1.774.971-.539,1.967-1.017.543.987,1.026,2.013Q254.1,136.051,253.17,136.471Zm0,0" transform="translate(-193.38 -102.579)" fill="#94bf0b" fill-rule="evenodd"/><path d="M240.771,143.772q-.585-.721-1.224-1.405.787-.535,1.6-1.026.611.784,1.163,1.608Q241.528,143.338,240.771,143.772Zm0,0" transform="translate(-183.774 -108.457)" fill="#5bc3cd" fill-rule="evenodd"/><path d="M216.264,120.518q.694-.922,1.452-1.794-.965-.856-2.006-1.637-.731,1.014-1.4,2.083Q215.322,119.808,216.264,120.518Zm0,0" transform="translate(-164.412 -89.847)" fill="#003f8a" fill-rule="evenodd"/><path d="M229.66,283.93q.71.693,1.476,1.339-.708.817-1.476,1.584-.769-.766-1.476-1.584Q228.95,284.622,229.66,283.93Zm0,0" transform="translate(-175.055 -217.864)" fill="#00b2e7" fill-rule="evenodd"/><path d="M228.03,308.051q.974.991,2.033,1.9-.971,1.192-2.033,2.289-1.061-1.1-2.034-2.289Q227.054,309.042,228.03,308.051Zm0,0" transform="translate(-173.377 -236.372)" fill="#eadc00" fill-rule="evenodd"/><path d="M241.81,294.246q.946.706,1.96,1.345-.67,1.069-1.4,2.086c-.7-.52-1.37-1.065-2.014-1.635Q241.112,295.17,241.81,294.246Zm0,0" transform="translate(-184.391 -225.78)" fill="#5bc3cd" fill-rule="evenodd"/><path d="M216.264,294.047q.694.922,1.452,1.794-.965.856-2.006,1.637-.731-1.014-1.4-2.083Q215.322,294.756,216.264,294.047Zm0,0" transform="translate(-164.412 -225.627)" fill="#94bf0b" fill-rule="evenodd"/><path d="M274.433,146.889q.979-.153,1.979-.235-.1-1.076-.284-2.147-1.07.179-2.121.435Q274.256,145.913,274.433,146.889Zm0,0" transform="translate(-210.215 -110.888)" fill="#eadc00" fill-rule="evenodd"/><path d="M288.174,123.963q1.368-.243,2.758-.369-.1-1.533-.327-3.043-1.5.28-2.983.685Q287.954,122.589,288.174,123.963Zm0,0" transform="translate(-220.66 -92.506)" fill="#00b2e7" fill-rule="evenodd"/><path d="M291.185,145.2q1.181-.027,2.377.041.076-1.259.066-2.514-1.3.029-2.589.163Q291.154,144.045,291.185,145.2Zm0,0" transform="translate(-223.283 -109.524)" fill="#5bc3cd" fill-rule="evenodd"/><path d="M291.82,163.828q.1-1.04.13-2.085,1.1.124,2.193.313-.131,1.119-.331,2.234Q292.825,164.026,291.82,163.828Zm0,0" transform="translate(-223.882 -124.111)" fill="#9f9fa1" fill-rule="evenodd"/><path d="M277.9,162.6c-.037-.617-.1-1.235-.182-1.854q.952.022,1.9.09c.028.662.032,1.324.015,1.984Q278.766,162.69,277.9,162.6Zm0,0" transform="translate(-213.06 -123.35)" fill="#94bf0b" fill-rule="evenodd"/><path d="M265.287,163.227q-.2-.721-.451-1.434c.529-.093,1.06-.172,1.594-.234q.2.783.353,1.575C266.283,163.149,265.784,163.181,265.287,163.227Zm0,0" transform="translate(-203.178 -123.971)" fill="#9f9fa1" fill-rule="evenodd"/><path d="M269.409,129.363q1.1-.349,2.223-.62-.288-1.257-.684-2.5-1.185.4-2.346.886Q269.053,128.238,269.409,129.363Zm0,0" transform="translate(-206.067 -96.876)" fill="#003f8a" fill-rule="evenodd"/><path d="M186.933,270.383q.177.976.425,1.948-1.05.254-2.122.434-.181-1.07-.284-2.147Q185.953,270.536,186.933,270.383Zm0,0" transform="translate(-141.885 -207.47)" fill="#eadc00" fill-rule="evenodd"/><path d="M186.123,256.438q.057.926.182,1.854-.952-.022-1.9-.09c-.028-.662-.032-1.324-.015-1.984Q185.256,256.351,186.123,256.438Zm0,0" transform="translate(-141.449 -196.602)" fill="#00b2e7" fill-rule="evenodd"/><path d="M170.54,290.148q.217,1.373.553,2.728c-.988.272-1.983.5-2.983.685q-.228-1.511-.328-3.044Q169.169,290.391,170.54,290.148Zm0,0" transform="translate(-128.709 -222.636)" fill="#00b2e7" fill-rule="evenodd"/><path d="M189.972,285.8q.36,1.125.815,2.234-1.164.483-2.354.884-.4-1.239-.692-2.5Q188.868,286.149,189.972,285.8Zm0,0" transform="translate(-144.025 -219.3)" fill="#5bc3cd" fill-rule="evenodd"/><path d="M222.248,273.266c-.49.293-.988.57-1.49.835q.539.785,1.131,1.538.783-.492,1.547-1.025Q222.815,273.956,222.248,273.266Zm0,0" transform="translate(-169.357 -209.682)" fill="#9f9fa1" fill-rule="evenodd"/><path d="M215.661,263.922q-.69.29-1.4.539.385.708.808,1.394.738-.33,1.454-.7C216.22,264.75,215.936,264.34,215.661,263.922Zm0,0" transform="translate(-164.37 -202.512)" fill="#9f9fa1" fill-rule="evenodd"/><path d="M201.569,268.336q-.893.248-1.811.434.33.892.7,1.762.952-.285,1.88-.635Q201.935,269.128,201.569,268.336Zm0,0" transform="translate(-153.244 -205.899)" fill="#003f8a" fill-rule="evenodd"/><path d="M198.764,257.25c-.5.029-1,.044-1.5.043q.125.795.3,1.584.8-.067,1.6-.181C199.016,258.217,198.883,257.735,198.764,257.25Zm0,0" transform="translate(-151.329 -197.393)" fill="#94bf0b" fill-rule="evenodd"/><path d="M169.9,271.651c.018.769.066,1.537.14,2.3q-1.282.138-2.583.17-.008-1.25.07-2.507Q168.725,271.683,169.9,271.651Zm0,0" transform="translate(-128.464 -208.417)" fill="#94bf0b" fill-rule="evenodd"/><path d="M302.313,183.84q.881.454,1.738.977.549-.931,1.035-1.9-.971-.487-1.971-.9Q302.744,182.947,302.313,183.84Zm0,0" transform="translate(-231.933 -139.667)" fill="#eadc00" fill-rule="evenodd"/><path d="M277.234,175.559q.729.173,1.452.392c.071-.532.128-1.066.168-1.6-.527-.113-1.057-.208-1.589-.29Q277.273,174.811,277.234,175.559Zm0,0" transform="translate(-212.691 -133.562)" fill="#94bf0b" fill-rule="evenodd"/><path d="M290.137,178.79q.867.326,1.72.716.258-.915.468-1.838-.937-.33-1.893-.595Q290.308,177.935,290.137,178.79Zm0,0" transform="translate(-222.591 -135.875)" fill="#00b2e7" fill-rule="evenodd"/><path d="M325.258,174.077q1.249.61,2.446,1.326.824-1.3,1.528-2.653-1.377-.659-2.814-1.2Q325.89,172.837,325.258,174.077Zm0,0" transform="translate(-249.539 -131.634)" fill="#003f8a" fill-rule="evenodd"/><path d="M315.926,191.624q.969.674,1.9,1.434.8-.972,1.534-1.992-1.068-.745-2.187-1.394Q316.579,190.67,315.926,191.624Zm0,0" transform="translate(-242.378 -145.541)" fill="#94bf0b" fill-rule="evenodd"/><path d="M308.164,167.923q1.095.365,2.162.809.507-1.186.918-2.421-1.193-.372-2.418-.666Q308.539,166.8,308.164,167.923Zm0,0" transform="translate(-236.423 -127.106)" fill="#5bc3cd" fill-rule="evenodd"/><path d="M158.484,231.574q-.431.892-.8,1.824-1-.413-1.971-.9.485-.972,1.036-1.9Q157.6,231.119,158.484,231.574Zm0,0" transform="translate(-119.448 -176.943)" fill="#5bc3cd" fill-rule="evenodd"/><path d="M175.4,208.364q-.48.578-.926,1.185-.563-.574-1.1-1.18.532-.61,1.1-1.185Q174.921,207.79,175.4,208.364Zm0,0" transform="translate(-133.004 -158.978)" fill="#94bf0b" fill-rule="evenodd"/><path d="M166.128,219.218q-.5.783-.945,1.606-.757-.577-1.479-1.189.552-.826,1.157-1.612Q165.477,218.637,166.128,219.218Zm0,0" transform="translate(-125.58 -167.295)" fill="#eadc00" fill-rule="evenodd"/><path d="M131.71,238.248q-.633,1.238-1.161,2.53-1.436-.543-2.814-1.2.706-1.354,1.528-2.653Q130.46,237.636,131.71,238.248Zm0,0" transform="translate(-97.982 -181.796)" fill="#5bc3cd" fill-rule="evenodd"/><path d="M151.52,246.842q-.371,1.121-.656,2.284-1.226-.295-2.423-.672.408-1.237.913-2.427Q150.423,246.472,151.52,246.842Zm0,0" transform="translate(-113.87 -188.782)" fill="#eadc00" fill-rule="evenodd"/><path d="M187.78,244.083q-.731-.173-1.453-.392c-.071.532-.128,1.066-.167,1.6.526.113,1.056.208,1.588.29C187.743,245.081,187.755,244.581,187.78,244.083Zm0,0" transform="translate(-142.811 -186.99)" fill="#9f9fa1" fill-rule="evenodd"/><path d="M170.389,253.146q-1.024-.21-2.032-.486-.2,1.092-.342,2.189,1.107.2,2.233.336C170.274,254.5,170.322,253.826,170.389,253.146Zm0,0" transform="translate(-128.889 -193.871)" fill="#9f9fa1" fill-rule="evenodd"/><path d="M173,239.068q-.87-.326-1.721-.716-.258.915-.468,1.838.937.33,1.893.595Q172.829,239.922,173,239.068Zm0,0" transform="translate(-131.035 -182.893)" fill="#94bf0b" fill-rule="evenodd"/><path d="M177.293,227.413q-.631-.4-1.24-.851-.365.719-.69,1.456.69.421,1.4.8C176.926,228.343,177.1,227.876,177.293,227.413Zm0,0" transform="translate(-134.527 -173.847)" fill="#003f8a" fill-rule="evenodd"/><path d="M142.981,222.077q-.656.95-1.243,1.944-1.118-.644-2.187-1.384.729-1.014,1.533-1.984Q142.009,221.408,142.981,222.077Zm0,0" transform="translate(-107.048 -169.312)" fill="#00b2e7" fill-rule="evenodd"/><path d="M303,230.6q.445.886.827,1.814.994-.425,1.959-.925-.5-.964-1.062-1.887Q303.88,230.139,303,230.6Zm0,0" transform="translate(-232.464 -176.182)" fill="#003f8a" fill-rule="evenodd"/><path d="M295.074,197.078q.641.566,1.25,1.164.584-.754,1.119-1.546-.708-.6-1.448-1.161Q295.559,196.326,295.074,197.078Zm0,0" transform="translate(-226.379 -150.04)" fill="#9f9fa1" fill-rule="evenodd"/><path d="M288.27,207.622q.487.57.942,1.173.556-.581,1.079-1.194-.537-.6-1.111-1.171Q288.742,207.042,288.27,207.622Zm0,0" transform="translate(-221.158 -158.399)" fill="#5bc3cd" fill-rule="evenodd"/><path d="M305.836,207.618q.7.775,1.354,1.592.809-.762,1.566-1.566-.776-.815-1.6-1.589Q306.52,206.858,305.836,207.618Zm0,0" transform="translate(-234.636 -158.112)" fill="#eadc00" fill-rule="evenodd"/><path d="M296.363,218.359q.509.776.966,1.593.749-.586,1.463-1.208c-.375-.546-.769-1.078-1.178-1.6Q297.006,217.769,296.363,218.359Zm0,0" transform="translate(-227.368 -166.624)" fill="#003f8a" fill-rule="evenodd"/><path d="M325.922,236.945q.649,1.23,1.194,2.514,1.429-.563,2.8-1.241-.725-1.344-1.563-2.633Q327.162,236.317,325.922,236.945Zm0,0" transform="translate(-250.048 -180.771)" fill="#00b2e7" fill-rule="evenodd"/><path d="M286.223,191.386q.648.374,1.279.789c.22-.489.427-.985.617-1.487q-.708-.387-1.439-.731C286.543,190.44,286.389,190.915,286.223,191.386Zm0,0" transform="translate(-219.587 -145.76)" fill="#94bf0b" fill-rule="evenodd"/><path d="M309.156,245.772q.386,1.117.686,2.276,1.223-.311,2.414-.7-.425-1.231-.946-2.415Q310.248,245.389,309.156,245.772Zm0,0" transform="translate(-237.184 -187.94)" fill="#5bc3cd" fill-rule="evenodd"/><path d="M316.238,220.926q.668.941,1.269,1.927,1.109-.659,2.169-1.413-.745-1-1.56-1.964Q317.2,220.244,316.238,220.926Zm0,0" transform="translate(-242.618 -168.41)" fill="#5bc3cd" fill-rule="evenodd"/><path d="M158.559,184.766q-.875.466-1.725,1-.562-.923-1.06-1.889.964-.5,1.958-.924Q158.115,183.879,158.559,184.766Zm0,0" transform="translate(-119.496 -140.386)" fill="#00b2e7" fill-rule="evenodd"/><path d="M131.538,175.319q-1.241.626-2.429,1.358-.84-1.286-1.563-2.632,1.369-.676,2.8-1.241Q130.89,174.088,131.538,175.319Zm0,0" transform="translate(-97.838 -132.6)" fill="#5bc3cd" fill-rule="evenodd"/><path d="M142.9,192.744q-.96.687-1.877,1.458-.815-.961-1.561-1.971,1.058-.759,2.17-1.423Q142.235,191.8,142.9,192.744Zm0,0" transform="translate(-106.982 -146.414)" fill="#94bf0b" fill-rule="evenodd"/><path d="M154.887,207.856q-.7-.773-1.354-1.591-.809.762-1.567,1.565.776.817,1.6,1.59Q154.2,208.618,154.887,207.856Zm0,0" transform="translate(-116.573 -158.274)" fill="#003f8a" fill-rule="evenodd"/><path d="M165.984,198.273q-.51-.776-.966-1.594-.749.588-1.463,1.208.562.82,1.178,1.6Q165.34,198.862,165.984,198.273Zm0,0" transform="translate(-125.466 -150.918)" fill="#5bc3cd" fill-rule="evenodd"/><path d="M151.473,168.918q-1.089.379-2.152.836-.521-1.179-.95-2.408,1.19-.389,2.41-.7Q151.084,167.8,151.473,168.918Zm0,0" transform="translate(-113.816 -127.876)" fill="#003f8a" fill-rule="evenodd"/><path d="M276.331,269.766q-.165.978-.4,1.953,1.054.241,2.127.406.168-1.072.255-2.15C277.646,269.927,276.984,269.858,276.331,269.766Zm0,0" transform="translate(-211.69 -206.996)" fill="#94bf0b" fill-rule="evenodd"/><path d="M289.945,237.133c.124.556.23,1.116.324,1.676q.914-.263,1.815-.589-.221-.9-.486-1.791Q290.78,236.811,289.945,237.133Zm0,0" transform="translate(-222.444 -181.418)" fill="#eadc00" fill-rule="evenodd"/><path d="M278.914,241.619q.057.749.069,1.5.792-.142,1.577-.328c-.054-.535-.125-1.07-.208-1.6Q279.638,241.429,278.914,241.619Zm0,0" transform="translate(-213.98 -185.072)" fill="#5bc3cd" fill-rule="evenodd"/><path d="M292.383,252.758q.112,1.039.157,2.084,1.1-.139,2.188-.342-.147-1.117-.36-2.23C293.713,252.454,293.051,252.615,292.383,252.758Zm0,0" transform="translate(-224.314 -193.572)" fill="#94bf0b" fill-rule="evenodd"/><path d="M278.568,255.725q-.048.927-.158,1.857.95-.034,1.894-.115.029-.993-.012-1.984Q279.434,255.629,278.568,255.725Zm0,0" transform="translate(-213.593 -196.038)" fill="#9f9fa1" fill-rule="evenodd"/><path d="M290.022,289.352q-.2,1.376-.518,2.734,1.486.389,2.993.646.206-1.512.288-3.047Q291.4,289.576,290.022,289.352Zm0,0" transform="translate(-222.105 -222.024)" fill="#94bf0b" fill-rule="evenodd"/><path d="M286.367,226.416q.3.686.569,1.393.7-.4,1.375-.838-.345-.73-.733-1.439C287.183,225.84,286.779,226.134,286.367,226.416Zm0,0" transform="translate(-219.698 -173.056)" fill="#9f9fa1" fill-rule="evenodd"/><path d="M271.392,285.23q-.345,1.129-.786,2.244c.779.312,1.569.6,2.364.854q.383-1.245.66-2.508Q272.5,285.565,271.392,285.23Zm0,0" transform="translate(-207.605 -218.862)" fill="#5bc3cd" fill-rule="evenodd"/><path d="M240.132,273.078q.74.43,1.5.816-.529.792-1.112,1.552c-.525-.321-1.047-.656-1.56-1.005Q239.573,273.777,240.132,273.078Zm0,0" transform="translate(-183.324 -209.538)" fill="#eadc00" fill-rule="evenodd"/><path d="M247.96,263.648q.7.281,1.411.521-.375.712-.79,1.4-.742-.32-1.464-.684Q247.56,264.281,247.96,263.648Zm0,0" transform="translate(-189.582 -202.303)" fill="#9f9fa1" fill-rule="evenodd"/><path d="M253.956,279.918q.957.421,1.939.78-.466,1.008-.987,1.983-1.021-.477-2.017-1.018Q253.451,280.809,253.956,279.918Zm0,0" transform="translate(-194.012 -214.786)" fill="#9f9fa1" fill-rule="evenodd"/><path d="M261.066,267.895q.9.237,1.819.411-.319.9-.682,1.771-.954-.273-1.887-.611Q260.713,268.692,261.066,267.895Zm0,0" transform="translate(-199.71 -205.561)" fill="#94bf0b" fill-rule="evenodd"/><path d="M231.44,266.609q.562.5,1.155.964-.593.545-1.215,1.058-.592-.551-1.15-1.134Q230.851,267.071,231.44,266.609Zm0,0" transform="translate(-176.626 -204.574)" fill="#003f8a" fill-rule="evenodd"/><path d="M265.962,256.762q.749.035,1.5.024-.117.8-.28,1.587c-.537-.037-1.074-.092-1.607-.16Q265.794,257.493,265.962,256.762Zm0,0" transform="translate(-203.747 -197.019)" fill="#9f9fa1" fill-rule="evenodd"/><path d="M292.8,270.733q-.015,1.154-.112,2.3,1.284.123,2.585.136-.008-1.249-.1-2.505C294.379,270.722,293.587,270.742,292.8,270.733Zm0,0" transform="translate(-224.551 -207.689)" fill="#003f8a" fill-rule="evenodd"/><path d="M187.264,147.407q-.982-.139-1.983-.208.09-1.077.256-2.152,1.072.166,2.127.407Q187.429,146.429,187.264,147.407Zm0,0" transform="translate(-142.137 -111.301)" fill="#eadc00" fill-rule="evenodd"/><path d="M221.466,144.833q-.742-.43-1.5-.816.529-.792,1.111-1.552.788.481,1.56,1.005Q222.025,144.134,221.466,144.833Zm0,0" transform="translate(-168.749 -109.32)" fill="#eadc00" fill-rule="evenodd"/><path d="M215.015,155.725q-.694-.281-1.41-.52.375-.713.789-1.4.742.32,1.464.684Q215.416,155.093,215.015,155.725Zm0,0" transform="translate(-163.869 -118.018)" fill="#9f9fa1" fill-rule="evenodd"/><path d="M206.544,136.7q-.956-.42-1.938-.779.465-1.009.987-1.983,1.02.476,2.016,1.017Q207.049,135.806,206.544,136.7Zm0,0" transform="translate(-156.964 -102.774)" fill="#00b2e7" fill-rule="evenodd"/><path d="M200.869,150.631q-.9-.237-1.818-.411.319-.9.682-1.771.955.273,1.887.611C201.355,149.576,201.1,150.1,200.869,150.631Zm0,0" transform="translate(-152.702 -113.912)" fill="#94bf0b" fill-rule="evenodd"/><path d="M170.282,124.7c-.914-.15-1.837-.26-2.763-.334q.079-1.534.288-3.047,1.5.26,2.992.646Q170.484,123.321,170.282,124.7Zm0,0" transform="translate(-128.508 -93.093)" fill="#94bf0b" fill-rule="evenodd"/><path d="M231.167,152.447q-.562-.5-1.155-.964.59-.545,1.214-1.057.592.55,1.15,1.134Q231.756,151.985,231.167,152.447Zm0,0" transform="translate(-176.458 -115.428)" fill="#94bf0b" fill-rule="evenodd"/><path d="M169.792,145.956q-1.181-.012-2.376.072-.093-1.259-.1-2.513,1.3.012,2.591.13Q169.808,144.8,169.792,145.956Zm0,0" transform="translate(-128.352 -110.126)" fill="#9f9fa1" fill-rule="evenodd"/><path d="M173.409,180.74c-.124-.557-.23-1.116-.324-1.677q-.915.263-1.815.589.221.9.486,1.791Q172.574,181.061,173.409,180.74Zm0,0" transform="translate(-131.386 -137.401)" fill="#eadc00" fill-rule="evenodd"/><path d="M186.061,177.737q-.057-.749-.069-1.5-.794.142-1.578.328.082.8.209,1.6C185.1,178.006,185.578,177.864,186.061,177.737Zm0,0" transform="translate(-141.471 -135.231)" fill="#94bf0b" fill-rule="evenodd"/><path d="M170.287,164.482q-.112-1.039-.156-2.084-1.1.139-2.189.342.146,1.117.36,2.23Q169.286,164.695,170.287,164.482Zm0,0" transform="translate(-128.832 -124.615)" fill="#94bf0b" fill-rule="evenodd"/><path d="M185.553,163.076q.045-.927.158-1.857-.95.034-1.894.115-.03.993.011,1.984Q184.686,163.174,185.553,163.076Zm0,0" transform="translate(-141.004 -123.71)" fill="#5bc3cd" fill-rule="evenodd"/><path d="M177.628,191.795q-.305-.686-.569-1.393-.7.4-1.375.838.345.729.732,1.439C176.812,192.37,177.216,192.077,177.628,191.795Zm0,0" transform="translate(-134.772 -146.102)" fill="#9f9fa1" fill-rule="evenodd"/><path d="M198.1,163.607q.195-.725.433-1.441c-.53-.085-1.062-.158-1.6-.213-.127.524-.237,1.051-.334,1.579Q197.353,163.546,198.1,163.607Zm0,0" transform="translate(-150.823 -124.273)" fill="#003f8a" fill-rule="evenodd"/><path d="M190.016,129.831q-1.106-.335-2.231-.591.273-1.261.652-2.505,1.189.386,2.358.855Q190.357,128.7,190.016,129.831Zm0,0" transform="translate(-144.058 -97.25)" fill="#5bc3cd" fill-rule="evenodd"/><g transform="translate(0.725 91.913)" clip-path="url(#a)"><path d="M3.395,403.253v-7.711H4.416v3.823l3.829-3.823H9.626l-3.233,3.123,3.376,4.587H8.422l-2.743-3.9-1.262,1.231v2.672Zm139.239,0,2.963-7.711h1.1l3.157,7.711h-1.164l-.9-2.335h-3.224l-.845,2.335Zm2.224-3.167h2.615l-.805-2.134q-.367-.972-.547-1.6a9.6,9.6,0,0,1-.416,1.474Zm-4.2-4.543h1.02v7.711h-1.02Zm-7.4,7.711v-7.711h2.893a3.6,3.6,0,0,1,1.416.234,1.822,1.822,0,0,1,.837.722,1.9,1.9,0,0,1,.3,1.018,1.729,1.729,0,0,1-.27.929,1.906,1.906,0,0,1-.808.705,2.017,2.017,0,0,1,1.074.7,1.871,1.871,0,0,1,.377,1.168,2.253,2.253,0,0,1-.23,1.007,1.953,1.953,0,0,1-.565.718,2.368,2.368,0,0,1-.844.381,5.144,5.144,0,0,1-1.244.129Zm1.022-4.47h1.666a3.768,3.768,0,0,0,.974-.09,1.077,1.077,0,0,0,.585-.385,1.11,1.11,0,0,0,.2-.673,1.246,1.246,0,0,0-.182-.675.937.937,0,0,0-.526-.4,4.392,4.392,0,0,0-1.174-.108h-1.54Zm0,3.56H136.2a4.561,4.561,0,0,0,.7-.036,1.664,1.664,0,0,0,.589-.212,1.12,1.12,0,0,0,.389-.427,1.351,1.351,0,0,0,.153-.65,1.287,1.287,0,0,0-.221-.75,1.17,1.17,0,0,0-.614-.447,3.85,3.85,0,0,0-1.127-.127h-1.783Zm-9.01.91,2.963-7.711h1.1l3.156,7.711h-1.164l-.9-2.335H127.2l-.845,2.335Zm2.224-3.167h2.615l-.805-2.134q-.367-.972-.546-1.6a9.8,9.8,0,0,1-.416,1.474Zm-9.14,3.167v-7.711h3.418a4.55,4.55,0,0,1,1.567.208,1.723,1.723,0,0,1,.858.733,2.2,2.2,0,0,1,.32,1.164,1.929,1.929,0,0,1-.532,1.382,2.688,2.688,0,0,1-1.641.716,2.575,2.575,0,0,1,.616.385,5.4,5.4,0,0,1,.847,1.024l1.341,2.1h-1.284l-1.02-1.605c-.3-.461-.544-.816-.737-1.061a2.279,2.279,0,0,0-.517-.514,1.549,1.549,0,0,0-.465-.207,3.277,3.277,0,0,0-.569-.035h-1.183v3.423Zm1.02-4.307h2.194a3.265,3.265,0,0,0,1.094-.145,1.163,1.163,0,0,0,.6-.463,1.252,1.252,0,0,0,.205-.691,1.149,1.149,0,0,0-.4-.9,1.856,1.856,0,0,0-1.254-.352h-2.44Zm-9.068,4.307,2.963-7.711h1.1l3.155,7.711h-1.164l-.9-2.335H112.24l-.845,2.335Zm2.224-3.167h2.615l-.805-2.134q-.367-.972-.546-1.6a9.8,9.8,0,0,1-.416,1.474Zm-6.593-4.543h1.02v7.711h-1.02Zm-7.953,7.711v-7.711h2.655a6.438,6.438,0,0,1,1.374.112,2.6,2.6,0,0,1,1.13.551,3.14,3.14,0,0,1,.913,1.317,5.169,5.169,0,0,1,.3,1.834,5.338,5.338,0,0,1-.206,1.556,3.785,3.785,0,0,1-.526,1.124,2.745,2.745,0,0,1-.7.7,2.836,2.836,0,0,1-.919.388,5.293,5.293,0,0,1-1.239.131Zm1.02-.91h1.646a4.005,4.005,0,0,0,1.2-.142,1.72,1.72,0,0,0,.692-.4,2.407,2.407,0,0,0,.565-.975,4.753,4.753,0,0,0,.2-1.486,3.585,3.585,0,0,0-.4-1.858,1.994,1.994,0,0,0-.965-.871,3.981,3.981,0,0,0-1.32-.158H99.007Zm-3.739-6.8h1.021V400a5.249,5.249,0,0,1-.264,1.845,2.251,2.251,0,0,1-.949,1.111,3.351,3.351,0,0,1-1.8.429,3.681,3.681,0,0,1-1.771-.374,2.116,2.116,0,0,1-.984-1.081A5.125,5.125,0,0,1,90.226,400v-4.456h1.019v4.451a4.3,4.3,0,0,0,.187,1.479,1.427,1.427,0,0,0,.64.734,2.232,2.232,0,0,0,1.114.258,2.124,2.124,0,0,0,1.6-.512,2.943,2.943,0,0,0,.478-1.96Zm-13.09,7.711,2.962-7.711h1.1l3.155,7.711H88.232l-.9-2.335H84.108l-.846,2.335Zm2.224-3.167h2.616l-.806-2.134q-.367-.972-.545-1.6a10.024,10.024,0,0,1-.416,1.474Zm-8.907.69.962-.085a2.082,2.082,0,0,0,.318.949,1.734,1.734,0,0,0,.775.6,2.926,2.926,0,0,0,1.183.228,2.839,2.839,0,0,0,1.031-.173,1.443,1.443,0,0,0,.665-.475,1.109,1.109,0,0,0,.219-.661,1,1,0,0,0-.212-.634,1.549,1.549,0,0,0-.693-.454,13.509,13.509,0,0,0-1.374-.377,7.069,7.069,0,0,1-1.488-.481,2.087,2.087,0,0,1-.824-.718,1.763,1.763,0,0,1-.27-.961,1.959,1.959,0,0,1,.331-1.09,2.058,2.058,0,0,1,.967-.772,3.708,3.708,0,0,1,1.414-.262,3.866,3.866,0,0,1,1.514.276,2.187,2.187,0,0,1,1.007.812,2.351,2.351,0,0,1,.379,1.215l-.979.074a1.58,1.58,0,0,0-.535-1.1,2.076,2.076,0,0,0-1.343-.374,2.156,2.156,0,0,0-1.35.34,1.018,1.018,0,0,0-.424.816.875.875,0,0,0,.3.684,4.06,4.06,0,0,0,1.538.549,10.291,10.291,0,0,1,1.707.492,2.359,2.359,0,0,1,.994.786,1.918,1.918,0,0,1,.318,1.1,2.094,2.094,0,0,1-.351,1.159,2.331,2.331,0,0,1-1.012.847,3.539,3.539,0,0,1-1.484.3,4.408,4.408,0,0,1-1.754-.305,2.454,2.454,0,0,1-1.111-.917A2.588,2.588,0,0,1,75.5,400.776Zm-9.173,2.477v-7.711h5.2v.91H67.343v2.388H70.96v.91H67.343v3.5ZM57.581,399.5a4.191,4.191,0,0,1,1.03-3.005,3.511,3.511,0,0,1,2.663-1.086,3.7,3.7,0,0,1,1.924.51A3.349,3.349,0,0,1,64.5,397.34a4.61,4.61,0,0,1,.449,2.068,4.546,4.546,0,0,1-.472,2.1,3.241,3.241,0,0,1-1.342,1.4,3.833,3.833,0,0,1-1.872.475,3.631,3.631,0,0,1-1.946-.526,3.376,3.376,0,0,1-1.3-1.435A4.347,4.347,0,0,1,57.581,399.5Zm1.053.015a3.088,3.088,0,0,0,.748,2.2,2.616,2.616,0,0,0,3.776-.007,3.279,3.279,0,0,0,.746-2.3,3.955,3.955,0,0,0-.32-1.643,2.464,2.464,0,0,0-.93-1.09,2.536,2.536,0,0,0-1.374-.385,2.6,2.6,0,0,0-1.865.745A3.323,3.323,0,0,0,58.633,399.513Zm-12.738,3.74v-7.711H47.43L49.255,401c.169.508.293.889.367,1.142.089-.28.225-.693.413-1.236l1.845-5.364h1.373v7.711h-.984V396.8l-2.24,6.453h-.922l-2.23-6.563v6.563ZM37.238,399.5a4.184,4.184,0,0,1,1.031-3.005,3.506,3.506,0,0,1,2.662-1.086,3.7,3.7,0,0,1,1.924.51,3.345,3.345,0,0,1,1.307,1.424,4.61,4.61,0,0,1,.449,2.068,4.524,4.524,0,0,1-.473,2.1,3.234,3.234,0,0,1-1.341,1.4,3.835,3.835,0,0,1-1.872.475,3.631,3.631,0,0,1-1.946-.526,3.376,3.376,0,0,1-1.3-1.435A4.334,4.334,0,0,1,37.238,399.5Zm1.053.015a3.088,3.088,0,0,0,.748,2.2,2.616,2.616,0,0,0,3.776-.007,3.279,3.279,0,0,0,.745-2.3,3.955,3.955,0,0,0-.319-1.643,2.461,2.461,0,0,0-.931-1.09,2.531,2.531,0,0,0-1.374-.385,2.6,2.6,0,0,0-1.864.745A3.323,3.323,0,0,0,38.291,399.513Zm-8.52,3.74v-7.711h2.655a6.444,6.444,0,0,1,1.374.112,2.611,2.611,0,0,1,1.131.551,3.147,3.147,0,0,1,.912,1.317,5.149,5.149,0,0,1,.3,1.834,5.338,5.338,0,0,1-.206,1.556,3.762,3.762,0,0,1-.526,1.124,2.759,2.759,0,0,1-.7.7,2.854,2.854,0,0,1-.919.388,5.293,5.293,0,0,1-1.239.131Zm1.02-.91h1.646a4.009,4.009,0,0,0,1.2-.142,1.71,1.71,0,0,0,.691-.4,2.409,2.409,0,0,0,.565-.975,4.782,4.782,0,0,0,.2-1.486,3.594,3.594,0,0,0-.4-1.858,2,2,0,0,0-.965-.871,3.987,3.987,0,0,0-1.321-.158H30.79ZM25,400.228v-.9l3.265-.005v2.86a5.772,5.772,0,0,1-1.551.9,4.619,4.619,0,0,1-1.641.3,4.372,4.372,0,0,1-2.064-.486,3.217,3.217,0,0,1-1.4-1.405,4.417,4.417,0,0,1-.475-2.058,4.745,4.745,0,0,1,.473-2.1,3.125,3.125,0,0,1,1.354-1.451A4.262,4.262,0,0,1,25,395.412a4.03,4.03,0,0,1,1.512.271,2.485,2.485,0,0,1,1.059.755,3.346,3.346,0,0,1,.585,1.262l-.921.253a2.887,2.887,0,0,0-.431-.926,1.769,1.769,0,0,0-.738-.538,2.7,2.7,0,0,0-1.061-.2,3.129,3.129,0,0,0-1.21.214,2.269,2.269,0,0,0-.825.56,2.7,2.7,0,0,0-.485.763,4.027,4.027,0,0,0-.295,1.551,3.767,3.767,0,0,0,.355,1.725,2.272,2.272,0,0,0,1.034,1.031,3.2,3.2,0,0,0,1.439.337,3.421,3.421,0,0,0,1.3-.256,3.276,3.276,0,0,0,.956-.544v-1.436Zm-11.4,3.025v-7.711H14.65L18.7,401.6v-6.053h.978v7.711H18.632l-4.05-6.059v6.059ZM10.8,395.543h1.019v7.711H10.8Zm0,0" transform="translate(-3.303 -395.312)" fill="#9f9fa1" fill-rule="evenodd"/></g><path d="M201.032,167.469a3.359,3.359,0,0,1,.5,1.679s1.042-1.705,3.2-.284c0,0-1.838-.246-2.274.7,0,0,2.824-.739,3.43,1.876,0,0-1.307-1.459-2.5-1.194a3.058,3.058,0,0,1,1.953,3.733s-.227-2.5-2.046-2.805a4.156,4.156,0,0,1,1.042,4.171,4.1,4.1,0,0,0-1.288-3.052,4.4,4.4,0,0,1-.55,4.074s.739-2.483-.455-3.393c0,0-.494-.3-.475.606,0,0-.141,5.209.116,7.75,0,0,5.216-4.413,9.679-1.479,0,0-4.419-2.157-9.508,2.594l3.4,2.983a.852.852,0,0,1,1.575.45c0,1.146-1.61,1.065-2.2.377l-3.569-3.28-.025-.077-.026.077-3.569,3.28c-.588.688-2.2.769-2.2-.377a.852.852,0,0,1,1.575-.45l3.4-2.983c-5.089-4.751-9.509-2.594-9.509-2.594,4.464-2.934,9.679,1.479,9.679,1.479.258-2.541.116-7.75.116-7.75.019-.909-.474-.606-.474-.606-1.194.91-.455,3.393-.455,3.393a4.4,4.4,0,0,1-.549-4.074,4.1,4.1,0,0,0-1.289,3.052,4.156,4.156,0,0,1,1.043-4.171c-1.82.3-2.047,2.805-2.047,2.805a3.058,3.058,0,0,1,1.952-3.733c-1.194-.265-2.5,1.194-2.5,1.194.605-2.615,3.431-1.876,3.431-1.876-.435-.947-2.274-.7-2.274-.7,2.161-1.422,3.2.284,3.2.284A3.341,3.341,0,0,1,201.032,167.469Zm0,0" transform="translate(-146.297 -128.505)" fill="#9f9fa1" fill-rule="evenodd"/><path d="M7.845,346.895h.993V345.9H7.845ZM5.52,336.133H4.527v.993H5.52Zm4,10.762h.992V345.9H9.517Zm-5.67-10.762H2.856v.993h.992Zm12.7,2.952a2.418,2.418,0,0,0-.862-.626,2.58,2.58,0,0,0-1.149-.209H13.8v.94h.862a1.42,1.42,0,0,1,.654.157,1.6,1.6,0,0,1,.522.392,1.807,1.807,0,0,1,.286.548,2.918,2.918,0,0,1,.08.732v2.794H11.685v.966H17.17v-3.787a3.534,3.534,0,0,0-.156-1.071A2.192,2.192,0,0,0,16.543,339.084Zm37.3,5.694h.966v-8.646h-.966Zm-3.762-.966H48.489a3.209,3.209,0,0,1-1.332-.235,1.855,1.855,0,0,1-.757-.732,3.151,3.151,0,0,0,.1-.914V338.85h-.966v3.239a1.9,1.9,0,0,1-.444,1.332,1.736,1.736,0,0,1-1.358.5,1.9,1.9,0,0,1-.784-.13,2.247,2.247,0,0,1-.6-.34,2.085,2.085,0,0,1-.392-.548,1.417,1.417,0,0,1-.157-.654v-3.4h-.966v3.317a2.058,2.058,0,0,1-.131.757,1.165,1.165,0,0,1-.365.5,1.27,1.27,0,0,1-.523.287,1.518,1.518,0,0,1-.6.1H37.336V338.85h-.967v4.962H31.328L33,339.79a9.935,9.935,0,0,0-.811-.653,7.628,7.628,0,0,0-.887-.5,4.651,4.651,0,0,0-.94-.365,3.351,3.351,0,0,0-1.855,0,6.759,6.759,0,0,0-.94.339,6.114,6.114,0,0,0-.888.523,6.984,6.984,0,0,0-.811.653l1.7,4.022H24.223v-5.563H22.682a5.287,5.287,0,0,0-1.62.235,4.142,4.142,0,0,0-1.254.705,2.969,2.969,0,0,0-.836,1.045,3.072,3.072,0,0,0-.288,1.305A2.809,2.809,0,0,0,19.025,343a2.65,2.65,0,0,0,.862.992,3.838,3.838,0,0,0,1.28.6,7.072,7.072,0,0,0,1.515.183h.575v.262a1.3,1.3,0,0,1-.418,1.1,2.081,2.081,0,0,1-1.228.313,3.829,3.829,0,0,1-.809-.078,5.057,5.057,0,0,1-.81-.287L19.7,347a6.9,6.9,0,0,0,.966.314,3.246,3.246,0,0,0,.862.1,2.8,2.8,0,0,0,2.064-.679,2.5,2.5,0,0,0,.627-1.776v-.184H39.217a2.479,2.479,0,0,0,1.254-.313,2.657,2.657,0,0,0,.888-.81,2.267,2.267,0,0,0,.94.914,3.08,3.08,0,0,0,1.437.313A3.475,3.475,0,0,0,45.2,344.6a2.047,2.047,0,0,0,.94-.94,1.6,1.6,0,0,0,.314.418,1.534,1.534,0,0,0,.445.339,2.127,2.127,0,0,0,.652.262,2.947,2.947,0,0,0,.706.078v.025h2.794v-8.646h-.966Zm23.312,3.105h.993v-.993h-.993Zm9.429-3.083-1.489-3.709a3.418,3.418,0,0,1,1.124-.68,3.291,3.291,0,0,1,1.228-.208,4.044,4.044,0,0,1,2.375.888l-1.514,3.709Zm6.844,0h-4.1l1.7-4.049c-.262-.209-.548-.418-.835-.627a10.2,10.2,0,0,0-.888-.522,6.431,6.431,0,0,0-.914-.34,3.467,3.467,0,0,0-1.881,0,6.686,6.686,0,0,0-.94.34,6.057,6.057,0,0,0-.888.522c-.287.209-.549.418-.81.627,1.7,3.985,1.724,4.048,1.724,4.049h-3.6v-5.59h-.966v6.739a2.743,2.743,0,0,1-.053.705.986.986,0,0,1-.13.444.564.564,0,0,1-.287.262,1.05,1.05,0,0,1-.445.078.713.713,0,0,1-.235-.026,1.468,1.468,0,0,1-.262-.052l-.261.94a4.584,4.584,0,0,0,.784.1,1.792,1.792,0,0,0,.888-.183,1.433,1.433,0,0,0,.575-.47,2.709,2.709,0,0,0,.314-.784,5.815,5.815,0,0,0,.078-1.019v-.209H90.635v-8.62h-.966Zm-19.8,3.083h.992v-.993h-.992Zm-5.852-3.083h-.966a3.443,3.443,0,0,1-1.018-.157,2.264,2.264,0,0,1-.81-.47,1.894,1.894,0,0,1-.575-.705,2.368,2.368,0,0,1-.209-.966,1.955,1.955,0,0,1,.235-.966,3.08,3.08,0,0,1,.575-.732,4.554,4.554,0,0,1,.862-.47,2.957,2.957,0,0,1,.94-.156h.966Zm10.37-5.59h-.966v5.59H69.79v-5.59h-.966v5.59h-3.84v-5.59H63.469a5.441,5.441,0,0,0-1.645.261,3.6,3.6,0,0,0-1.254.679,3.121,3.121,0,0,0-.81,1.045,3.082,3.082,0,0,0-.287,1.305A3.257,3.257,0,0,0,59.812,343a3.2,3.2,0,0,0,.863,1.019,3.841,3.841,0,0,0,1.279.574,5.6,5.6,0,0,0,1.515.183H74.387ZM68.2,346.918h.993v-.993H68.2Zm-3.213-10.762h-.993v.993h.993Zm-1.7,0h-.992v.993h.992Zm30.144,8.62H94.4v-8.62h-.967Zm43.12-.841a2.483,2.483,0,0,1-.548.81,2.745,2.745,0,0,1-.784.522,2.617,2.617,0,0,1-1.019.183,2.115,2.115,0,0,1-.993-.209,3.164,3.164,0,0,1-.785-.522,2.35,2.35,0,0,1-.5-.81,2.485,2.485,0,0,1-.209-.966,2.611,2.611,0,0,1,.209-.993,2.35,2.35,0,0,1,.5-.81,2.991,2.991,0,0,1,.785-.548,2.4,2.4,0,0,1,.993-.183,2.617,2.617,0,0,1,1.019.183,2.883,2.883,0,0,1,.81.522,2.079,2.079,0,0,1,.522.81,2.627,2.627,0,0,1,.209,1.019A2.5,2.5,0,0,1,136.55,343.934Zm-9.351,0a2.469,2.469,0,0,1-.548.81,2.549,2.549,0,0,1-.81.522,2.4,2.4,0,0,1-.993.183,2.115,2.115,0,0,1-.993-.209,3.142,3.142,0,0,1-.784-.522,2.863,2.863,0,0,1-.522-.81,3,3,0,0,1-.184-.966,3.152,3.152,0,0,1,.184-.993,2.863,2.863,0,0,1,.522-.81,2.985,2.985,0,0,1,.784-.548,2.4,2.4,0,0,1,.993-.183,2.614,2.614,0,0,1,1.019.183,2.883,2.883,0,0,1,.81.522,2.4,2.4,0,0,1,.522.81,2.627,2.627,0,0,1,.209,1.019A2.5,2.5,0,0,1,127.2,343.934Zm-23.456.444H102.8a3.2,3.2,0,0,1-1.018-.156,2.394,2.394,0,0,1-.836-.47,1.847,1.847,0,0,1-.548-.705,2.009,2.009,0,0,1-.209-.966,2.284,2.284,0,0,1,.209-.967,2.63,2.63,0,0,1,.6-.731,3.626,3.626,0,0,1,.835-.47,3,3,0,0,1,.966-.157h.941Zm36.987,0h-3.318a3.3,3.3,0,0,0,.314-1.436,3.55,3.55,0,0,0-.287-1.384,3.639,3.639,0,0,0-.731-1.124,3.348,3.348,0,0,0-1.124-.731,3.719,3.719,0,0,0-2.742,0,3.167,3.167,0,0,0-1.071.757,3,3,0,0,0-.732,1.124,3.422,3.422,0,0,0-.287,1.358,3.228,3.228,0,0,0,.313,1.436h-3a3.3,3.3,0,0,0,.314-1.436,3.55,3.55,0,0,0-.287-1.384,3.639,3.639,0,0,0-.731-1.124,3.353,3.353,0,0,0-1.124-.731,3.447,3.447,0,0,0-1.384-.262,3.318,3.318,0,0,0-1.358.262,3.576,3.576,0,0,0-1.1.757,3.775,3.775,0,0,0-.731,1.124,3.888,3.888,0,0,0-.262,1.358,3.57,3.57,0,0,0,.078.757,6.849,6.849,0,0,0,.209.679h-3.056V336.7h-.967v7.68h-3.055v-1.489a3.49,3.49,0,0,0-.156-1.044,2.243,2.243,0,0,0-.445-.862,3.288,3.288,0,0,0-.863-.627,3.075,3.075,0,0,0-1.174-.183h-4.284l1.829-3.474H108.47l-1.854,3.448a2.892,2.892,0,0,0,.129.549,2.345,2.345,0,0,0,.288.417h4.937a1.906,1.906,0,0,1,.784.157,1.271,1.271,0,0,1,.523.365,1.127,1.127,0,0,1,.287.549,2.926,2.926,0,0,1,.078.7v1.489h-8.933v-5.59h-1.515a5.446,5.446,0,0,0-1.645.261,3.85,3.85,0,0,0-1.254.68,3.049,3.049,0,0,0-.784,1.044,2.736,2.736,0,0,0-.287,1.306,3.245,3.245,0,0,0,.314,1.463,4.034,4.034,0,0,0,.862,1.018,3.821,3.821,0,0,0,1.28.575,5.759,5.759,0,0,0,1.514.183h19.121a3.457,3.457,0,0,0,1.123.81,3.671,3.671,0,0,0,2.847,0,2.986,2.986,0,0,0,1.15-.81h4.258a3.344,3.344,0,0,0,1.1.81,3.262,3.262,0,0,0,1.411.287,3.3,3.3,0,0,0,1.436-.287,2.986,2.986,0,0,0,1.15-.81H141.7V336.7h-.966Zm3.787.941h.966V336.7h-.966ZM103.01,336.7h-.993v.993h.993Zm1.7,0h-.993v.993h.993Zm-94.382,1.551H9.36v5.563H5.52v-5.563H4.006a5.462,5.462,0,0,0-1.646.235,4.13,4.13,0,0,0-1.254.68,3.118,3.118,0,0,0-1.071,2.351,3.18,3.18,0,0,0,.314,1.463A3.039,3.039,0,0,0,1.237,344a3.682,3.682,0,0,0,1.254.575,5.917,5.917,0,0,0,1.515.208h6.321Zm-5.772,5.563h-.94a3.2,3.2,0,0,1-1.019-.156,2.826,2.826,0,0,1-.836-.445,2.173,2.173,0,0,1-.549-.731A1.963,1.963,0,0,1,1,341.514a2.263,2.263,0,0,1,.208-.941,2.379,2.379,0,0,1,.6-.731,2.4,2.4,0,0,1,.835-.471,3.047,3.047,0,0,1,.967-.183h.94Zm18.7,0h-.967a3.2,3.2,0,0,1-1.018-.156,2.331,2.331,0,0,1-.835-.445,1.9,1.9,0,0,1-.575-.7,2.28,2.28,0,0,1-.208-.967,1.925,1.925,0,0,1,.235-.94,2.308,2.308,0,0,1,.575-.732,3.383,3.383,0,0,1,.836-.5,3.3,3.3,0,0,1,.992-.156h.967Zm5.329,0L27.069,340.1a4.031,4.031,0,0,1,1.15-.679,3.777,3.777,0,0,1,1.228-.209,3.212,3.212,0,0,1,1.28.261,3.86,3.86,0,0,1,1.071.627l-1.49,3.709Zm0,0" transform="translate(0 -257.919)" fill="#9f9fa1" fill-rule="evenodd"/><path d="M385.16,22.486h1.668v1.669H385.16Zm3.337,0h1.669v1.669H388.5ZM355.571,3.5H353.9V1.835h1.668ZM395.52,15.116a7.06,7.06,0,0,0,2.19,1.008,10.769,10.769,0,0,0,2.643.313h.417l.591-1.182v1.634a2.215,2.215,0,0,1-.765,1.877,3.313,3.313,0,0,1-2.086.556,5.7,5.7,0,0,1-1.391-.139,8.681,8.681,0,0,1-1.425-.487l-.523,1.6a12.837,12.837,0,0,0,1.705.521,7.287,7.287,0,0,0,1.494.175,4.722,4.722,0,0,0,3.546-1.148A4.3,4.3,0,0,0,403,16.75V5.173h-2.643a8.88,8.88,0,0,0-2.816.417,6.734,6.734,0,0,0-2.155,1.182,5.47,5.47,0,0,0-1.425,1.808,5.538,5.538,0,0,0-.487,2.294,5.129,5.129,0,0,0,.556,2.5A4.809,4.809,0,0,0,395.52,15.116Zm0-5.876a3.694,3.694,0,0,1,1.008-1.286,4.786,4.786,0,0,1,3.093-1.113H402.3l-.939.487v7.441h-1.7a5.535,5.535,0,0,1-1.738-.244,4.854,4.854,0,0,1-1.46-.765,4.065,4.065,0,0,1-.974-1.217,3.678,3.678,0,0,1-.348-1.669A3.244,3.244,0,0,1,395.52,9.24ZM358.875,3.5H357.24V1.835h1.634Zm48.362,17.488a6.031,6.031,0,0,1-1.356-.175l.417-1.6a2.894,2.894,0,0,1,.451.1h.417a1.674,1.674,0,0,0,.766-.139.824.824,0,0,0,.486-.417,2.167,2.167,0,0,0,.244-.8,6.03,6.03,0,0,0,.069-1.182V5.173H410.4V16.785a8.785,8.785,0,0,1-.139,1.738,3.393,3.393,0,0,1-.556,1.356,2.548,2.548,0,0,1-.974.834A3.821,3.821,0,0,1,407.237,20.992Zm-52.882-.209H357.8V19.531a.772.772,0,0,1,.1.175,2.661,2.661,0,0,0,1.009.834,3.684,3.684,0,0,0,1.494.278h30.352V5.173h-1.669V19.149H360.475a2.639,2.639,0,0,1-.8-.1,1.136,1.136,0,0,1-.452-.452,2.131,2.131,0,0,1-.278-.8,10.332,10.332,0,0,1-.07-1.182V5.173h-4.484a7.627,7.627,0,0,0-7.719,7.788v.035A7.577,7.577,0,0,0,354.355,20.783Zm-5.911-7.857a5.907,5.907,0,0,1,5.911-6.189h3.894l-1.008.486v9.388a8.565,8.565,0,0,0,.139,1.738,4.716,4.716,0,0,0,.244.834h-3.233a5.987,5.987,0,0,1-5.946-6.223ZM401.138-.012H402.5V1.211h-1.248a.489.489,0,0,0-.487.488v.488H402.9V3.511h-3.523V1.749A1.766,1.766,0,0,1,401.138-.012Zm0,0" transform="translate(-265.969)" fill="#9f9fa1" fill-rule="evenodd"/><path d="M73.463,20.856h1.7V36.414H73.776L62.7,22.419l.972,2.257V36.414h-1.7V20.856H63.6l10.558,13.4-.7-1.91ZM8.628,36.553l-6.7-15.7H3.87l.973,2.326L9.427,34.261l.451,1.076-.174-1.7,5.313-12.779h1.875l-6.7,15.7Zm29.727-15.7h1.771V36.414H38.355ZM57.246,28.67a6.123,6.123,0,0,1-6.112,6.391,6.2,6.2,0,0,1-6.147-6.425V28.6a6.136,6.136,0,1,1,12.259.035Zm-6.112-8.091a7.907,7.907,0,0,0-7.953,8.057v.035A7.807,7.807,0,0,0,51.1,36.692a7.893,7.893,0,0,0,7.987-8.057V28.6A7.835,7.835,0,0,0,51.134,20.578ZM35.472,32.212v.035c0,2.674-2.257,4.411-5.348,4.411a9.128,9.128,0,0,1-6.355-2.5l1.076-1.284a7.486,7.486,0,0,0,5.348,2.188c2.118,0,3.473-1.112,3.473-2.64v-.035c0-1.459-.764-2.292-4.063-2.952-3.577-.8-5.209-1.944-5.209-4.514v-.035c0-2.465,2.153-4.271,5.1-4.271a8.026,8.026,0,0,1,5.487,1.944l-1.007,1.354a6.929,6.929,0,0,0-4.514-1.7c-2.014,0-3.333,1.111-3.333,2.5v.07c0,1.458.8,2.292,4.236,3.021C33.84,28.566,35.472,29.816,35.472,32.212Zm-14.412,4.2H19.289V20.856H21.06Zm0,0" transform="translate(-1.451 -15.798)" fill="#9f9fa1" fill-rule="evenodd"/></g></svg>