<svg xmlns="http://www.w3.org/2000/svg" width="146.795" height="100" viewBox="0 0 146.795 100"><g transform="translate(-2349.318 -134.91)"><path d="M34.829,47.57V27.309L17.03,0H37.488L44.07,14.792h.263L51.153,0H71.374L54.312,27.309V47.57Z" transform="translate(2377.127 174.455)" fill="#dddd6d" fill-rule="evenodd"/><path d="M24.381,31.337,27.014,20.4c.737-3.038,1.237-6.094,1.711-8.993h.237c.5,2.9.737,5.955,1.474,8.993l1.948,10.938ZM56.292,47.57,41.179,0H17.3L0,47.57H19.984L21.7,41.459H34.86l1.448,6.111Z" transform="translate(2349.318 174.455)" fill="#fff" fill-rule="evenodd"/><path d="M71.023,22.986,86.662,0H66.144L55.41,20.243h-.237V0h-10.5L35.63,14.462V47.57H55.173V25.712h.237L67.621,47.57H88.614L71.023,22.986Z" transform="translate(2407.499 174.455)" fill="#dddd6d" fill-rule="evenodd"/><path d="M98.234,25.657h1.181v1.072H98.234Zm-.462,1.492v1.072H96.59V27.149ZM96.59,25.657h1.181v1.072H96.59ZM82.2,17.907l5.809-3.045V13.469l-.577.3L82.2,16.513Zm5.232-1.346L82.2,19.3V20.7l5.809-3.045V16.256Zm0,2.789L82.2,22.09v1.394l5.809-3.045V19.046Zm10.913-5.625V20.9L98,20.825,93.731,24.25V7.683L82.2,13.724v1.394l7.139-3.739V27.77l2.142.393,6.569-5.381,5.418,4.163,7.262-3.482L99.673,21.172v-6.75l5.81-3.045v11l4.39.91V10.972l-3.139-1.644-7.061,3.7v-8.6L91.225,0,87.433,1.987v7.6l4.391-2.3V1.708l6.521,3.415Zm5.808,3.393L101,18.767v2.253l3.149-1.65ZM101,17.374l3.149-1.649V13.469L101,15.118Zm-12.727,11.1,9.477,1.74v5.211ZM98.95,32.1V30.117l17.62-8.449Zm0,2.939V32.376L115.964,22.3ZM11,37.433H76.854l9.836-7.768L97,37.433l.76.573V35.576l-.079.089L88.01,28.576V21.834L82.2,24.88v6.379l-6.035,4.661H11Zm125.65-1.513,1.927,1.513h-4.429L117.841,24.2,99.833,37.433l-.883.649V35.339l18.9-14.162-.056-.069,20.78,16.325ZM99.415,27.149v1.072H98.234V27.149Z" transform="translate(2355.594 134.91)" fill="#fff" fill-rule="evenodd"/><rect width="146.795" height="0.979" transform="translate(2349.318 223.488)" fill="#fff"/><path d="M-1295.38-58.264a.521.521,0,0,1,.381.155.505.505,0,0,1,.157.372.505.505,0,0,1-.157.372.521.521,0,0,1-.381.155.512.512,0,0,1-.374-.155.5.5,0,0,1-.157-.372.5.5,0,0,1,.157-.375A.518.518,0,0,1-1295.38-58.264Zm1.218,0a.521.521,0,0,1,.381.155.505.505,0,0,1,.156.372.505.505,0,0,1-.156.372.521.521,0,0,1-.381.155.5.5,0,0,1-.371-.155.511.511,0,0,1-.153-.372.507.507,0,0,1,.153-.375A.507.507,0,0,1-1294.162-58.264Zm.538,1.3v2.324a.091.091,0,0,0,.027.068.111.111,0,0,0,.082.027h.231v.871h-.538a.9.9,0,0,1-.633-.27,1.1,1.1,0,0,1-.8.331h-.021a1.23,1.23,0,0,1-1.068-.561,1.756,1.756,0,0,1-.313-1.047,1.685,1.685,0,0,1,.476-1.229,1.433,1.433,0,0,1,1.068-.439,1.773,1.773,0,0,1,.688.142l.279-.216Zm-1.055,1.02a1.276,1.276,0,0,0-.306-.041.58.58,0,0,0-.47.2.846.846,0,0,0-.17.561.816.816,0,0,0,.187.554.613.613,0,0,0,.487.216,1.316,1.316,0,0,0,.272-.034Zm3.621-.838V-54.6a.312.312,0,0,0,.007.061h.34v.871h-.211l-.3-.311h-.021a.809.809,0,0,1-.66.311h-1.422v-.871h1.082a.125.125,0,0,0,.1-.041.127.127,0,0,0,.034-.095v-2.1Zm-1.756,3.418a.521.521,0,0,1,.381.155.513.513,0,0,1,.156.378.506.506,0,0,1-.156.372.521.521,0,0,1-.381.155.513.513,0,0,1-.374-.155.505.505,0,0,1-.157-.372.513.513,0,0,1,.157-.378A.513.513,0,0,1-1292.815-53.36Zm1.218,0a.521.521,0,0,1,.381.155.513.513,0,0,1,.157.378.505.505,0,0,1-.157.372.521.521,0,0,1-.381.155.5.5,0,0,1-.371-.155.511.511,0,0,1-.153-.372.519.519,0,0,1,.153-.378A.5.5,0,0,1-1291.6-53.36Zm2.089-1.182v.871h-1.259v-.871Zm7.439-2.236v2.27a.8.8,0,0,1-.248.591.815.815,0,0,1-.6.247h-1.531l-.286-.317h-.021a.8.8,0,0,1-.66.317h-1.531l-.286-.317h-.02a.8.8,0,0,1-.66.317h-2.042v-.871h1.742a.084.084,0,0,0,.1-.095V-56h1.048v1.061q0,.1.007.318v.081h1.348a.084.084,0,0,0,.1-.095v-1.756h1.048v1.567q0,.115.007.284h1.347a.084.084,0,0,0,.1-.095v-2.141Zm1.429-.041a2.308,2.308,0,0,1,.49-.041,1.8,1.8,0,0,1,1.348.52,1.621,1.621,0,0,1,.456,1.182v.331q0,.189.007.284h.17v.871h-.089l-.252-.311h-.021q-.061.068-.109.115a.875.875,0,0,1-.538.2h-2.151v-.871h1.838a.084.084,0,0,0,.1-.095v-.439a.931.931,0,0,0-.255-.676.883.883,0,0,0-.664-.263,1.52,1.52,0,0,0-.327.027Zm4.158-1.446a.515.515,0,0,1,.378.152.508.508,0,0,1,.153.375.511.511,0,0,1-.153.372.509.509,0,0,1-.378.155.512.512,0,0,1-.374-.155.505.505,0,0,1-.157-.372.505.505,0,0,1,.157-.372A.512.512,0,0,1-1276.481-58.264Zm.531,1.486V-54.6a.3.3,0,0,0,.007.061h.333v.871h-.211l-.3-.311h-.014a.828.828,0,0,1-.667.311h-1.422v-.871h1.089a.118.118,0,0,0,.1-.041.116.116,0,0,0,.041-.095v-2.1Zm1.946.074a3.662,3.662,0,0,1,1.49-.331,1.942,1.942,0,0,1,1.47.567,1.806,1.806,0,0,1,.49,1.311v.4q0,.068.007.216h.218v.871h-.136l-.252-.311h-.021a.918.918,0,0,1-.2.176.786.786,0,0,1-.442.135h-1.756a.649.649,0,0,1-.354-.095h-.034a.926.926,0,0,1-.47.095h-1.661v-.871h1.137a1.123,1.123,0,0,1-.109-.284,1.249,1.249,0,0,1-.041-.331,1.063,1.063,0,0,1,.225-.669,1.083,1.083,0,0,1,.442-.338Zm2.4,1.662a1.064,1.064,0,0,0-1.191-1.216q-.17,0-.388.02a1.207,1.207,0,0,1,.592.4,1.025,1.025,0,0,1,.245.682,1.217,1.217,0,0,1-.048.345,1.851,1.851,0,0,1-.1.27h.8a.111.111,0,0,0,.068-.02.1.1,0,0,0,.027-.074Zm-1.912.378q.32-.061.32-.459a.53.53,0,0,0-.1-.324.286.286,0,0,0-.231-.122.271.271,0,0,0-.228.132.559.559,0,0,0-.092.328A.4.4,0,0,0-1273.513-54.664Zm4.39.122v.871h-1.259v-.871Zm1.831-3.965v4a.828.828,0,0,1-.191.534.828.828,0,0,1-.66.3h-1.422v-.871h1.123a.111.111,0,0,0,.068-.02.09.09,0,0,0,.034-.074v-3.871Zm1.987,0v4.58l-.531.426h-.517v-5.006Zm4.73,1.547a.51.51,0,0,1,.378.155.511.511,0,0,1,.153.372.508.508,0,0,1-.153.375.515.515,0,0,1-.378.152.518.518,0,0,1-.374-.152.5.5,0,0,1-.157-.375.505.505,0,0,1,.157-.372A.513.513,0,0,1-1260.575-56.96Zm1.218,0a.51.51,0,0,1,.378.155.511.511,0,0,1,.153.372.508.508,0,0,1-.153.375.515.515,0,0,1-.378.152.518.518,0,0,1-.374-.152.5.5,0,0,1-.156-.375.505.505,0,0,1,.156-.372A.513.513,0,0,1-1259.357-56.96Zm2.334.182v2.27a.787.787,0,0,1-.2.54.8.8,0,0,1-.64.3h-3.743a1.26,1.26,0,0,1-.837-.3,1.259,1.259,0,0,1-.463-1.007v-.885l.531-.426h.517v1.311a.424.424,0,0,0,.143.331.419.419,0,0,0,.272.108h3.274q.1,0,.1-.095v-2.141Zm1.987-1.729v4.58l-.531.426h-.517v-5.006Zm2.477,1.729v2.851a1.705,1.705,0,0,1-.6,1.405,1.988,1.988,0,0,1-.823.405,2.406,2.406,0,0,1-.531.054l-.177-.014-.429-.534v-.358a.452.452,0,0,0,.075.014,1.693,1.693,0,0,0,.313.034,1.208,1.208,0,0,0,.837-.277,1.154,1.154,0,0,0,.279-.851v-2.729Zm1.987-1.729v3.871a.178.178,0,0,0,.007.041l.007.007a.08.08,0,0,0,.082.047h.252v.871h-.551a.829.829,0,0,1-.585-.236.806.806,0,0,1-.259-.6v-4Zm5.159-.709a.469.469,0,0,1,.344.138.462.462,0,0,1,.14.341.454.454,0,0,1-.14.334.469.469,0,0,1-.344.138.461.461,0,0,1-.337-.138.454.454,0,0,1-.14-.334.462.462,0,0,1,.14-.341A.461.461,0,0,1-1245.412-59.217Zm-.6.953a.507.507,0,0,1,.371.152.508.508,0,0,1,.153.375.508.508,0,0,1-.153.375.507.507,0,0,1-.371.152.521.521,0,0,1-.381-.155.505.505,0,0,1-.156-.372.505.505,0,0,1,.156-.372A.521.521,0,0,1-1246.011-58.264Zm1.2,0a.509.509,0,0,1,.378.155.511.511,0,0,1,.153.372.511.511,0,0,1-.153.372.509.509,0,0,1-.378.155.513.513,0,0,1-.374-.155.505.505,0,0,1-.156-.372.5.5,0,0,1,.156-.375A.519.519,0,0,1-1244.806-58.264Zm2.409,1.486V-54.8q0,.068.007.223v.034h.34v.871h-.259l-.252-.317h-.02a.8.8,0,0,1-.66.317h-1.565l-.252-.317h-.02a.8.8,0,0,1-.66.317h-1.565l-.252-.317h-.02a.8.8,0,0,1-.66.317h-2.042v-.871h1.742a.084.084,0,0,0,.1-.095V-56h1.048v1.209q0,.068.007.2v.047h1.348a.084.084,0,0,0,.1-.095v-1.756h1.048v1.567q0,.115.007.284h1.348a.084.084,0,0,0,.1-.095v-2.141Zm.919-1.486a.513.513,0,0,1,.374.155.505.505,0,0,1,.156.372.505.505,0,0,1-.156.372.513.513,0,0,1-.374.155.509.509,0,0,1-.378-.155.511.511,0,0,1-.153-.372.508.508,0,0,1,.153-.375A.515.515,0,0,1-1241.478-58.264Zm1.218,0a.513.513,0,0,1,.374.155.505.505,0,0,1,.156.372.505.505,0,0,1-.156.372.513.513,0,0,1-.374.155.509.509,0,0,1-.378-.155.511.511,0,0,1-.153-.372.508.508,0,0,1,.153-.375A.515.515,0,0,1-1240.26-58.264Zm.429,1.486V-54.6a.313.313,0,0,0,.007.061h.333v.871h-.211l-.3-.311h-.014a.828.828,0,0,1-.667.311h-1.422v-.871h1.089a.118.118,0,0,0,.1-.041.116.116,0,0,0,.041-.095v-2.1Zm1.552,2.236v.871h-1.259v-.871Zm7.643-2.236v2.27a.8.8,0,0,1-.248.591.815.815,0,0,1-.6.247h-1.531l-.286-.317h-.021a.8.8,0,0,1-.66.317h-1.531l-.286-.317h-.02a.8.8,0,0,1-.66.317h-2.042v-.871h1.742a.084.084,0,0,0,.1-.095V-56h1.048v1.061q0,.1.007.318v.081h1.348a.084.084,0,0,0,.1-.095v-1.756h1.048v1.567q0,.115.007.284h1.347a.084.084,0,0,0,.1-.095v-2.141Zm4.5-1.729v3.776q0,.061.007.189h.34v.871h-.259l-.252-.317h-.02a.749.749,0,0,1-.32.243.784.784,0,0,1-.327.074h-2.525l-.429-.527v-.345h1.5l-1.075-3.134h.96l1.075,3.134h.184a.1.1,0,0,0,.075-.027.158.158,0,0,0,.02-.068v-3.871Zm-1.926,6.438a.868.868,0,0,1-.088-.351.683.683,0,0,1,.177-.486.6.6,0,0,1,.456-.189,1.619,1.619,0,0,1,.422.061v.426a.984.984,0,0,0-.252-.047q-.259,0-.259.29a.306.306,0,0,0,.054.2.22.22,0,0,0,.2.1h.476v.2l-.184.23h-1.252v-.432Zm3.478-2.472v.871h-1.259v-.871Zm2.035-3.965v4a.828.828,0,0,1-.191.534.828.828,0,0,1-.66.3h-1.422v-.871h1.123a.111.111,0,0,0,.068-.02.09.09,0,0,0,.034-.074v-3.871Zm3.444,3.661v.79a1.109,1.109,0,0,0,.292.875,1.537,1.537,0,0,0,1,.253,1.821,1.821,0,0,0,.888-.166.828.828,0,0,0,.371-.578h-.34l-.449-.554v-.318h2.191v.871h-.333a1.628,1.628,0,0,1-.769,1.29,2.346,2.346,0,0,1-1.259.324h-.6a2.223,2.223,0,0,1-1.4-.419,1.725,1.725,0,0,1-.647-1.452v-.5l.531-.419Zm.646,3.182a.512.512,0,0,1,.374.155.513.513,0,0,1,.156.378.494.494,0,0,1-.156.368.518.518,0,0,1-.374.152.515.515,0,0,1-.378-.152.5.5,0,0,1-.153-.368.518.518,0,0,1,.153-.378A.509.509,0,0,1-1218.461-51.664Zm1.218,0a.512.512,0,0,1,.374.155.512.512,0,0,1,.156.378.494.494,0,0,1-.156.368.518.518,0,0,1-.374.152.515.515,0,0,1-.378-.152.5.5,0,0,1-.153-.368.519.519,0,0,1,.153-.378A.51.51,0,0,1-1217.243-51.664Zm3.668-5.114V-54.6a.32.32,0,0,0,.007.061h.333v.871h-.211l-.3-.311h-.014a.828.828,0,0,1-.667.311h-1.422v-.871h1.089a.118.118,0,0,0,.1-.041.116.116,0,0,0,.041-.095v-2.1Zm-.531,3.418a.512.512,0,0,1,.374.155.513.513,0,0,1,.157.378.5.5,0,0,1-.157.372.512.512,0,0,1-.374.155.509.509,0,0,1-.378-.155.511.511,0,0,1-.153-.372.519.519,0,0,1,.153-.378A.509.509,0,0,1-1214.105-53.36Zm1.77-2.155a1.837,1.837,0,0,1,.885-1.081,2.106,2.106,0,0,1,1.041-.25,1.785,1.785,0,0,1,1.007.3,1.914,1.914,0,0,1,.783,1.034l-.082.209a2.379,2.379,0,0,0-.415.331,2.432,2.432,0,0,0-.361.432h.926v.871h-1.6a.429.429,0,0,1-.313-.162h-.027a.447.447,0,0,1-.333.162h-2.457v-.871h1.8a1.925,1.925,0,0,0-.354-.419,1.994,1.994,0,0,0-.422-.345Zm2.634-.041a.639.639,0,0,0-.381-.351,1,1,0,0,0-.374-.068,1.152,1.152,0,0,0-.476.095.577.577,0,0,0-.32.324,1.938,1.938,0,0,1,.388.372,2.059,2.059,0,0,1,.368.527h.041a1.948,1.948,0,0,1,.4-.561A1.886,1.886,0,0,1-1209.7-55.555Zm2.362,1.013v.871h-1.259v-.871Zm2.947-4.067v.98l-1.171.73a2.916,2.916,0,0,1,1.171,1.027,2.281,2.281,0,0,1,.415,1.284.938.938,0,0,1-.238.659.793.793,0,0,1-.613.26h-2.954v-.871h2.647q.1,0,.1-.1a1.346,1.346,0,0,0-.51-.993,2.272,2.272,0,0,0-1.341-.588.061.061,0,0,1-.061-.068v-.844Zm3.206,1.79a2.306,2.306,0,0,1,.49-.041,1.8,1.8,0,0,1,1.348.52,1.621,1.621,0,0,1,.456,1.182v.331c0,.126,0,.221.007.284h.17v.871h-.088l-.252-.311h-.02q-.061.068-.109.115a.876.876,0,0,1-.538.2h-2.151v-.871h1.837a.084.084,0,0,0,.1-.095v-.439a.93.93,0,0,0-.255-.676.883.883,0,0,0-.664-.263,1.518,1.518,0,0,0-.327.027Zm3.519,2.277a3.8,3.8,0,0,1-.061-.736,1.518,1.518,0,0,1,.517-1.223,1.553,1.553,0,0,1,1.028-.351,1.616,1.616,0,0,1,1.069.324,1.165,1.165,0,0,1,.422.932v.959a.092.092,0,0,0,.027.068.127.127,0,0,0,.082.027h.109v.871h-.415a.851.851,0,0,1-.558-.2,1.065,1.065,0,0,1-.885.405,1.246,1.246,0,0,1-.946-.426h-.027l-.177.223h-1.286v-.871Zm1.926-1.047a.418.418,0,0,0-.1-.277.411.411,0,0,0-.313-.122.459.459,0,0,0-.395.2.931.931,0,0,0-.143.551q0,.9.49.9a.689.689,0,0,0,.463-.2Zm2.477,1.047v.871h-1.259v-.871Zm.463-2.121a4.353,4.353,0,0,1,1.177-.2,2,2,0,0,1,1.382.507,1.506,1.506,0,0,1,.517,1.155v.689a.8.8,0,0,1-.245.588.829.829,0,0,1-.606.25h-3.131v-.871h2.831a.084.084,0,0,0,.1-.095v-.446a.785.785,0,0,0-.388-.7,1.284,1.284,0,0,0-.708-.2,3.837,3.837,0,0,0-.926.142Zm4.022-2.79a.859.859,0,0,1-.088-.345.685.685,0,0,1,.18-.493.624.624,0,0,1,.473-.189,1.318,1.318,0,0,1,.4.068v.426a.983.983,0,0,0-.252-.047q-.259,0-.259.29a.359.359,0,0,0,.048.2.253.253,0,0,0,.211.095h.477v.209l-.184.223h-1.252v-.432Zm.946.946v4.58l-.531.426h-.517v-5.006Zm7.371.243a.507.507,0,0,1,.371.152.508.508,0,0,1,.153.375.508.508,0,0,1-.153.375.507.507,0,0,1-.371.152.521.521,0,0,1-.381-.155.506.506,0,0,1-.156-.372.506.506,0,0,1,.156-.372A.521.521,0,0,1-1180.464-58.264Zm-1.347,3.722a1.878,1.878,0,0,1-.2-.831,1.414,1.414,0,0,1,.456-1.081,1.552,1.552,0,0,1,1.089-.405,1.507,1.507,0,0,1,1.116.446,1.407,1.407,0,0,1,.422,1.04,1.8,1.8,0,0,1-.2.831h.286v.871h-.98a1.3,1.3,0,0,1-.633-.122h-.041a1.317,1.317,0,0,1-.64.122h-2.756a1.262,1.262,0,0,1-.939-.4,1.273,1.273,0,0,1-.361-.912v-.885l.531-.426h.517v1.311a.437.437,0,0,0,.1.29.388.388,0,0,0,.313.149Zm1.341-.014a.638.638,0,0,0,.5-.723.982.982,0,0,0-.109-.473.462.462,0,0,0-.395-.236.431.431,0,0,0-.361.2.841.841,0,0,0-.15.513Q-1180.981-54.657-1180.471-54.556Zm2.838.014v.871h-1.259v-.871Zm7.031-2.236v2.27a.8.8,0,0,1-.249.591.815.815,0,0,1-.6.247h-1.531l-.286-.317h-.021a.8.8,0,0,1-.66.317h-1.531l-.286-.317h-.02a.8.8,0,0,1-.66.317h-2.042v-.871h1.742a.084.084,0,0,0,.1-.095V-56h1.048v1.061q0,.1.007.318v.081h1.348a.084.084,0,0,0,.1-.095v-1.756h1.048v1.567q0,.115.007.284h1.347a.084.084,0,0,0,.1-.095v-2.141Zm2.4,3.107a1.47,1.47,0,0,1-1.164-.507,1.51,1.51,0,0,1-.381-1.034,1.615,1.615,0,0,1,.4-1.175,1.616,1.616,0,0,1,1.2-.473,1.579,1.579,0,0,1,.885.236,1.156,1.156,0,0,1,.544,1.027v1.054h.218v.871h-.224a1.661,1.661,0,0,1-.6,1.162,1.89,1.89,0,0,1-.776.378,2.622,2.622,0,0,1-.66.081,2.546,2.546,0,0,1-.313-.02l-.456-.554v-.365a2.842,2.842,0,0,0,.6.068q.953,0,1.13-.75Zm.436-1.919a.379.379,0,0,0-.156-.324.384.384,0,0,0-.231-.074.492.492,0,0,0-.4.193.794.794,0,0,0-.153.51.656.656,0,0,0,.742.743h.2Zm2.478,1.047v.871h-1.259v-.871Zm1.422-2.236v2.27a.811.811,0,0,1-.2.534.821.821,0,0,1-.653.3h-1.422v-.871h1.123a.111.111,0,0,0,.068-.02.09.09,0,0,0,.034-.074v-2.141Zm-1.722,3.418a.512.512,0,0,1,.374.155.512.512,0,0,1,.156.378.5.5,0,0,1-.156.372.512.512,0,0,1-.374.155.509.509,0,0,1-.378-.155.511.511,0,0,1-.153-.372.519.519,0,0,1,.153-.378A.509.509,0,0,1-1165.593-53.36Zm1.218,0a.512.512,0,0,1,.374.155.512.512,0,0,1,.156.378.5.5,0,0,1-.156.372.512.512,0,0,1-.374.155.509.509,0,0,1-.378-.155.511.511,0,0,1-.153-.372.519.519,0,0,1,.153-.378A.509.509,0,0,1-1164.375-53.36Zm3.961-1.486v.79a1.109,1.109,0,0,0,.293.875,1.537,1.537,0,0,0,1,.253,1.822,1.822,0,0,0,.888-.166.828.828,0,0,0,.371-.578h-.34l-.449-.554v-.318h2.191v.871h-.333a1.629,1.629,0,0,1-.769,1.29,2.346,2.346,0,0,1-1.259.324h-.6a2.223,2.223,0,0,1-1.4-.419,1.725,1.725,0,0,1-.646-1.452v-.5l.531-.419Zm.646,3.182a.512.512,0,0,1,.374.155.513.513,0,0,1,.157.378.494.494,0,0,1-.157.368.518.518,0,0,1-.374.152.515.515,0,0,1-.378-.152.5.5,0,0,1-.153-.368.519.519,0,0,1,.153-.378A.509.509,0,0,1-1159.768-51.664Zm1.218,0a.512.512,0,0,1,.374.155.513.513,0,0,1,.157.378.494.494,0,0,1-.157.368.518.518,0,0,1-.374.152.515.515,0,0,1-.378-.152.5.5,0,0,1-.153-.368.519.519,0,0,1,.153-.378A.509.509,0,0,1-1158.549-51.664Zm3.668-6.843v3.9a.3.3,0,0,0,.007.061h.333v.871h-.218l-.292-.311h-.014a.828.828,0,0,1-.667.311h-1.422v-.871h1.123a.083.083,0,0,0,.061-.02.085.085,0,0,0,.041-.074v-3.871Zm1.552,3.965v.871h-1.259v-.871Zm.613,0a2.183,2.183,0,0,1-.123-.284,1.879,1.879,0,0,1-.089-.547,1.352,1.352,0,0,1,.565-1.148,1.789,1.789,0,0,1,1.1-.338h.054a2.767,2.767,0,0,1,.79.115v.824a3.367,3.367,0,0,0-.66-.074q-.8,0-.8.709a.87.87,0,0,0,.143.513.711.711,0,0,0,.6.23h1.273v.345l-.422.527h-3.689v-.871Z" transform="translate(3645.978 285.52)" fill="#fff"/></g></svg>