<svg xmlns="http://www.w3.org/2000/svg" width="338.479" height="50" viewBox="0 0 338.479 50"><g transform="translate(-2531.376 5671.051)"><g transform="translate(0 -308.051)"><path d="M163.81,31.13H153.62a5.391,5.391,0,0,1-5.78-5.58c0-1.45-.48-3.31.24-4.24s2.63-.18,4-.26h1.09c1.43-.21,2.32.11,2,1.83-.19.87.29,1,1.06,1h15.36c.83,0,1-.25,1-1.06.08-3.6.1-3.6-3.54-3.6h-16.3c-3.08,0-4.89-1.73-4.94-4.8s-.06-5.85,0-8.77A5.41,5.41,0,0,1,153.62,0h20.53a5.41,5.41,0,0,1,5.71,5.67c0,1.4.47,3.24-.23,4.08s-2.64.19-4,.28h-1.09c-1.32.17-2.26,0-1.92-1.71.16-.8-.32-.95-1-.95H156.26c-.78,0-1.07.2-1.09,1.05C155,12,155,12,158.44,12h16.61a4.47,4.47,0,0,1,4.81,4.76c0,3,0,5.95,0,8.93a5.33,5.33,0,0,1-5.39,5.48C170.91,31.17,167.36,31.13,163.81,31.13Z" transform="translate(2535.535 -5362.959)" fill="#004a66"/><path d="M291.09,0h11.45a5.4,5.4,0,0,1,5.65,5.56c0,2.72.05,5.43,0,8.15a5.27,5.27,0,0,1-5.57,5.46H286.78c-1.13,0-1.54.22-1.5,1.45.09,3.08,0,6.16.05,9.24,0,1.05-.3,1.33-1.31,1.28-1.61-.08-3.24-.07-4.85,0-.83,0-1.18-.11-1.18-1.07q.06-14.5,0-29c0-1,.38-1.07,1.18-1.06C283.15.05,287.12,0,291.09,0Zm2.09,12h4.54c3.23,0,3.19,0,3.22-3.24,0-1-.24-1.32-1.28-1.3-3.66.06-7.31,0-11,0s-3.57,0-3.41,3.59c0,.78.29,1,1,.94C288.59,11.93,290.88,12,293.18,12Z" transform="translate(2538.138 -5362.959)" fill="#004a66"/><path d="M222.24,0h7.3c.89,0,1,.63,1.22,1.15q4.86,9.71,9.69,19.42c.28.56.58,1.1,1,1.86l6.49-13.57c1.26-2.63,2.54-5.24,3.75-7.89a1.38,1.38,0,0,1,1.5-1c2.24.06,4.49,0,6.73,0,.25.43-.07.72-.2,1-4.46,9.61-9,19.21-13.39,28.84a1.87,1.87,0,0,1-2.12,1.29,16,16,0,0,0-3.59,0c-2.57.39-3.87-.58-5-3-4.07-8.93-8.44-17.73-12.7-26.58C222.7,1.11,222.51.64,222.24,0Z" transform="translate(2536.885 -5362.959)" fill="#004a66"/><path d="M142.52,31.13h-7.25c-.87,0-1-.55-1.27-1.09q-4.92-9.94-9.85-19.87A2.4,2.4,0,0,0,123.3,9c-1.54,3.21-3.08,6.37-4.6,9.54-1.86,3.84-3.73,7.67-5.53,11.53a1.57,1.57,0,0,1-1.71,1.14c-2.19-.08-4.39,0-6.58,0-.21-.62.21-1,.41-1.46,4.44-9.51,8.92-19,13.34-28.52A1.65,1.65,0,0,1,120.48,0c1.93.08,3.87.08,5.8,0a1.78,1.78,0,0,1,2,1.21c4.46,9.44,9,18.85,13.5,28.27C142,30,142.19,30.42,142.52,31.13Z" transform="translate(2534.833 -5362.959)" fill="#004a66"/><path d="M185.12,0c2.87,0,5.47.05,8.08,0a1.735,1.735,0,0,1,1.56,1L201,10c2.1-3,4.15-5.82,6.1-8.74A2.41,2.41,0,0,1,209.51,0c2.4.09,4.79,0,7.41,0-.53.8-1,1.48-1.41,2.14-3.3,4.75-6.57,9.51-9.91,14.22a4.75,4.75,0,0,0-.92,3c0,3.39,0,6.79,0,10.18,0,1.15-.19,1.68-1.49,1.56a29.11,29.11,0,0,0-4.38,0c-1.12.07-1.51-.18-1.48-1.42.1-3.49,0-7,.06-10.49a4.43,4.43,0,0,0-.84-2.73C192.78,11.13,189,5.69,185.12,0Z" transform="translate(2536.172 -5362.959)" fill="#004a66"/><path d="M324.15,10.39c-1.82,1.67-3.41,3.07-4.93,4.54-.57.55-.9.65-1.47,0-1.19-1.38-2.46-2.7-3.73-4-.47-.48-.45-.75.06-1.22q5-4.51,9.9-9.12A2,2,0,0,1,325.51,0c1.57,0,3.14.08,4.7,0,1.1-.07,1.39.27,1.38,1.37V20.79c0,3-.07,5.95,0,8.92,0,1.22-.36,1.51-1.5,1.44a40.941,40.941,0,0,0-4.7,0c-1,.05-1.29-.26-1.28-1.29.05-6.05,0-12.11,0-18.16Z" transform="translate(2538.138 -5362.959)" fill="#004a66"/><path d="M83.75,0H98.16c1,0,1.27.21,1.22,1.2a43.588,43.588,0,0,0,0,4.85c.06,1.09-.25,1.41-1.37,1.4-5.33-.06-10.66,0-16,0H69.48c-1,0-1.34-.29-1.29-1.32a49.251,49.251,0,0,0,0-5c0-.89.24-1.13,1.13-1.12C74.13.05,78.94,0,83.75,0Z" transform="translate(2534.167 -5362.959)" fill="#004a66"/><path d="M272.74,15.67V29.76c0,1-.17,1.48-1.33,1.4a49.051,49.051,0,0,0-5,0c-.72,0-1-.16-1-.94V.94c0-.81.32-.92,1-.91,1.62,0,3.24.09,4.85,0,1.12-.07,1.5.18,1.48,1.41C272.69,6.17,272.74,10.92,272.74,15.67Z" transform="translate(2538.138 -5362.959)" fill="#004a66"/><path d="M83.82,12H98.07c1,0,1.37.17,1.3,1.25-.1,1.67-.06,3.34,0,5,0,.83-.25,1-1.06,1H69.19c-.93,0-1-.4-1-1.11,0-1.67.07-3.35,0-5,0-1,.26-1.2,1.21-1.19C74.21,12,79,12,83.82,12Z" transform="translate(2534.167 -5362.741)" fill="#004a66"/><path d="M83.92,23.86H98.16c1,0,1.26.23,1.21,1.2q-.12,2.51,0,5c0,.93-.31,1.1-1.15,1.1h-29c-.82,0-1.07-.22-1-1,.06-1.72.07-3.44,0-5.16,0-.93.31-1.1,1.15-1.09Q76.63,23.865,83.92,23.86Z" transform="translate(2534.167 -5362.525)" fill="#004a66"/><path d="M166.1,35.78h4.23a2.17,2.17,0,0,1,2.32,2.35v8.44a2.19,2.19,0,0,1-2.34,2.36q-4.22.06-8.45,0a2.23,2.23,0,0,1-2.36-2.37c-.05-2.82-.05-5.63,0-8.45a2.23,2.23,0,0,1,2.38-2.33C163.29,35.75,164.69,35.78,166.1,35.78Zm1.25,3.11h-4c-.4,0-.72,0-.71.56v4.18Zm-2.28,6.92h3.63c.4,0,.87.11.85-.56V41.4Z" transform="translate(2535.573 -5362.197)" fill="#004a66"/><path d="M324.69,35.78h4.23a2.78,2.78,0,0,1,2.59,3.83.69.69,0,0,1-.88.42c-.72-.14-1.81.51-2.08-.38s-.65-.76-1.21-.76h-5.16c-.64,0-1.19-.09-1.17.92s.37,1,1.12,1h7.05c1.62,0,2.29.63,2.34,2.24,0,1.2.06,2.4,0,3.6a2.24,2.24,0,0,1-2.42,2.3q-4.3.06-8.61,0a2.92,2.92,0,0,1-2.6-3.95c.21-.59.69-.5,1-.4.7.2,1.79-.7,2.09.53.17.67.5.66,1,.66h5.63c.72,0,.87-.26.87-.91s-.11-1-.92-1h-7.05c-1.84,0-2.58-.71-2.62-2.51v-3a2.43,2.43,0,0,1,2.73-2.67Z" transform="translate(2538.138 -5362.197)" fill="#004a66"/><path d="M223.66,35.78h4.39a2.85,2.85,0,0,1,2.48,3.84.68.68,0,0,1-.89.41c-.76-.16-1.84.55-2.21-.46-.27-.72-.63-.68-1.14-.68h-5.33c-.73,0-1,.18-1,1s.12,1,.93,1c2.4-.06,4.81,0,7.21,0a2,2,0,0,1,2.37,2.08,25.518,25.518,0,0,1,0,3.91,2.21,2.21,0,0,1-2.4,2.12H219.3c-1.87,0-3.32-2.54-2.32-4,.47-.7,1.35-.22,2.05-.29.34,0,1-.24.95.42s.4.79,1,.79h5.48c.8,0,.92-.29.94-1s-.33-.92-1-.92h-7.05c-1.68,0-2.38-.7-2.4-2.35V38.36a2.29,2.29,0,0,1,2.52-2.51C220.84,35.76,222.25,35.78,223.66,35.78Z" transform="translate(2536.505 -5362.197)" fill="#004a66"/><path d="M104.45,49H98.81c-.72,0-1-.17-1-.95q.06-5.64,0-11.28c0-.76.22-1,1-1,3.81,0,7.62.05,11.43,0,1.46,0,.87,1,.92,1.61s.31,1.59-1,1.54c-2.66-.08-5.32,0-8,0-.73,0-1.1.08-1.12,1s.49.94,1.16.94c2.66,0,5.33.06,8,0,1.55-.05.94,1,1,1.69s.31,1.55-1,1.51c-2.66-.1-5.33,0-8,0-.72,0-1.12,0-1.13,1s.53.92,1.17.92c2.61,0,5.23.08,7.83,0,1.58-.08,1.1.93,1.17,1.71s.08,1.59-1.23,1.5A31.567,31.567,0,0,0,104.45,49Z" transform="translate(2534.58 -5362.197)" fill="#004a66"/><path d="M239.17,49H234c-1,0-1.37-.14-1.35-1.25.07-3.6,0-7.2,0-10.8,0-.85.18-1.18,1.11-1.16,3.65.05,7.31.08,11,0,1.38,0,1.21.73,1.19,1.56s.27,1.68-1.16,1.62c-2.44-.11-4.9-.05-7.35,0-.67,0-1.59-.42-1.57,1s.88.88,1.49.89c2.5,0,5,.08,7.52,0,1.33-.06,1.1.77,1.05,1.5s.5,1.74-1,1.69c-2.66-.09-5.32,0-8,0-.66,0-1,0-1,.89s.31,1,1.08,1c2.61,0,5.22.07,7.83,0,1.42-.07,1.16.79,1.15,1.58s.36,1.71-1.11,1.62A40.592,40.592,0,0,0,239.17,49Z" transform="translate(2536.756 -5362.197)" fill="#004a66"/><path d="M74.84,35.78c1.83,0,3.67.1,5.48,0,1.37-.1,1.12.75,1.06,1.47s.54,1.74-1,1.69c-2.66-.09-5.33,0-8,0-.83,0-1,.23-1,1s.35.91,1,.9c2.62,0,5.23.07,7.84-.05,1.31-.06,1.3.61,1.21,1.5s.46,1.8-1.15,1.71c-2.5-.13-5,0-7.52,0-.68,0-1.44-.29-1.41,1s.73.88,1.34.89c2.56,0,5.12.08,7.68,0,1.35-.05,1.11.77,1,1.49S82,49,80.41,49c-3.71-.07-7.42,0-11.12,0-.75,0-1.1-.09-1.09-1,.06-3.76,0-7.52,0-11.28,0-.8.29-.94,1-.92C71.08,35.81,73,35.78,74.84,35.78Z" transform="translate(2534.102 -5362.197)" fill="#004a66"/><path d="M309.13,49h-5.64c-.72,0-1-.17-1-.95V36.76c0-.76.22-1,1-1,3.76,0,7.53.07,11.29,0,1.45,0,.91.94.93,1.58s.42,1.61-1,1.57c-2.66-.08-5.33,0-8,0-.69,0-1.13,0-1.13,1s.42,1,1.13,1h8c1.56-.05.94,1,1,1.69s.36,1.57-1,1.5c-2.35-.1-4.71-.1-7.05,0-.68,0-2.08-.91-2,.93s1.39.82,2.08.86a63.34,63.34,0,0,0,6.89,0c1.47-.08,1.11.84,1.11,1.59s.38,1.71-1.09,1.61A44.158,44.158,0,0,0,309.13,49Z" transform="translate(2538.138 -5362.197)" fill="#004a66"/><path d="M258.14,44l2.48,4.83c-2.82.83-4.19-.6-5-2.91-.6-1.8-1.83-2.25-3.6-2-.69.09-.87.3-.84.94a13.337,13.337,0,0,1,0,2.19c0,.63.4,1.56-.33,1.83a6.24,6.24,0,0,1-2.48,0c-.53,0-.36-.55-.37-.87V36.72c0-.73.18-1,1-1h9.56a2.13,2.13,0,0,1,2.29,1.9,14.15,14.15,0,0,1,0,4.21C260.65,43.32,259.64,43.85,258.14,44Zm-3.48-5.12h-2.33c-.77,0-1.11.06-1.12,1s.42,1,1.12.95h4.35c.7,0,1.13,0,1.12-.95s-.4-1-1.12-1-1.34.01-2.02.01Z" transform="translate(2536.999 -5362.197)" fill="#004a66"/><path d="M154.53,44.05l2.54,4.9c-1,0-1.89-.05-2.74,0a1.08,1.08,0,0,1-1.06-.71c-.61-1.15-1.25-2.28-1.83-3.45a1.37,1.37,0,0,0-1.42-.9c-2.45,0-2.45,0-2.45,2.43v.79c0,1.68-1.11,2.4-2.73,1.82-.53-.2-.37-.57-.37-.89V36.6c0-.73.29-.85.92-.85h9.56a2.23,2.23,0,0,1,2.35,2.36v2.51C157.29,43,156.86,43.57,154.53,44.05ZM151,38.89h-2.49c-.82,0-1,.18-1,1s.08,1,.92,1c1.5-.08,3,0,4.51,0,.75,0,1.24,0,1.22-1s-.5-.93-1.16-.91S151.68,38.89,151,38.89Z" transform="translate(2535.329 -5362.197)" fill="#004a66"/><path d="M178,40.34c0,2.79-.08,5.19,0,7.57.06,1.37-.79,1.07-1.5,1s-1.7.49-1.67-1c.09-3.71.06-7.41,0-11.12,0-.86.3-1,1.07-1a4,4,0,0,1,4,1.72c1.73,2.28,3.71,4.37,5.85,6.86,0-2.63.1-4.93,0-7.21-.09-1.37.55-1.38,1.54-1.35s1.77-.2,1.71,1.36c-.14,3.54-.08,7.1,0,10.65,0,1-.28,1.14-1.21,1.23a4,4,0,0,1-3.95-1.79C182.06,44.94,180.11,42.83,178,40.34Z" transform="translate(2535.83 -5362.197)" fill="#004a66"/><path d="M120.16,35.78h4.38a2.82,2.82,0,0,1,2.28,3.94c-.35.64-1,.32-1.55.28s-1.41.53-1.51-.5c-.07-.78-.53-.62-1-.62h-5.48c-.8,0-1,.29-.93,1,0,1.67.06,3.34,0,5,0,.78.24,1,1,.95h4.69c.67,0,1.54.51,1.84-.92.14-.67,1.69-.27,2.58-.23.71,0,.37.74.39,1.14.07,2.4-.71,3.17-3.13,3.17h-7.67c-1.91,0-2.72-.84-2.73-2.78V38.39c0-1.74.85-2.55,2.6-2.57Z" transform="translate(2534.832 -5362.197)" fill="#004a66"/><path d="M293.48,49h-4.24a2.26,2.26,0,0,1-2.47-2.41q-.07-4.23,0-8.46a2.18,2.18,0,0,1,2.4-2.29h8.62a2.78,2.78,0,0,1,2.47,3.92c-.22.48-.62.37-.92.32-.72-.12-1.76.49-2.08-.43-.24-.7-.54-.72-1.07-.72h-5.33c-.75,0-1,.19-1,1,.05,1.67.07,3.34,0,5-.05.92.37,1,1.1,1h4.38c.72,0,1.67.55,2-.95.13-.6,1.63-.26,2.48-.21s.43.81.44,1.25c.06,2.33-.69,3.07-3,3.07Z" transform="translate(2538.138 -5362.197)" fill="#004a66"/><path d="M203.3,49h-4.39a2.24,2.24,0,0,1-2.46-2.41v-8.3A2.25,2.25,0,0,1,199,35.78h8.47A2.82,2.82,0,0,1,210,39.7c-.22.49-.62.38-.92.33-.72-.12-1.76.49-2.09-.42-.24-.7-.53-.73-1.07-.73H200.6c-.74,0-1,.18-1,1,0,1.67.07,3.35,0,5,0,.92.36,1,1.1,1h4.38c.72,0,1.67.55,2-.95.13-.61,1.62-.26,2.48-.21s.43.81.44,1.25c.06,2.31-.71,3.07-3.05,3.07Z" transform="translate(2536.175 -5362.197)" fill="#004a66"/><path d="M279.18,35.86c-2,4.25-3.89,8.32-5.76,12.42a1,1,0,0,1-1.05.69c-2.81.19-2.81.21-4.06-2.38l-5.18-10.81h2.78c.72,0,.84.49,1.07.93l4.29,8.53c1.15-2.4,2.24-4.64,3.32-6.89C275.87,35.65,275.87,35.64,279.18,35.86Z" transform="translate(2537.283 -5362.197)" fill="#004a66"/><path d="M135.78,35.78c1.83,0,3.66.08,5.48,0,1.25-.07,1.07.72,1,1.39s.65,1.84-.92,1.75H141c-1.23.1-2.91-.56-3.57.27s-.19,2.39-.21,3.63a43.562,43.562,0,0,0,0,4.85c.18,1.62-.82,1.24-1.71,1.33-1.1.11-1.55-.13-1.49-1.4.12-2.55,0-5.11.05-7.67,0-.83-.23-1.08-1.05-1-1,.07-2.08,0-3.13,0-1.59,0-.68-1.2-.83-1.84s-.28-1.35.89-1.29C131.91,35.85,133.85,35.78,135.78,35.78Z" transform="translate(2535.083 -5362.197)" fill="#004a66"/><path d="M83.61,42.35V36.72c0-1.58,1.11-.82,1.75-.91s1.46-.35,1.42.93c-.09,2.66,0,5.32,0,8,0,.91.27,1.14,1.14,1.11,2.24,0,4.49.07,6.73,0,1.47-.07,1.09.86,1.11,1.62S96,49,94.55,49c-3.28-.11-6.57-.07-9.86,0-.91,0-1.13-.28-1.1-1.14C83.65,46,83.61,44.18,83.61,42.35Z" transform="translate(2534.345 -5362.197)" fill="#004a66"/><path d="M194.25,42.5c0,1.82-.07,3.65,0,5.47.07,1.43-.93,1-1.58,1s-1.62.56-1.6-.9c.06-3.76.07-7.51,0-11.27,0-1.27.76-1.06,1.41-1s1.81-.68,1.77.91C194.21,38.63,194.25,40.57,194.25,42.5Z" transform="translate(2535.989 -5362.197)" fill="#004a66"/><path d="M284.58,42.37v5.64c0,1.57-1.11.82-1.76.91s-1.44.35-1.41-.93c.08-3.76.07-7.52,0-11.28,0-1.45,1-.9,1.6-.91s1.64-.5,1.57.94C284.52,38.61,284.58,40.5,284.58,42.37Z" transform="translate(2538.138 -5362.197)" fill="#004a66"/></g><g transform="translate(-71 -67.955)"><path d="M57.083.78,47.666,8.969c-1.7,1.487-3.428,2.943-5.163,4.451-.527.485-.9.6-1.5.072-4.7-4.13-9.428-8.158-14.146-12.247a1.9,1.9,0,0,1-.3-.465Z" transform="translate(2603.243 -5603.802)" fill="#48a8c1"/><path d="M49.189,18.754c-2.2-.361-2.2-.361-2.2,1.776V22.8c0,.754-.176,1.095-.981,1.033s-1.157-.165-1.033-.981-.207-1.084-1.033-1.033-1.033.413-1.033,1.115c.062,1.157-.785.878-1.446.94-.826.072-1.033-.361-1.033-1.033V20.778c0-.661-.237-1.033-1.033-1.095s-1.033.351-1.033,1.033v1.941c0,.651.083,1.291-.94,1.27-.816,0-1.384-.1-1.291-1.126.072-.7-.33-.919-1.033-.929s-1.033.237-.96.94-.3,1.126-1.126,1.1H26.09c1.972-1.724,3.552-3.211,5.142-4.729,1.921-1.8,3.9-3.552,5.783-5.39a1.126,1.126,0,0,1,1.776-.062c1.033.8,1.735,2.292,3.1,2.158,1.156-.114,1.952-1.4,2.871-2.23.423-.372.8-.682,1.373-.145,3.573,3.325,7.228,6.629,10.708,10.14-2.561,0-5.07.537-7.569-.134.609-1.384.207-2.829.258-4.234s-.062-1.332-1.559-1.033C48.322,18.538,48.952,18.156,49.189,18.754Z" transform="translate(2603.228 -5603.128)" fill="#48a8c1"/><path d="M58.114,2.15V22.864l-8.261-7.538c-.919-.836-1.828-1.683-2.767-2.478-.537-.454-.754-.774-.083-1.353,3.5-3.015,6.97-6.072,10.46-9.118A2.592,2.592,0,0,1,58.114,2.15Z" transform="translate(2603.896 -5603.758)" fill="#48a8c1"/><path d="M24.75,2c3.872,3.356,7.548,6.557,11.245,9.727.578.506.114.682-.176.94-3.624,3.356-7.228,6.7-11.069,10.2Z" transform="translate(2603.184 -5603.763)" fill="#48a8c1"/><path d="M11.668.731H21.994c1.095,0,1.508.248,1.508,1.425,0,2.995,0,2.995-2.974,2.995q-7.822-.015-15.675-.01C2.4,5.14.826,4.107.176,2.145-.145,1.2-.145.679,1.157.71c3.5.083,7.011,0,10.512,0Z" transform="translate(2602.377 -5603.805)" fill="#48a8c1"/><path d="M26.582,42.611c-1.817,1.838-3.635,3.676-5.473,5.5-.774.774-4.316,1.3-5.225.805-.682-.372-.32-1.033-.444-1.6s.3-.589.62-.506c3.1.785,4.719-1.322,6.278-3.242,2.065-2.561,4.492-3.831,7.8-3.222a3.2,3.2,0,0,0,3.1-1.229c1.518-1.673,3.17-3.211,4.791-4.791a2.489,2.489,0,0,0,.826-1.993c-.062-1.941,0-3.883,0-5.824,0-.9.372-1.033,1.156-1.033s1.084.186,1.033,1.033v7.28a2.065,2.065,0,0,1-.589,1.456q-3.531,3.552-7.073,7.063a2.2,2.2,0,0,1-.723.32A12.391,12.391,0,0,0,26.582,42.611Z" transform="translate(2602.88 -5602.209)" fill="#48a8c1"/><path d="M22.953,11.123c-4.337,0-8.684.093-13.021,0A3.253,3.253,0,0,1,6.721,8.9c-.155-1.322.4-1.724,1.735-1.683,3.542.093,7.094,0,10.636,0C22.963,7.251,22.963,7.251,22.953,11.123Z" transform="translate(2602.596 -5603.593)" fill="#48a8c1"/><path d="M44.635,34.354c0,2.158-.093,4.316,0,6.464a5.277,5.277,0,0,1-1.5,3.79c-1.673,2.137-3.779,2.313-6.2,2.189-.95,0-1.033-.516-1.033-1.239s.31-.971,1.033-1.033c1.229-.083,2.509.4,3.666-.671a4.833,4.833,0,0,0,1.766-4.048c-.134-4.358,0-8.726-.072-13.093,0-.909.145-1.353,1.208-1.353s1.033.578,1.033,1.332C44.625,29.294,44.635,31.824,44.635,34.354Z" transform="translate(2603.548 -5602.213)" fill="#48a8c1"/><path d="M34.548,25.772c1.931-.692,1.972-.516,2.22,1.353.485,3.676-.712,6.381-3.531,8.86-1.859,1.642-3.552,2.654-6.082,2.427a59.144,59.144,0,0,0-6.629,0c-.857,0-1.136-.289-1.136-1.126s.268-1.157,1.126-1.146h7.765a3.1,3.1,0,0,0,2.571-1.033c1.2-1.3,2.437-2.561,3.666-3.852a2.406,2.406,0,0,0,.114.289h.114C34.786,29.623,35.137,27.682,34.548,25.772Z" transform="translate(2603.009 -5602.453)" fill="#48a8c1"/><path d="M22.766,17.33c-2.148,0-4.285.114-6.423.052A4,4,0,0,1,12.43,13.52h6.6C22.777,13.51,22.777,13.51,22.766,17.33Z" transform="translate(2602.782 -5603.152)" fill="#48a8c1"/><path d="M48.211,43.572c-1.425.341-1.972-.062-1.941-1.673.114-4.843.1-9.7,0-14.539,0-1.58.392-2.189,1.972-1.776Z" transform="translate(2603.885 -5602.21)" fill="#48a8c1"/><path d="M22.877,21.575c-.145.578.423,1.611-.3,1.941s-1.724-.3-2.437-.878a5.545,5.545,0,0,1-.981-1.033,2.323,2.323,0,0,1-.558-2.065c.258-.64,1.146-.165,1.745-.279a1.631,1.631,0,0,1,.32,0C23.3,19.21,22.877,19.1,22.877,21.575Z" transform="translate(2602.982 -5602.865)" fill="#48a8c1"/><path d="M22.971,11.134c0-3.852,0-3.852-3.862-3.852-3.542,0-7.094.062-10.636,0-1.332,0-1.89.361-1.735,1.683C5.819,7.076,5.881,6.9,7.771,6.9c4.626,0,9.293.052,13.888,0,1.291,0,1.8.372,1.58,1.632C23.136,9.368,23.621,10.308,22.971,11.134Z" transform="translate(2602.578 -5603.604)" fill="#6898aa"/><path d="M12.337,46.141c.836-.134,1.342,0,1.311,1.033,0,.8-.217,1.208-1.095,1.136-.692-.052-1.4.114-1.373-1.033C11.211,46.482,11.356,46,12.337,46.141Z" transform="translate(2602.742 -5601.538)" fill="#48a8c1"/><path d="M48.15,43.568V25.58c.465.207.32.63.32.981V42.608C48.5,42.917,48.625,43.341,48.15,43.568Z" transform="translate(2603.947 -5602.206)" fill="#6898aa"/><path d="M47.416,47.335c-1.033.207-1.136-.361-1.126-1.2s.145-1.187,1.033-1.167,1.28.207,1.249,1.167S48.407,47.51,47.416,47.335Z" transform="translate(2603.886 -5601.574)" fill="#48a8c1"/><path d="M34.122,45.126c.145.878-.268,1.1-1.095,1.1s-1.218-.165-1.167-1.033c0-.723.062-1.249,1.033-1.208S34.287,44.124,34.122,45.126Z" transform="translate(2603.416 -5601.606)" fill="#48a8c1"/><path d="M22.766,17.344c0-3.821,0-3.821-3.738-3.821h-6.6c.248-.651.816-.382,1.239-.382h8.023c1.167,0,1.559.423,1.394,1.487S23.437,16.5,22.766,17.344Z" transform="translate(2602.782 -5603.171)" fill="#6898aa"/><path d="M17.515,36.792c.124.909-.176,1.26-1.033,1.249s-1.033-.31-1.033-1.033,0-1.26.981-1.239S17.711,36.008,17.515,36.792Z" transform="translate(2602.881 -5602.062)" fill="#48a8c1"/><path d="M48.5,18.6c-.237-.589-.867-.217-1.249-.5,1.5-.258,1.611-.237,1.559,1.033s.351,2.85-.258,4.234C48.53,21.811,48.52,20.211,48.5,18.6Z" transform="translate(2603.917 -5602.919)" fill="#6898aa"/><path d="M34.071,25.76c.589,1.91.237,3.852.2,5.783h-.114a2.406,2.406,0,0,1-.114-.289Z" transform="translate(2603.487 -5602.522)" fill="#6898aa"/><path d="M26.23,42.083a12.391,12.391,0,0,1,6.1-.072Z" transform="translate(2603.232 -5601.682)" fill="#6898aa"/></g></g></svg>