<svg xmlns="http://www.w3.org/2000/svg" width="499.999" height="73.86" viewBox="0 0 499.999 73.86"><g transform="translate(-2531.375 5671.051)"><g transform="translate(2636.148 -5671.05)"><path d="M171.506,45.992H156.453a7.964,7.964,0,0,1-8.538-8.243c0-2.142-.709-4.89.355-6.263s3.885-.266,5.909-.384h1.61c2.112-.31,3.427.162,2.954,2.7-.281,1.285.428,1.477,1.566,1.477H183c1.226,0,1.477-.369,1.477-1.566.118-5.318.148-5.318-5.229-5.318H155.168c-4.55,0-7.223-2.556-7.3-7.091s-.089-8.642,0-12.955A7.992,7.992,0,0,1,156.453.007H186.78a7.992,7.992,0,0,1,8.435,8.376c0,2.068.694,4.786-.34,6.027s-3.9.281-5.909.414h-1.61c-1.95.251-3.338,0-2.836-2.526.236-1.182-.473-1.4-1.477-1.4h-22.69c-1.152,0-1.581.3-1.61,1.551-.251,5.288-.251,5.288,4.83,5.288h24.536a6.6,6.6,0,0,1,7.105,7.031c0,4.432,0,8.789,0,13.191a7.874,7.874,0,0,1-7.962,8.1C181.994,46.052,176.75,45.992,171.506,45.992Z" transform="translate(-28.154 0.053)" fill="#004a66"/><path d="M297.341,0h16.914A7.977,7.977,0,0,1,322.6,8.216c0,4.018.074,8.021,0,12.039a7.785,7.785,0,0,1-8.228,8.066h-23.4c-1.669,0-2.275.325-2.216,2.142.133,4.55,0,9.1.074,13.649,0,1.551-.443,1.965-1.935,1.891-2.378-.118-4.786-.1-7.164,0-1.226,0-1.743-.162-1.743-1.581q.089-21.419,0-42.839c0-1.477.561-1.581,1.743-1.566C285.612.077,291.477,0,297.341,0Zm3.087,17.726h6.707c4.771,0,4.712,0,4.757-4.786,0-1.477-.355-1.95-1.891-1.92-5.407.089-10.8,0-16.249,0s-5.274,0-5.037,5.3c0,1.152.428,1.477,1.477,1.389C293.648,17.626,297.031,17.729,300.429,17.729Z" transform="translate(37.874 0.057)" fill="#004a66"/><path d="M222.24.019h10.784c1.315,0,1.477.931,1.8,1.7Q242,16.062,249.14,30.405c.414.827.857,1.625,1.477,2.748L260.2,13.107c1.861-3.885,3.752-7.741,5.54-11.655a2.039,2.039,0,0,1,2.216-1.477c3.309.089,6.633,0,9.942,0,.369.635-.1,1.064-.3,1.477-6.588,14.2-13.295,28.377-19.78,42.6a2.762,2.762,0,0,1-3.132,1.906,23.635,23.635,0,0,0-5.3,0c-3.8.576-5.717-.857-7.386-4.432-6.012-13.191-12.468-26.191-18.76-39.264C222.92,1.659,222.639.965,222.24.019Z" transform="translate(9.419 0.041)" fill="#004a66"/><path d="M160.509,46H149.8c-1.285,0-1.477-.812-1.876-1.61q-7.268-14.683-14.55-29.352a3.545,3.545,0,0,0-1.256-1.728c-2.275,4.742-4.55,9.41-6.8,14.092-2.748,5.672-5.51,11.33-8.169,17.032a2.319,2.319,0,0,1-2.526,1.684c-3.235-.118-6.485,0-9.72,0-.31-.916.31-1.477.606-2.157,6.559-14.048,13.177-28.067,19.706-42.13A2.437,2.437,0,0,1,127.952.013c2.851.118,5.717.118,8.568,0A2.629,2.629,0,0,1,139.474,1.8c6.588,13.945,13.295,27.845,19.942,41.76C159.741,44.329,160.022,44.949,160.509,46Z" transform="translate(-49.644 0.047)" fill="#004a66"/><path d="M185.12.008c4.24,0,8.08.074,11.936,0a2.563,2.563,0,0,1,2.3,1.477l9.218,13.295c3.1-4.432,6.13-8.6,9.011-12.911a3.56,3.56,0,0,1,3.56-1.861c3.545.133,7.076,0,10.946,0-.783,1.182-1.477,2.186-2.083,3.161-4.875,7.017-9.705,14.048-14.639,21.006a7.017,7.017,0,0,0-1.359,4.432c0,5.008,0,10.03,0,15.038,0,1.7-.281,2.482-2.2,2.3a43,43,0,0,0-6.47,0c-1.654.1-2.231-.266-2.186-2.1.148-5.155,0-10.34.089-15.5A6.544,6.544,0,0,0,202,24.323C196.435,16.449,190.852,8.413,185.12.008Z" transform="translate(-9.348 0.052)" fill="#004a66"/><path d="M329.145,15.352c-2.689,2.467-5.037,4.535-7.283,6.706-.842.812-1.33.96-2.172,0-1.758-2.039-3.634-3.988-5.51-5.909-.694-.709-.665-1.108.089-1.8Q321.656,7.686,328.894.876A2.955,2.955,0,0,1,331.154,0c2.319,0,4.638.118,6.943,0,1.625-.1,2.053.4,2.039,2.024V30.715c0,4.432-.1,8.789,0,13.177,0,1.8-.532,2.231-2.216,2.127a60.477,60.477,0,0,0-6.943,0c-1.477.074-1.906-.384-1.891-1.906.074-8.937,0-17.889,0-26.826Z" transform="translate(54.906 0.056)" fill="#004a66"/><path d="M91.177,0h21.286c1.477,0,1.876.31,1.8,1.773a64.388,64.388,0,0,0,0,7.164c.089,1.61-.369,2.083-2.024,2.068-7.873-.089-15.747,0-23.635,0H70.1c-1.477,0-1.979-.428-1.906-1.95a72.744,72.744,0,0,0,0-7.386c0-1.315.355-1.669,1.669-1.654C76.967.074,84.072,0,91.177,0Z" transform="translate(-68.111 0.06)" fill="#004a66"/><path d="M276.238,23.139V43.952c0,1.477-.251,2.186-1.965,2.068a72.463,72.463,0,0,0-7.386,0c-1.064,0-1.477-.236-1.477-1.389V1.379c0-1.2.473-1.359,1.477-1.344,2.393,0,4.786.133,7.164,0,1.654-.1,2.216.266,2.186,2.083C276.164,9.105,276.238,16.122,276.238,23.139Z" transform="translate(31.87 0.069)" fill="#004a66"/><path d="M91.279,12.024h21.05c1.477,0,2.024.251,1.92,1.846-.148,2.467-.089,4.934,0,7.386,0,1.226-.369,1.477-1.566,1.477H69.667c-1.374,0-1.477-.591-1.477-1.64,0-2.467.1-4.949,0-7.386,0-1.477.384-1.773,1.787-1.758C77.083,12.024,84.159,12.024,91.279,12.024Z" transform="translate(-68.109 6.084)" fill="#004a66"/><path d="M91.417,23.86h21.035c1.477,0,1.861.34,1.787,1.773q-.177,3.708,0,7.386c0,1.374-.458,1.625-1.7,1.625H69.7c-1.211,0-1.581-.325-1.477-1.477.089-2.541.1-5.082,0-7.622,0-1.374.458-1.625,1.7-1.61Q80.649,23.867,91.417,23.86Z" transform="translate(-68.1 12.087)" fill="#004a66"/><path d="M169.267,35.786h6.249a3.206,3.206,0,0,1,3.427,3.471V51.725a3.235,3.235,0,0,1-3.457,3.486q-6.234.089-12.482,0a3.294,3.294,0,0,1-3.486-3.5c-.074-4.166-.074-8.317,0-12.482a3.294,3.294,0,0,1,3.516-3.442C165.116,35.742,167.185,35.786,169.267,35.786Zm1.846,4.594h-5.909c-.591,0-1.064,0-1.049.827v6.175ZM167.746,50.6h5.362c.591,0,1.285.162,1.256-.827V44.088Z" transform="translate(-22.476 18.254)" fill="#004a66"/><path d="M328.025,35.828h6.249a4.107,4.107,0,0,1,3.826,5.658,1.019,1.019,0,0,1-1.3.62c-1.064-.207-2.674.753-3.073-.561s-.96-1.123-1.787-1.123h-7.622c-.945,0-1.758-.133-1.728,1.359s.547,1.477,1.654,1.477h10.414c2.393,0,3.383.931,3.457,3.309,0,1.773.089,3.545,0,5.318a3.309,3.309,0,0,1-3.575,3.4q-6.352.089-12.719,0a4.313,4.313,0,0,1-3.841-5.835c.31-.872,1.019-.739,1.477-.591,1.034.3,2.644-1.034,3.087.783.251.99.739.975,1.477.975h8.317c1.064,0,1.285-.384,1.285-1.344s-.162-1.477-1.359-1.477H321.85c-2.718,0-3.811-1.049-3.87-3.708V39.654a3.59,3.59,0,0,1,4.033-3.944Z" transform="translate(56.824 18.212)" fill="#004a66"/><path d="M227,35.781h6.485a4.21,4.21,0,0,1,3.663,5.672,1,1,0,0,1-1.315.606c-1.123-.236-2.718.812-3.265-.68-.4-1.064-.931-1-1.684-1h-7.873c-1.078,0-1.477.266-1.477,1.477s.177,1.477,1.374,1.477c3.545-.089,7.105,0,10.651,0a2.954,2.954,0,0,1,3.5,3.073,37.7,37.7,0,0,1,0,5.776,3.265,3.265,0,0,1-3.545,3.132H220.563c-2.762,0-4.9-3.752-3.427-5.909.694-1.034,1.994-.325,3.028-.428.5,0,1.477-.355,1.4.62s.591,1.167,1.477,1.167h8.1c1.182,0,1.359-.428,1.389-1.477s-.487-1.359-1.477-1.359H220.637c-2.482,0-3.516-1.034-3.545-3.471v-4.86a3.383,3.383,0,0,1,3.723-3.708C222.838,35.751,224.92,35.781,227,35.781Z" transform="translate(6.192 18.259)" fill="#004a66"/><path d="M107.619,55.313H99.287c-1.064,0-1.477-.251-1.477-1.4q.089-8.331,0-16.663c0-1.123.325-1.477,1.477-1.477,5.628,0,11.256.074,16.884,0,2.157,0,1.285,1.477,1.359,2.378s.458,2.349-1.477,2.275c-3.929-.118-7.859,0-11.818,0-1.078,0-1.625.118-1.654,1.477s.724,1.389,1.714,1.389c3.929,0,7.873.089,11.818,0,2.29-.074,1.389,1.477,1.477,2.5s.458,2.29-1.477,2.231c-3.929-.148-7.873,0-11.818,0-1.064,0-1.654,0-1.669,1.477s.783,1.359,1.728,1.359c3.855,0,7.726.118,11.566,0,2.334-.118,1.625,1.374,1.728,2.526s.118,2.349-1.817,2.216A46.63,46.63,0,0,0,107.619,55.313Z" transform="translate(-53.364 18.255)" fill="#004a66"/><path d="M242.282,55.3h-7.637c-1.477,0-2.024-.207-1.994-1.847.1-5.318,0-10.636,0-15.954,0-1.256.266-1.743,1.64-1.714,5.392.074,10.8.118,16.249,0,2.039,0,1.787,1.078,1.758,2.3s.4,2.482-1.714,2.393c-3.6-.162-7.238-.074-10.857,0-.99,0-2.349-.62-2.319,1.477s1.3,1.3,2.2,1.315c3.693,0,7.386.118,11.109,0,1.965-.089,1.625,1.137,1.551,2.216s.739,2.57-1.477,2.5c-3.929-.133-7.859,0-11.818,0-.975,0-1.477,0-1.477,1.315s.458,1.477,1.6,1.477c3.855,0,7.711.1,11.566,0,2.1-.1,1.714,1.167,1.7,2.334s.532,2.526-1.64,2.393a59.964,59.964,0,0,0-8.435-.207Z" transform="translate(14.196 18.265)" fill="#004a66"/><path d="M78.009,35.784c2.7,0,5.421.148,8.1,0,2.024-.148,1.654,1.108,1.566,2.171s.8,2.57-1.477,2.5c-3.929-.133-7.873,0-11.818,0-1.226,0-1.477.34-1.477,1.477s.517,1.344,1.477,1.329c3.87,0,7.726.1,11.581-.074,1.935-.089,1.92.9,1.787,2.216s.679,2.659-1.7,2.526c-3.693-.192-7.386,0-11.109,0-1,0-2.127-.428-2.083,1.477s1.078,1.3,1.979,1.315c3.782,0,7.563.118,11.345,0,1.994-.074,1.64,1.137,1.477,2.2s.931,2.393-1.418,2.393c-5.48-.1-10.961,0-16.426,0-1.108,0-1.625-.133-1.61-1.477.089-5.554,0-11.109,0-16.663,0-1.182.428-1.389,1.477-1.359C72.454,35.828,75.291,35.784,78.009,35.784Z" transform="translate(-68.2 18.256)" fill="#004a66"/><path d="M312.3,55.318h-8.331c-1.064,0-1.477-.251-1.477-1.4V37.237c0-1.123.325-1.477,1.477-1.477,5.554,0,11.123.1,16.678,0,2.142,0,1.344,1.389,1.374,2.334s.62,2.378-1.477,2.319c-3.929-.118-7.873,0-11.818,0-1.019,0-1.669,0-1.669,1.477s.62,1.477,1.669,1.477h11.818c2.3-.074,1.389,1.477,1.477,2.5s.532,2.319-1.477,2.216c-3.471-.148-6.958-.148-10.414,0-1,0-3.073-1.344-2.954,1.374s2.053,1.211,3.073,1.27a93.567,93.567,0,0,0,10.178,0c2.171-.118,1.64,1.241,1.64,2.349s.561,2.526-1.61,2.378A65.234,65.234,0,0,0,312.3,55.318Z" transform="translate(49.565 18.251)" fill="#004a66"/><path d="M262.988,47.955l3.663,7.135c-4.166,1.226-6.189-.886-7.386-4.3-.886-2.659-2.7-3.324-5.318-2.954-1.019.133-1.285.443-1.241,1.389a19.708,19.708,0,0,1,0,3.235c0,.931.591,2.3-.487,2.7a9.218,9.218,0,0,1-3.663,0c-.783,0-.532-.812-.547-1.285V37.2c0-1.078.266-1.477,1.477-1.477h14.122a3.146,3.146,0,0,1,3.383,2.807,20.9,20.9,0,0,1,0,6.219C266.7,46.95,265.2,47.733,262.988,47.955Zm-5.141-7.563H254.4c-1.137,0-1.64.089-1.654,1.477s.62,1.477,1.654,1.4h6.426c1.034,0,1.669,0,1.654-1.4s-.591-1.477-1.654-1.477-1.979.015-2.984.015Z" transform="translate(21.871 18.228)" fill="#004a66"/><path d="M159.341,48.012l3.752,7.238c-1.477,0-2.792-.074-4.048,0A1.6,1.6,0,0,1,157.48,54.2c-.9-1.7-1.847-3.368-2.7-5.1a2.024,2.024,0,0,0-2.1-1.329c-3.619,0-3.619,0-3.619,3.59v1.167c0,2.482-1.64,3.545-4.033,2.688-.783-.3-.547-.842-.547-1.315v-16.9c0-1.078.428-1.256,1.359-1.256h14.122a3.294,3.294,0,0,1,3.471,3.486v3.708C163.418,46.461,162.783,47.3,159.341,48.012Zm-5.215-7.622h-3.678c-1.211,0-1.477.266-1.477,1.477s.118,1.477,1.359,1.477c2.216-.118,4.432,0,6.662,0,1.108,0,1.832,0,1.8-1.477s-.739-1.374-1.714-1.344S155.131,40.39,154.127,40.39Z" transform="translate(-30.002 18.244)" fill="#004a66"/><path d="M179.513,42.539c0,4.121-.118,7.667,0,11.182.089,2.024-1.167,1.581-2.216,1.477s-2.511.724-2.467-1.477c.133-5.48.089-10.946,0-16.426,0-1.27.443-1.477,1.581-1.477a5.909,5.909,0,0,1,5.909,2.541c2.556,3.368,5.48,6.455,8.642,10.134,0-3.885.148-7.283,0-10.651-.133-2.024.812-2.039,2.275-1.994s2.615-.3,2.526,2.009c-.207,5.229-.118,10.488,0,15.732,0,1.477-.414,1.684-1.787,1.817a5.909,5.909,0,0,1-5.835-2.644C185.51,49.334,182.63,46.217,179.513,42.539Z" transform="translate(-14.764 18.238)" fill="#004a66"/><path d="M123.424,35.78h6.47a4.166,4.166,0,0,1,3.368,5.82c-.517.945-1.477.473-2.29.414s-2.083.783-2.231-.739c-.1-1.152-.783-.916-1.477-.916h-8.1c-1.182,0-1.477.428-1.374,1.477,0,2.467.089,4.934,0,7.386,0,1.152.355,1.477,1.477,1.4H126.2c.99,0,2.275.753,2.718-1.359.207-.99,2.5-.4,3.811-.34,1.049,0,.547,1.093.576,1.684.1,3.545-1.049,4.683-4.624,4.683h-11.33c-2.821,0-4.018-1.241-4.033-4.107V39.635c0-2.57,1.256-3.767,3.841-3.8Z" transform="translate(-45.59 18.26)" fill="#004a66"/><path d="M296.7,55.285h-6.263a3.338,3.338,0,0,1-3.649-3.56q-.1-6.249,0-12.5a3.22,3.22,0,0,1,3.545-3.383h12.733a4.107,4.107,0,0,1,3.649,5.791c-.325.709-.916.547-1.359.473-1.064-.177-2.6.724-3.073-.635-.354-1.034-.8-1.064-1.581-1.064h-7.873c-1.108,0-1.477.281-1.477,1.477.074,2.467.1,4.934,0,7.386-.074,1.359.547,1.477,1.625,1.477h6.47c1.064,0,2.467.812,2.954-1.4.192-.886,2.408-.384,3.663-.31s.635,1.2.65,1.847c.089,3.442-1.019,4.535-4.432,4.535Z" transform="translate(42.047 18.283)" fill="#004a66"/><path d="M206.577,55.319h-6.485a3.309,3.309,0,0,1-3.634-3.56V39.5a3.324,3.324,0,0,1,3.767-3.708h12.512a4.166,4.166,0,0,1,3.737,5.791c-.325.724-.916.561-1.359.487-1.064-.177-2.6.724-3.087-.62-.355-1.034-.783-1.078-1.581-1.078h-7.859c-1.093,0-1.477.266-1.477,1.477,0,2.467.1,4.949,0,7.386,0,1.359.532,1.477,1.625,1.477h6.47c1.064,0,2.467.812,2.954-1.4.192-.9,2.393-.384,3.663-.31s.635,1.2.65,1.847c.089,3.412-1.049,4.535-4.505,4.535Z" transform="translate(-3.945 18.249)" fill="#004a66"/><path d="M286.839,35.9c-2.954,6.278-5.746,12.29-8.509,18.347a1.477,1.477,0,0,1-1.551,1.019c-4.151.281-4.151.31-6-3.516L263.13,35.783h4.107c1.064,0,1.241.724,1.581,1.374l6.337,12.6c1.7-3.545,3.309-6.854,4.9-10.178C281.95,35.591,281.95,35.576,286.839,35.9Z" transform="translate(29.519 18.257)" fill="#004a66"/><path d="M139.047,35.782c2.7,0,5.407.118,8.1,0,1.846-.1,1.581,1.064,1.477,2.053s.96,2.718-1.359,2.585h-.5c-1.817.148-4.3-.827-5.274.4s-.281,3.531-.31,5.362a64.352,64.352,0,0,0,0,7.164c.266,2.393-1.211,1.832-2.526,1.965-1.625.162-2.29-.192-2.2-2.068.177-3.767,0-7.548.074-11.33,0-1.226-.34-1.6-1.551-1.477-1.477.1-3.073,0-4.624,0-2.349,0-1-1.773-1.226-2.718s-.414-1.994,1.315-1.906C133.33,35.885,136.2,35.782,139.047,35.782Z" transform="translate(-37.768 18.258)" fill="#004a66"/><path d="M83.621,45.521V37.2c0-2.334,1.64-1.211,2.585-1.344s2.157-.517,2.1,1.374c-.133,3.929,0,7.859,0,11.818,0,1.344.4,1.684,1.684,1.64,3.309,0,6.633.1,9.942,0,2.171-.1,1.61,1.27,1.64,2.393s.355,2.26-1.787,2.26c-4.845-.162-9.705-.1-14.565,0-1.344,0-1.669-.414-1.625-1.684C83.68,50.913,83.621,48.224,83.621,45.521Z" transform="translate(-60.498 18.224)" fill="#004a66"/><path d="M195.768,45.755c0,2.688-.1,5.392,0,8.08.1,2.112-1.374,1.477-2.334,1.477s-2.393.827-2.364-1.329c.089-5.554.1-11.094,0-16.648,0-1.876,1.123-1.566,2.083-1.477s2.674-1,2.615,1.344C195.709,40.038,195.768,42.9,195.768,45.755Z" transform="translate(-6.779 18.212)" fill="#004a66"/><path d="M286.093,45.55v8.331c0,2.319-1.64,1.211-2.6,1.344s-2.127.517-2.083-1.374c.118-5.554.1-11.109,0-16.663,0-2.142,1.477-1.329,2.364-1.344s2.423-.739,2.319,1.389C286,40,286.093,42.788,286.093,45.55Z" transform="translate(39.505 18.225)" fill="#004a66"/></g><g transform="translate(2531.375 -5671.051)"><path d="M71.65.78l-13.911,12.1c-2.511,2.2-5.064,4.347-7.627,6.575-.778.716-1.329.886-2.216.106C40.954,13.457,33.97,7.507,27,1.467A2.807,2.807,0,0,1,26.557.78Z" transform="translate(13.955 -0.67)" fill="#48a8c1"/><path d="M60.212,21.392c-3.25-.533-3.25-.533-3.25,2.624v3.353c0,1.114-.26,1.618-1.449,1.526s-1.709-.244-1.526-1.449-.306-1.6-1.526-1.526-1.526.61-1.526,1.647c.092,1.709-1.16,1.3-2.136,1.389-1.22.106-1.526-.533-1.526-1.526V24.382c0-.976-.35-1.526-1.526-1.618s-1.526.518-1.526,1.526v2.867c0,.962.123,1.907-1.389,1.876-1.205,0-2.044-.148-1.907-1.663.106-1.034-.487-1.358-1.526-1.372s-1.526.35-1.418,1.389-.443,1.663-1.663,1.625H26.09c2.913-2.547,5.247-4.743,7.6-6.986,2.838-2.659,5.761-5.247,8.543-7.962a1.663,1.663,0,0,1,2.623-.092c1.526,1.182,2.563,3.386,4.579,3.188,1.708-.168,2.883-2.068,4.241-3.294.625-.55,1.182-1.007,2.028-.214,5.278,4.912,10.677,9.792,15.818,14.979-3.783,0-7.489.793-11.181-.2.9-2.044.306-4.179.381-6.254s-.092-1.968-2.3-1.526C58.931,21.073,59.862,20.509,60.212,21.392Z" transform="translate(13.71 6.265)" fill="#48a8c1"/><path d="M63.616,2.15v30.6l-12.2-11.135c-1.358-1.235-2.7-2.486-4.087-3.66-.793-.671-1.114-1.143-.123-2,5.17-4.454,10.3-8.97,15.451-13.469a3.829,3.829,0,0,1,.962-.335Z" transform="translate(24.477 0.049)" fill="#48a8c1"/><path d="M24.75,2c5.72,4.957,11.15,9.686,16.611,14.369.854.747.168,1.007-.26,1.389-5.353,4.957-10.677,9.9-16.351,15.067Z" transform="translate(13.005 -0.03)" fill="#48a8c1"/><path d="M17.237.742H32.49c1.618,0,2.228.366,2.228,2.105,0,4.424,0,4.424-4.393,4.424Q18.77,7.249,7.17,7.256C3.546,7.255,1.221,5.729.261,2.83-.213,1.434-.213.665,1.71.711c5.17.123,10.357,0,15.528,0Z" transform="translate(0.002 -0.709)" fill="#48a8c1"/><path d="M31.909,50.788c-2.684,2.715-5.37,5.43-8.085,8.125-1.143,1.143-6.376,1.92-7.718,1.189-1.007-.55-.473-1.526-.656-2.364s.443-.87.916-.747c4.579,1.16,6.971-1.953,9.274-4.789,3.05-3.783,6.636-5.659,11.522-4.76a4.727,4.727,0,0,0,4.579-1.815c2.242-2.471,4.683-4.743,7.077-7.077a3.677,3.677,0,0,0,1.22-2.944c-.092-2.867,0-5.736,0-8.6,0-1.329.55-1.526,1.708-1.526s1.6.275,1.526,1.526V37.756a3.05,3.05,0,0,1-.87,2.151Q47.187,45.154,41.954,50.34a3.25,3.25,0,0,1-1.068.473,18.3,18.3,0,0,0-8.977-.025Z" transform="translate(8.103 13.468)" fill="#48a8c1"/><path d="M30.711,12.988c-6.407,0-12.828.137-19.235,0A4.805,4.805,0,0,1,6.733,9.7C6.5,7.752,7.324,7.158,9.3,7.218c5.232.137,10.479,0,15.711,0C30.726,7.269,30.726,7.269,30.711,12.988Z" transform="translate(3.521 2.709)" fill="#48a8c1"/><path d="M48.8,38.646c0,3.188-.137,6.376,0,9.549a7.8,7.8,0,0,1-2.216,5.6C44.115,56.95,41,57.21,37.428,57.027c-1.4,0-1.526-.762-1.526-1.83s.458-1.434,1.526-1.526c1.815-.123,3.706.591,5.415-.991a7.139,7.139,0,0,0,2.609-5.98c-.2-6.438,0-12.89-.106-19.341,0-1.343.214-2,1.784-2s1.526.854,1.526,1.968C48.788,31.171,48.8,34.909,48.8,38.646Z" transform="translate(18.865 13.407)" fill="#48a8c1"/><path d="M41.781,25.95c2.852-1.022,2.913-.762,3.279,2,.716,5.43-1.052,9.426-5.216,13.088-2.746,2.426-5.247,3.92-8.984,3.585a87.372,87.372,0,0,0-9.792,0c-1.266,0-1.678-.427-1.678-1.663s.4-1.709,1.663-1.693h11.47a4.579,4.579,0,0,0,3.8-1.526c1.773-1.92,3.6-3.783,5.415-5.69a3.554,3.554,0,0,0,.168.427h.168C42.133,31.638,42.651,28.771,41.781,25.95Z" transform="translate(10.189 13.071)" fill="#48a8c1"/><path d="M27.7,19.149c-3.173,0-6.33.168-9.488.077a5.909,5.909,0,0,1-5.78-5.7h9.75C27.715,13.506,27.715,13.506,27.7,19.149Z" transform="translate(6.532 6.369)" fill="#48a8c1"/><path d="M49.138,52.216c-2.105.5-2.913-.092-2.867-2.471.168-7.154.148-14.329,0-21.477,0-2.334.579-3.234,2.913-2.624Z" transform="translate(24.31 13.458)" fill="#48a8c1"/><path d="M24.943,22.71c-.214.854.625,2.38-.443,2.867s-2.547-.443-3.6-1.3a8.191,8.191,0,0,1-1.449-1.526,3.432,3.432,0,0,1-.824-3.05c.381-.945,1.693-.244,2.578-.412a2.41,2.41,0,0,1,.473,0C25.568,19.216,24.943,19.054,24.943,22.71Z" transform="translate(9.747 9.503)" fill="#48a8c1"/><path d="M30.993,13.154c0-5.69,0-5.69-5.7-5.69-5.232,0-10.479.092-15.711,0C7.609,7.464,6.785,8,7.014,9.95,5.656,7.16,5.748,6.9,8.54,6.9c6.834,0,13.728.077,20.515,0,1.907,0,2.659.55,2.334,2.411C31.237,10.546,31.953,11.934,30.993,13.154Z" transform="translate(3.239 2.543)" fill="#6898aa"/><path d="M12.889,46.162c1.235-.2,1.982,0,1.937,1.526,0,1.182-.321,1.784-1.618,1.678-1.022-.077-2.068.168-2.028-1.526C11.226,46.665,11.44,45.953,12.889,46.162Z" transform="translate(5.876 24.3)" fill="#48a8c1"/><path d="M48.15,52.152V25.58c.687.306.473.931.473,1.449v23.7C48.667,51.19,48.852,51.817,48.15,52.152Z" transform="translate(25.299 13.522)" fill="#6898aa"/><path d="M47.954,48.465c-1.526.306-1.678-.533-1.663-1.773s.214-1.753,1.526-1.724,1.891.306,1.845,1.724S49.418,48.723,47.954,48.465Z" transform="translate(24.321 23.707)" fill="#48a8c1"/><path d="M35.2,45.672c.214,1.3-.4,1.625-1.618,1.625s-1.8-.244-1.724-1.526c0-1.068.092-1.845,1.526-1.784S35.447,44.191,35.2,45.672Z" transform="translate(16.739 23.19)" fill="#48a8c1"/><path d="M27.7,19.376c0-5.644,0-5.644-5.522-5.644h-9.75c.366-.962,1.205-.564,1.83-.564H26.11c1.724,0,2.3.625,2.059,2.2S28.69,18.129,27.7,19.376Z" transform="translate(6.531 6.135)" fill="#6898aa"/><path d="M18.5,37.28c.183,1.343-.26,1.861-1.526,1.845s-1.526-.458-1.526-1.526,0-1.861,1.449-1.83S18.79,36.122,18.5,37.28Z" transform="translate(8.119 18.597)" fill="#48a8c1"/><path d="M49.1,18.9c-.35-.87-1.281-.321-1.845-.739,2.216-.381,2.38-.35,2.3,1.526s.519,4.21-.381,6.254C49.14,23.644,49.126,21.281,49.1,18.9Z" transform="translate(24.826 8.837)" fill="#6898aa"/><path d="M34.084,25.76c.87,2.821.35,5.69.3,8.543h-.168a3.556,3.556,0,0,1-.168-.427Z" transform="translate(17.888 13.141)" fill="#6898aa"/><path d="M26.23,42.283a18.3,18.3,0,0,1,9.011-.106Z" transform="translate(13.782 21.972)" fill="#6898aa"/></g></g></svg>