<svg xmlns="http://www.w3.org/2000/svg" width="336.854" height="50" viewBox="0 0 336.854 50"><g transform="translate(0.001 0.041)"><g transform="translate(-0.001 -0.041)"><path d="M163.81,31.13H153.62a5.391,5.391,0,0,1-5.78-5.58c0-1.45-.48-3.31.24-4.24s2.63-.18,4-.26h1.09c1.43-.21,2.32.11,2,1.83-.19.87.29,1,1.06,1h15.36c.83,0,1-.25,1-1.06.08-3.6.1-3.6-3.54-3.6h-16.3c-3.08,0-4.89-1.73-4.94-4.8s-.06-5.85,0-8.77A5.41,5.41,0,0,1,153.62,0h20.53a5.41,5.41,0,0,1,5.71,5.67c0,1.4.47,3.24-.23,4.08s-2.64.19-4,.28h-1.09c-1.32.17-2.26,0-1.92-1.71.16-.8-.32-.95-1-.95H156.26c-.78,0-1.07.2-1.09,1.05C155,12,155,12,158.44,12h16.61a4.47,4.47,0,0,1,4.81,4.76c0,3,0,5.95,0,8.93a5.33,5.33,0,0,1-5.39,5.48C170.91,31.17,167.36,31.13,163.81,31.13Z" transform="translate(2.536 0.041)" fill="#fff"/><path d="M291.09,0h11.45a5.4,5.4,0,0,1,5.65,5.56c0,2.72.05,5.43,0,8.15a5.27,5.27,0,0,1-5.57,5.46H286.78c-1.13,0-1.54.22-1.5,1.45.09,3.08,0,6.16.05,9.24,0,1.05-.3,1.33-1.31,1.28-1.61-.08-3.24-.07-4.85,0-.83,0-1.18-.11-1.18-1.07q.06-14.5,0-29c0-1,.38-1.07,1.18-1.06C283.15.05,287.12,0,291.09,0Zm2.09,12h4.54c3.23,0,3.19,0,3.22-3.24,0-1-.24-1.32-1.28-1.3-3.66.06-7.31,0-11,0s-3.57,0-3.41,3.59c0,.78.29,1,1,.94C288.59,11.93,290.88,12,293.18,12Z" transform="translate(5.138 0.041)" fill="#fff"/><path d="M222.24,0h7.3c.89,0,1,.63,1.22,1.15q4.86,9.71,9.69,19.42c.28.56.58,1.1,1,1.86l6.49-13.57c1.26-2.63,2.54-5.24,3.75-7.89a1.38,1.38,0,0,1,1.5-1c2.24.06,4.49,0,6.73,0,.25.43-.07.72-.2,1-4.46,9.61-9,19.21-13.39,28.84a1.87,1.87,0,0,1-2.12,1.29,16,16,0,0,0-3.59,0c-2.57.39-3.87-.58-5-3-4.07-8.93-8.44-17.73-12.7-26.58C222.7,1.11,222.51.64,222.24,0Z" transform="translate(3.885 0.041)" fill="#fff"/><path d="M142.52,31.13h-7.25c-.87,0-1-.55-1.27-1.09q-4.92-9.94-9.85-19.87A2.4,2.4,0,0,0,123.3,9c-1.54,3.21-3.08,6.37-4.6,9.54-1.86,3.84-3.73,7.67-5.53,11.53a1.57,1.57,0,0,1-1.71,1.14c-2.19-.08-4.39,0-6.58,0-.21-.62.21-1,.41-1.46,4.44-9.51,8.92-19,13.34-28.52A1.65,1.65,0,0,1,120.48,0c1.93.08,3.87.08,5.8,0a1.78,1.78,0,0,1,2,1.21c4.46,9.44,9,18.85,13.5,28.27C142,30,142.19,30.42,142.52,31.13Z" transform="translate(1.833 0.041)" fill="#fff"/><path d="M185.12,0c2.87,0,5.47.05,8.08,0a1.735,1.735,0,0,1,1.56,1L201,10c2.1-3,4.15-5.82,6.1-8.74A2.41,2.41,0,0,1,209.51,0c2.4.09,4.79,0,7.41,0-.53.8-1,1.48-1.41,2.14-3.3,4.75-6.57,9.51-9.91,14.22a4.75,4.75,0,0,0-.92,3c0,3.39,0,6.79,0,10.18,0,1.15-.19,1.68-1.49,1.56a29.11,29.11,0,0,0-4.38,0c-1.12.07-1.51-.18-1.48-1.42.1-3.49,0-7,.06-10.49a4.43,4.43,0,0,0-.84-2.73C192.78,11.13,189,5.69,185.12,0Z" transform="translate(3.172 0.041)" fill="#fff"/><path d="M324.15,10.39c-1.82,1.67-3.41,3.07-4.93,4.54-.57.55-.9.65-1.47,0-1.19-1.38-2.46-2.7-3.73-4-.47-.48-.45-.75.06-1.22q5-4.51,9.9-9.12A2,2,0,0,1,325.51,0c1.57,0,3.14.08,4.7,0,1.1-.07,1.39.27,1.38,1.37V20.79c0,3-.07,5.95,0,8.92,0,1.22-.36,1.51-1.5,1.44a40.941,40.941,0,0,0-4.7,0c-1,.05-1.29-.26-1.28-1.29.05-6.05,0-12.11,0-18.16Z" transform="translate(5.138 0.041)" fill="#fff"/><path d="M83.75,0H98.16c1,0,1.27.21,1.22,1.2a43.588,43.588,0,0,0,0,4.85c.06,1.09-.25,1.41-1.37,1.4-5.33-.06-10.66,0-16,0H69.48c-1,0-1.34-.29-1.29-1.32a49.251,49.251,0,0,0,0-5c0-.89.24-1.13,1.13-1.12C74.13.05,78.94,0,83.75,0Z" transform="translate(1.167 0.041)" fill="#fff"/><path d="M272.74,15.67V29.76c0,1-.17,1.48-1.33,1.4a49.051,49.051,0,0,0-5,0c-.72,0-1-.16-1-.94V.94c0-.81.32-.92,1-.91,1.62,0,3.24.09,4.85,0,1.12-.07,1.5.18,1.48,1.41C272.69,6.17,272.74,10.92,272.74,15.67Z" transform="translate(5.138 0.041)" fill="#fff"/><path d="M83.82,12H98.07c1,0,1.37.17,1.3,1.25-.1,1.67-.06,3.34,0,5,0,.83-.25,1-1.06,1H69.19c-.93,0-1-.4-1-1.11,0-1.67.07-3.35,0-5,0-1,.26-1.2,1.21-1.19C74.21,12,79,12,83.82,12Z" transform="translate(1.167 0.259)" fill="#fff"/><path d="M83.92,23.86H98.16c1,0,1.26.23,1.21,1.2q-.12,2.51,0,5c0,.93-.31,1.1-1.15,1.1h-29c-.82,0-1.07-.22-1-1,.06-1.72.07-3.44,0-5.16,0-.93.31-1.1,1.15-1.09Q76.63,23.865,83.92,23.86Z" transform="translate(1.167 0.475)" fill="#fff"/><path d="M56.12.78,47,8.71c-1.65,1.44-3.32,2.85-5,4.31-.51.47-.87.58-1.45.07-4.55-4-9.13-7.9-13.7-11.86a1.84,1.84,0,0,1-.29-.45Z" transform="translate(0.001 0.041)" fill="#48a8c1"/><path d="M48.46,18.58c-2.13-.35-2.13-.35-2.13,1.72v2.2c0,.73-.17,1.06-.95,1s-1.12-.16-1-.95-.2-1.05-1-1-1,.4-1,1.08c.06,1.12-.76.85-1.4.91-.8.07-1-.35-1-1v-2c0-.64-.23-1-1-1.06s-1,.34-1,1v1.88c0,.63.08,1.25-.91,1.23-.79,0-1.34-.1-1.25-1.09.07-.68-.32-.89-1-.9s-1,.23-.93.91-.29,1.09-1.09,1.07H26.09C28,21.91,29.53,20.47,31.07,19c1.86-1.74,3.78-3.44,5.6-5.22a1.09,1.09,0,0,1,1.72-.06c1,.77,1.68,2.22,3,2.09,1.12-.11,1.89-1.36,2.78-2.16.41-.36.77-.66,1.33-.14,3.46,3.22,7,6.42,10.37,9.82-2.48,0-4.91.52-7.33-.13.59-1.34.2-2.74.25-4.1s-.06-1.29-1.51-1C47.62,18.37,48.23,18,48.46,18.58Z" transform="translate(0.001 0.301)" fill="#48a8c1"/><path d="M166.1,35.78h4.23a2.17,2.17,0,0,1,2.32,2.35v8.44a2.19,2.19,0,0,1-2.34,2.36q-4.22.06-8.45,0a2.23,2.23,0,0,1-2.36-2.37c-.05-2.82-.05-5.63,0-8.45a2.23,2.23,0,0,1,2.38-2.33C163.29,35.75,164.69,35.78,166.1,35.78Zm1.25,3.11h-4c-.4,0-.72,0-.71.56v4.18Zm-2.28,6.92h3.63c.4,0,.87.11.85-.56V41.4Z" transform="translate(2.573 0.803)" fill="#fff"/><path d="M324.69,35.78h4.23a2.78,2.78,0,0,1,2.59,3.83.69.69,0,0,1-.88.42c-.72-.14-1.81.51-2.08-.38s-.65-.76-1.21-.76h-5.16c-.64,0-1.19-.09-1.17.92s.37,1,1.12,1h7.05c1.62,0,2.29.63,2.34,2.24,0,1.2.06,2.4,0,3.6a2.24,2.24,0,0,1-2.42,2.3q-4.3.06-8.61,0a2.92,2.92,0,0,1-2.6-3.95c.21-.59.69-.5,1-.4.7.2,1.79-.7,2.09.53.17.67.5.66,1,.66h5.63c.72,0,.87-.26.87-.91s-.11-1-.92-1h-7.05c-1.84,0-2.58-.71-2.62-2.51v-3a2.43,2.43,0,0,1,2.73-2.67Z" transform="translate(5.138 0.803)" fill="#fff"/><path d="M223.66,35.78h4.39a2.85,2.85,0,0,1,2.48,3.84.68.68,0,0,1-.89.41c-.76-.16-1.84.55-2.21-.46-.27-.72-.63-.68-1.14-.68h-5.33c-.73,0-1,.18-1,1s.12,1,.93,1c2.4-.06,4.81,0,7.21,0a2,2,0,0,1,2.37,2.08,25.518,25.518,0,0,1,0,3.91,2.21,2.21,0,0,1-2.4,2.12H219.3c-1.87,0-3.32-2.54-2.32-4,.47-.7,1.35-.22,2.05-.29.34,0,1-.24.95.42s.4.79,1,.79h5.48c.8,0,.92-.29.94-1s-.33-.92-1-.92h-7.05c-1.68,0-2.38-.7-2.4-2.35V38.36a2.29,2.29,0,0,1,2.52-2.51C220.84,35.76,222.25,35.78,223.66,35.78Z" transform="translate(3.505 0.803)" fill="#fff"/><path d="M104.45,49H98.81c-.72,0-1-.17-1-.95q.06-5.64,0-11.28c0-.76.22-1,1-1,3.81,0,7.62.05,11.43,0,1.46,0,.87,1,.92,1.61s.31,1.59-1,1.54c-2.66-.08-5.32,0-8,0-.73,0-1.1.08-1.12,1s.49.94,1.16.94c2.66,0,5.33.06,8,0,1.55-.05.94,1,1,1.69s.31,1.55-1,1.51c-2.66-.1-5.33,0-8,0-.72,0-1.12,0-1.13,1s.53.92,1.17.92c2.61,0,5.23.08,7.83,0,1.58-.08,1.1.93,1.17,1.71s.08,1.59-1.23,1.5A31.567,31.567,0,0,0,104.45,49Z" transform="translate(1.58 0.803)" fill="#fff"/><path d="M239.17,49H234c-1,0-1.37-.14-1.35-1.25.07-3.6,0-7.2,0-10.8,0-.85.18-1.18,1.11-1.16,3.65.05,7.31.08,11,0,1.38,0,1.21.73,1.19,1.56s.27,1.68-1.16,1.62c-2.44-.11-4.9-.05-7.35,0-.67,0-1.59-.42-1.57,1s.88.88,1.49.89c2.5,0,5,.08,7.52,0,1.33-.06,1.1.77,1.05,1.5s.5,1.74-1,1.69c-2.66-.09-5.32,0-8,0-.66,0-1,0-1,.89s.31,1,1.08,1c2.61,0,5.22.07,7.83,0,1.42-.07,1.16.79,1.15,1.58s.36,1.71-1.11,1.62A40.592,40.592,0,0,0,239.17,49Z" transform="translate(3.756 0.803)" fill="#fff"/><path d="M74.84,35.78c1.83,0,3.67.1,5.48,0,1.37-.1,1.12.75,1.06,1.47s.54,1.74-1,1.69c-2.66-.09-5.33,0-8,0-.83,0-1,.23-1,1s.35.91,1,.9c2.62,0,5.23.07,7.84-.05,1.31-.06,1.3.61,1.21,1.5s.46,1.8-1.15,1.71c-2.5-.13-5,0-7.52,0-.68,0-1.44-.29-1.41,1s.73.88,1.34.89c2.56,0,5.12.08,7.68,0,1.35-.05,1.11.77,1,1.49S82,49,80.41,49c-3.71-.07-7.42,0-11.12,0-.75,0-1.1-.09-1.09-1,.06-3.76,0-7.52,0-11.28,0-.8.29-.94,1-.92C71.08,35.81,73,35.78,74.84,35.78Z" transform="translate(1.102 0.803)" fill="#fff"/><path d="M309.13,49h-5.64c-.72,0-1-.17-1-.95V36.76c0-.76.22-1,1-1,3.76,0,7.53.07,11.29,0,1.45,0,.91.94.93,1.58s.42,1.61-1,1.57c-2.66-.08-5.33,0-8,0-.69,0-1.13,0-1.13,1s.42,1,1.13,1h8c1.56-.05.94,1,1,1.69s.36,1.57-1,1.5c-2.35-.1-4.71-.1-7.05,0-.68,0-2.08-.91-2,.93s1.39.82,2.08.86a63.34,63.34,0,0,0,6.89,0c1.47-.08,1.11.84,1.11,1.59s.38,1.71-1.09,1.61A44.158,44.158,0,0,0,309.13,49Z" transform="translate(5.138 0.803)" fill="#fff"/><path d="M258.14,44l2.48,4.83c-2.82.83-4.19-.6-5-2.91-.6-1.8-1.83-2.25-3.6-2-.69.09-.87.3-.84.94a13.337,13.337,0,0,1,0,2.19c0,.63.4,1.56-.33,1.83a6.24,6.24,0,0,1-2.48,0c-.53,0-.36-.55-.37-.87V36.72c0-.73.18-1,1-1h9.56a2.13,2.13,0,0,1,2.29,1.9,14.15,14.15,0,0,1,0,4.21C260.65,43.32,259.64,43.85,258.14,44Zm-3.48-5.12h-2.33c-.77,0-1.11.06-1.12,1s.42,1,1.12.95h4.35c.7,0,1.13,0,1.12-.95s-.4-1-1.12-1-1.34.01-2.02.01Z" transform="translate(3.999 0.803)" fill="#fff"/><path d="M154.53,44.05l2.54,4.9c-1,0-1.89-.05-2.74,0a1.08,1.08,0,0,1-1.06-.71c-.61-1.15-1.25-2.28-1.83-3.45a1.37,1.37,0,0,0-1.42-.9c-2.45,0-2.45,0-2.45,2.43v.79c0,1.68-1.11,2.4-2.73,1.82-.53-.2-.37-.57-.37-.89V36.6c0-.73.29-.85.92-.85h9.56a2.23,2.23,0,0,1,2.35,2.36v2.51C157.29,43,156.86,43.57,154.53,44.05ZM151,38.89h-2.49c-.82,0-1,.18-1,1s.08,1,.92,1c1.5-.08,3,0,4.51,0,.75,0,1.24,0,1.22-1s-.5-.93-1.16-.91S151.68,38.89,151,38.89Z" transform="translate(2.329 0.803)" fill="#fff"/><path d="M178,40.34c0,2.79-.08,5.19,0,7.57.06,1.37-.79,1.07-1.5,1s-1.7.49-1.67-1c.09-3.71.06-7.41,0-11.12,0-.86.3-1,1.07-1a4,4,0,0,1,4,1.72c1.73,2.28,3.71,4.37,5.85,6.86,0-2.63.1-4.93,0-7.21-.09-1.37.55-1.38,1.54-1.35s1.77-.2,1.71,1.36c-.14,3.54-.08,7.1,0,10.65,0,1-.28,1.14-1.21,1.23a4,4,0,0,1-3.95-1.79C182.06,44.94,180.11,42.83,178,40.34Z" transform="translate(2.83 0.803)" fill="#fff"/><path d="M57.75,2.15V22.21l-8-7.3c-.89-.81-1.77-1.63-2.68-2.4-.52-.44-.73-.75-.08-1.31,3.39-2.92,6.75-5.88,10.13-8.83A2.51,2.51,0,0,1,57.75,2.15Z" transform="translate(0.001 0.041)" fill="#48a8c1"/><path d="M24.75,2c3.75,3.25,7.31,6.35,10.89,9.42.56.49.11.66-.17.91-3.51,3.25-7,6.49-10.72,9.88Z" transform="translate(0.001 0.041)" fill="#48a8c1"/><path d="M120.16,35.78h4.38a2.82,2.82,0,0,1,2.28,3.94c-.35.64-1,.32-1.55.28s-1.41.53-1.51-.5c-.07-.78-.53-.62-1-.62h-5.48c-.8,0-1,.29-.93,1,0,1.67.06,3.34,0,5,0,.78.24,1,1,.95h4.69c.67,0,1.54.51,1.84-.92.14-.67,1.69-.27,2.58-.23.71,0,.37.74.39,1.14.07,2.4-.71,3.17-3.13,3.17h-7.67c-1.91,0-2.72-.84-2.73-2.78V38.39c0-1.74.85-2.55,2.6-2.57Z" transform="translate(1.832 0.803)" fill="#fff"/><path d="M293.48,49h-4.24a2.26,2.26,0,0,1-2.47-2.41q-.07-4.23,0-8.46a2.18,2.18,0,0,1,2.4-2.29h8.62a2.78,2.78,0,0,1,2.47,3.92c-.22.48-.62.37-.92.32-.72-.12-1.76.49-2.08-.43-.24-.7-.54-.72-1.07-.72h-5.33c-.75,0-1,.19-1,1,.05,1.67.07,3.34,0,5-.05.92.37,1,1.1,1h4.38c.72,0,1.67.55,2-.95.13-.6,1.63-.26,2.48-.21s.43.81.44,1.25c.06,2.33-.69,3.07-3,3.07Z" transform="translate(5.138 0.803)" fill="#fff"/><path d="M203.3,49h-4.39a2.24,2.24,0,0,1-2.46-2.41v-8.3A2.25,2.25,0,0,1,199,35.78h8.47A2.82,2.82,0,0,1,210,39.7c-.22.49-.62.38-.92.33-.72-.12-1.76.49-2.09-.42-.24-.7-.53-.73-1.07-.73H200.6c-.74,0-1,.18-1,1,0,1.67.07,3.35,0,5,0,.92.36,1,1.1,1h4.38c.72,0,1.67.55,2-.95.13-.61,1.62-.26,2.48-.21s.43.81.44,1.25c.06,2.31-.71,3.07-3.05,3.07Z" transform="translate(3.175 0.803)" fill="#fff"/><path d="M11.3.73h10c1.06,0,1.46.24,1.46,1.38,0,2.9,0,2.9-2.88,2.9Q12.305,4.995,4.7,5C2.32,5,.8,4,.17,2.1-.14,1.18-.14.68,1.12.71c3.39.08,6.79,0,10.18,0Z" transform="translate(0.001 0.041)" fill="#48a8c1"/><path d="M279.18,35.86c-2,4.25-3.89,8.32-5.76,12.42a1,1,0,0,1-1.05.69c-2.81.19-2.81.21-4.06-2.38l-5.18-10.81h2.78c.72,0,.84.49,1.07.93l4.29,8.53c1.15-2.4,2.24-4.64,3.32-6.89C275.87,35.65,275.87,35.64,279.18,35.86Z" transform="translate(4.284 0.803)" fill="#fff"/><path d="M26.23,42.07c-1.76,1.78-3.52,3.56-5.3,5.33-.75.75-4.18,1.26-5.06.78-.66-.36-.31-1-.43-1.55s.29-.57.6-.49c3,.76,4.57-1.28,6.08-3.14,2-2.48,4.35-3.71,7.55-3.12a3.1,3.1,0,0,0,3-1.19c1.47-1.62,3.07-3.11,4.64-4.64a2.41,2.41,0,0,0,.8-1.93c-.06-1.88,0-3.76,0-5.64,0-.87.36-1,1.12-1s1.05.18,1,1v7.05a2,2,0,0,1-.57,1.41q-3.42,3.44-6.85,6.84a2.13,2.13,0,0,1-.7.31,12,12,0,0,0-5.88-.02Z" transform="translate(0.001 0.803)" fill="#48a8c1"/><path d="M135.78,35.78c1.83,0,3.66.08,5.48,0,1.25-.07,1.07.72,1,1.39s.65,1.84-.92,1.75H141c-1.23.1-2.91-.56-3.57.27s-.19,2.39-.21,3.63a43.562,43.562,0,0,0,0,4.85c.18,1.62-.82,1.24-1.71,1.33-1.1.11-1.55-.13-1.49-1.4.12-2.55,0-5.11.05-7.67,0-.83-.23-1.08-1.05-1-1,.07-2.08,0-3.13,0-1.59,0-.68-1.2-.83-1.84s-.28-1.35.89-1.29C131.91,35.85,133.85,35.78,135.78,35.78Z" transform="translate(2.082 0.803)" fill="#fff"/><path d="M83.61,42.35V36.72c0-1.58,1.11-.82,1.75-.91s1.46-.35,1.42.93c-.09,2.66,0,5.32,0,8,0,.91.27,1.14,1.14,1.11,2.24,0,4.49.07,6.73,0,1.47-.07,1.09.86,1.11,1.62S96,49,94.55,49c-3.28-.11-6.57-.07-9.86,0-.91,0-1.13-.28-1.1-1.14C83.65,46,83.61,44.18,83.61,42.35Z" transform="translate(1.345 0.803)" fill="#fff"/><path d="M22.44,11c-4.2,0-8.41.09-12.61,0A3.15,3.15,0,0,1,6.72,8.85c-.15-1.28.39-1.67,1.68-1.63,3.43.09,6.87,0,10.3,0C22.45,7.25,22.45,7.25,22.44,11Z" transform="translate(0.001 0.041)" fill="#48a8c1"/><path d="M44.36,34.07c0,2.09-.09,4.18,0,6.26A5.11,5.11,0,0,1,42.91,44c-1.62,2.07-3.66,2.24-6,2.12-.92,0-1-.5-1-1.2s.3-.94,1-1c1.19-.08,2.43.39,3.55-.65a4.68,4.68,0,0,0,1.71-3.92c-.13-4.22,0-8.45-.07-12.68,0-.88.14-1.31,1.17-1.31s1,.56,1,1.29C44.35,29.17,44.36,31.62,44.36,34.07Z" transform="translate(0.001 0.803)" fill="#48a8c1"/><path d="M34.07,25.76c1.87-.67,1.91-.5,2.15,1.31.47,3.56-.69,6.18-3.42,8.58C31,37.24,29.36,38.22,26.91,38a57.28,57.28,0,0,0-6.42,0c-.83,0-1.1-.28-1.1-1.09s.26-1.12,1.09-1.11H28a3,3,0,0,0,2.49-1c1.16-1.26,2.36-2.48,3.55-3.73a2.33,2.33,0,0,0,.11.28h.11C34.3,29.49,34.64,27.61,34.07,25.76Z" transform="translate(0.001 0.571)" fill="#48a8c1"/><path d="M194.25,42.5c0,1.82-.07,3.65,0,5.47.07,1.43-.93,1-1.58,1s-1.62.56-1.6-.9c.06-3.76.07-7.51,0-11.27,0-1.27.76-1.06,1.41-1s1.81-.68,1.77.91C194.21,38.63,194.25,40.57,194.25,42.5Z" transform="translate(2.989 0.803)" fill="#fff"/><path d="M284.58,42.37v5.64c0,1.57-1.11.82-1.76.91s-1.44.35-1.41-.93c.08-3.76.07-7.52,0-11.28,0-1.45,1-.9,1.6-.91s1.64-.5,1.57.94C284.52,38.61,284.58,40.5,284.58,42.37Z" transform="translate(5.138 0.803)" fill="#fff"/><path d="M22.44,17.21c-2.08,0-4.15.11-6.22.05a3.87,3.87,0,0,1-3.79-3.74h6.39C22.45,13.51,22.45,13.51,22.44,17.21Z" transform="translate(0.001 0.268)" fill="#48a8c1"/><path d="M48.15,43c-1.38.33-1.91-.06-1.88-1.62.11-4.69.1-9.39,0-14.08,0-1.53.38-2.12,1.91-1.72Z" transform="translate(0.001 0.803)" fill="#48a8c1"/><path d="M22.74,21.5c-.14.56.41,1.56-.29,1.88s-1.67-.29-2.36-.85a5.37,5.37,0,0,1-.95-1,2.25,2.25,0,0,1-.54-2c.25-.62,1.11-.16,1.69-.27a1.58,1.58,0,0,1,.31,0C23.15,19.21,22.74,19.1,22.74,21.5Z" transform="translate(0.001 0.367)" fill="#48a8c1"/><path d="M22.44,11c0-3.73,0-3.73-3.74-3.73-3.43,0-6.87.06-10.3,0-1.29,0-1.83.35-1.68,1.63-.89-1.83-.83-2,1-2,4.48,0,9,.05,13.45,0,1.25,0,1.74.36,1.53,1.58C22.6,9.29,23.07,10.2,22.44,11Z" transform="translate(0.001 0.041)" fill="#6898aa"/><path d="M12.3,46.14c.81-.13,1.3,0,1.27,1,0,.77-.21,1.17-1.06,1.1-.67-.05-1.36.11-1.33-1C11.21,46.47,11.35,46,12.3,46.14Z" transform="translate(0.001 0.803)" fill="#48a8c1"/><path d="M48.15,43V25.58c.45.2.31.61.31.95V42.07C48.49,42.37,48.61,42.78,48.15,43Z" transform="translate(0.001 0.803)" fill="#6898aa"/><path d="M47.38,47.26c-1,.2-1.1-.35-1.09-1.16s.14-1.15,1-1.13,1.24.2,1.21,1.13S48.34,47.43,47.38,47.26Z" transform="translate(0.001 0.803)" fill="#48a8c1"/><path d="M34.05,45.09c.14.85-.26,1.07-1.06,1.07s-1.18-.16-1.13-1c0-.7.06-1.21,1-1.17S34.21,44.12,34.05,45.09Z" transform="translate(0.001 0.803)" fill="#48a8c1"/><path d="M22.44,17.21c0-3.7,0-3.7-3.62-3.7H12.43c.24-.63.79-.37,1.2-.37H21.4c1.13,0,1.51.41,1.35,1.44S23.09,16.39,22.44,17.21Z" transform="translate(0.001 0.263)" fill="#6898aa"/><path d="M17.45,36.76c.12.88-.17,1.22-1,1.21s-1-.3-1-1,0-1.22.95-1.2S17.64,36,17.45,36.76Z" transform="translate(0.001 0.621)" fill="#48a8c1"/><path d="M48.46,18.58c-.23-.57-.84-.21-1.21-.48,1.45-.25,1.56-.23,1.51,1s.34,2.76-.25,4.1C48.49,21.69,48.48,20.14,48.46,18.58Z" transform="translate(0.001 0.353)" fill="#6898aa"/><path d="M34.07,25.76c.57,1.85.23,3.73.19,5.6h-.11a2.33,2.33,0,0,1-.11-.28Z" transform="translate(0.001 0.491)" fill="#6898aa"/><path d="M26.23,42.07A12,12,0,0,1,32.14,42Z" transform="translate(0.001 0.803)" fill="#6898aa"/></g></g></svg>