<svg xmlns="http://www.w3.org/2000/svg" xmlns:xlink="http://www.w3.org/1999/xlink" width="64.231" height="100" viewBox="0 0 64.231 100"><defs><linearGradient id="a" x1="0.5" x2="0.5" y2="1" gradientUnits="objectBoundingBox"><stop offset="0" stop-color="#2b327a"/><stop offset="0.221" stop-color="#2a437b"/><stop offset="0.657" stop-color="#26707e"/><stop offset="1" stop-color="#239780"/></linearGradient></defs><g transform="translate(-111.479 -31)"><g transform="translate(111.479 31)"><path d="M166.412,358.686a1.618,1.618,0,0,0,.274,1.035,1.143,1.143,0,0,0,.913.3h4.444v-4.262c0-1.644.761-2.466,2.314-2.466h2.922v5.327c0,1.644-.761,2.466-2.314,2.466H167.63c-1.552,0-2.314-.822-2.314-2.466v-2.161l1.1-.7v2.922Zm6.758,1.34H175a1.1,1.1,0,0,0,.913-.3,1.561,1.561,0,0,0,.274-1.035v-4.323h-1.826a1.1,1.1,0,0,0-.913.3,1.561,1.561,0,0,0-.274,1.035Zm.822-9.528a.728.728,0,1,1,.213.518.864.864,0,0,1-.213-.518" transform="translate(-153.352 -278.93)" fill="#9f9fa1"/><path d="M229.151,368.124c0-1.644.761-2.466,2.314-2.466h2.922v8.067a7.887,7.887,0,0,1-.152,1.552,3.089,3.089,0,0,1-.578,1.187,2.685,2.685,0,0,1-1.1.792,4.757,4.757,0,0,1-1.766.365l-.7-.974a4.007,4.007,0,0,0,2.435-.67,2.332,2.332,0,0,0,.792-1.948v-.578h-1.826c-1.552,0-2.314-.822-2.314-2.466v-2.862h-.03Zm1.1,2.922a1.618,1.618,0,0,0,.274,1.035,1.143,1.143,0,0,0,.913.3h1.826v-5.662h-1.826a1.1,1.1,0,0,0-.913.3,1.561,1.561,0,0,0-.274,1.035Z" transform="translate(-203.002 -291.29)" fill="#9f9fa1"/><path d="M262.315,374.3a6.607,6.607,0,0,1-.091,1.157,2.377,2.377,0,0,1-.335.852,2.727,2.727,0,0,1-.639.7,6.144,6.144,0,0,1-1.035.639l-.792-1a5.392,5.392,0,0,0,.852-.457,4.348,4.348,0,0,0,.548-.457,2.019,2.019,0,0,0,.274-.578,3.064,3.064,0,0,0,.091-.822v-8.676h1.1v6.728h.913v1.1h-.913v.822h.031Z" transform="translate(-226.547 -291.289)" fill="#9f9fa1"/><path d="M281.5,372.462a1.906,1.906,0,0,1-1.309.457h-4.049v-1.1H280.7c-.426-.548-.852-1-1.248-1.461a18.213,18.213,0,0,0-1.522-1.431v-.213a4.1,4.1,0,0,1,.274-1.522,3.9,3.9,0,0,1,.731-1.187,3.325,3.325,0,0,1,1.157-.761,3.721,3.721,0,0,1,4.018.761,2.994,2.994,0,0,1,.731,1.187,3.991,3.991,0,0,1,.274,1.522v.213a18.222,18.222,0,0,0-1.522,1.431c-.4.426-.822.913-1.248,1.461h3.866v1.1h-3.349a1.677,1.677,0,0,1-1.37-.457m0-1.309c.244-.335.487-.609.67-.852.213-.244.4-.457.578-.67s.4-.426.578-.609l.639-.639a2.379,2.379,0,0,0-.822-1.613,2.461,2.461,0,0,0-1.674-.609,2.575,2.575,0,0,0-1.674.609,2.512,2.512,0,0,0-.822,1.613l.639.639c.183.183.4.4.578.609s.4.426.578.67c.243.244.456.518.73.852" transform="translate(-239.547 -290.758)" fill="#9f9fa1"/><path d="M322.454,367.774a2.467,2.467,0,0,1,.67-1.887,2.683,2.683,0,0,1,1.948-.639,2.732,2.732,0,0,1,1.948.639,2.466,2.466,0,0,1,.67,1.887v4.84c0,1.674-.883,2.5-2.648,2.5a3.065,3.065,0,0,1-1.735-.457,2.165,2.165,0,0,1-.852-1.492h-1.8v-1.1h1.8Zm1.1,4.84a1.442,1.442,0,0,0,.365,1.1,1.658,1.658,0,0,0,1.126.335,1.692,1.692,0,0,0,1.157-.335,1.4,1.4,0,0,0,.365-1.1v-4.871a1.441,1.441,0,0,0-.365-1.1,1.748,1.748,0,0,0-1.157-.335,1.659,1.659,0,0,0-1.126.335,1.4,1.4,0,0,0-.365,1.1Z" transform="translate(-274.174 -290.97)" fill="#9f9fa1"/><path d="M170.883,434.483l.122-1.4-1.766,5.327a.712.712,0,0,1-.67.487.775.775,0,0,1-.67-.457l-1.7-5.51.122,1.522v7.793h-1V432.2c-.03-1.066,1.4-1.035,1.613-.213.67,2.04,1.035,3.744,1.613,5.784.639-1.918,1.157-3.988,1.735-5.814a.818.818,0,0,1,1.613.213v10.076h-1v-.061h-.03v-7.7h.031Z" transform="translate(-153.349 -342.368)" fill="#9f9fa1"/><path d="M204.523,438.428H201.6c-.518,2.04-.792,3.014-.974,3.805h-1.066l2.588-10.2a1.012,1.012,0,0,1,.913-.761,1.026,1.026,0,0,1,.883.731l2.648,10.228h-1.1Zm-1.4-6.058-1.278,5.053h2.435Zm-.03-.122.03.152a.112.112,0,0,1,.03-.091Z" transform="translate(-179.987 -342.324)" fill="#9f9fa1"/><path d="M236.639,431.822H238.8a2.4,2.4,0,0,1,2.466,2.466v1.644a2.221,2.221,0,0,1-1.674,2.009,2.178,2.178,0,0,1,1.7,2.04v2.709h-1V439.98c0-.852-1-1.522-1.826-1.522h-1.735v4.2h-1V432.7a.872.872,0,0,1,.913-.883m.091,1v-.061c-.03.03-.03.061-.091.061Zm0,0v4.627H238.5a1.75,1.75,0,0,0,1.766-1.492v-1.644a1.461,1.461,0,0,0-1.461-1.461h-2.07Z" transform="translate(-208.116 -342.75)" fill="#9f9fa1"/><path d="M266.548,433.938a2.884,2.884,0,0,1,5.723,0v5.936a2.88,2.88,0,0,1-5.723,0Zm1,5.936a1.887,1.887,0,0,0,3.714,0v-5.936a1.894,1.894,0,0,0-3.714,0Z" transform="translate(-232.088 -342.431)" fill="#9f9fa1"/><path d="M298.74,433.938a2.884,2.884,0,0,1,5.723,0v5.936a2.88,2.88,0,0,1-5.723,0Zm1,5.936a1.887,1.887,0,0,0,3.714,0v-5.936a1.894,1.894,0,0,0-3.714,0Z" transform="translate(-257.126 -342.431)" fill="#9f9fa1"/><path d="M335.786,432.827l-3.744.03V436.6h3.5v1h-3.47v5.053h-1v-9.954a.909.909,0,0,1,.913-.883h3.836v1h-.03Z" transform="translate(-282.27 -342.751)" fill="#9f9fa1"/><path d="M143.595,31A32.284,32.284,0,1,0,175.71,63.268,32.194,32.194,0,0,0,143.595,31M160.49,70.7a16.2,16.2,0,0,1-1.674,3.014,9.065,9.065,0,0,1-.609.883,18.228,18.228,0,0,1-5.388,4.81l-.152.091c-.122.061-.426.183-.852.365a15.593,15.593,0,0,1-1.461.67,18.49,18.49,0,0,1-7.093,1.34h-.183c-.183,0-.548-.091-1.157-.152a15.341,15.341,0,0,1-2.253-.487c-.152-.03-.335-.122-.487-.152a12.922,12.922,0,0,0,1.826-2.892,19.065,19.065,0,0,0,2.344.244c.335,0,.67,0,1.035-.03.335-.03.67-.03.944-.03a16.312,16.312,0,0,0,3.683-.913v-.03a14,14,0,0,0,1.948-.913,2.78,2.78,0,0,0,.4-.244c.213-.152.457-.274.639-.426a4.957,4.957,0,0,1,.518-.335,14.772,14.772,0,0,0,2.192-1.948l.061-.061c.091-.122.183-.213.274-.335a12.2,12.2,0,0,0,1.37-1.918,16.284,16.284,0,0,0,1.918-4.932,14.072,14.072,0,0,0,.091-5.3,15.266,15.266,0,0,0-1.8-5.145,15.944,15.944,0,0,0-4.018-4.505,14.38,14.38,0,0,0-5.175-2.527,15.618,15.618,0,0,0-5.206-.457c-.122.03-.274.03-.4.061a14.513,14.513,0,0,0-5.145,1.613,15.472,15.472,0,0,0-4.2,3.227,15.956,15.956,0,0,0-2.862,4.414.433.433,0,0,0-.061.183c0,.03-.03.061-.03.091a16.855,16.855,0,0,0-.731,2.5,15.958,15.958,0,0,0-.152,5.388,14.014,14.014,0,0,0,1.826,5.206l.03.061a1.493,1.493,0,0,1-.578,2.253,1.544,1.544,0,0,1-1.309.183,1.829,1.829,0,0,1-1.066-.852,18.387,18.387,0,0,1-2.314-6.91,18.418,18.418,0,0,1,1.461-9.772,19.914,19.914,0,0,1,1.979-3.409c.061-.091.122-.152.183-.244a16.945,16.945,0,0,1,5.449-4.81,17.909,17.909,0,0,1,12.359-2.222,17.678,17.678,0,0,1,7.854,3.318,1.289,1.289,0,0,0,.213.152,17.2,17.2,0,0,1,3.744,3.836,18.621,18.621,0,0,1,2.253,4.018,17.416,17.416,0,0,1,1.278,7.062A19.337,19.337,0,0,1,160.49,70.7m-20.061-7.4a3.136,3.136,0,1,1,3.136,3.136,3.131,3.131,0,0,1-3.136-3.136" transform="translate(-111.479 -31)" fill="#9f9fa1"/></g><path d="M150.267,77.4a4.461,4.461,0,0,1-2.953-2.314,4.76,4.76,0,0,1-.578-3.288,4.708,4.708,0,0,1,1.735-2.862l.244-.152.365-.213a4.825,4.825,0,0,1,3.684-.518,4.712,4.712,0,0,1,2.983,2.192l.061.122a5,5,0,0,1,.457,3.348,5.131,5.131,0,0,1-1.552,2.648,3.532,3.532,0,0,1-.731.609l-.122.061a4.919,4.919,0,0,1-2.253.548,5.07,5.07,0,0,1-1.34-.183m-2.5-34.277A29.712,29.712,0,0,0,136.782,46.9a30.244,30.244,0,0,0-8.858,7.763,31.706,31.706,0,0,0-5.084,10.32,29.926,29.926,0,0,0-.852,11.416,29.47,29.47,0,0,0,3.683,11.2,10.9,10.9,0,0,0,3.257,3.5,12.886,12.886,0,0,0,4.353,1.887,14.323,14.323,0,0,0,4.84.183,12.045,12.045,0,0,0,4.6-1.613l.822-.487a2.964,2.964,0,0,0,.457-.335l.091-.061a12.6,12.6,0,0,0,3.288-3.927l.639-1.218,1.339.244a13.088,13.088,0,0,0,8.767-1.552,4.36,4.36,0,0,0,.67-.457q.457-.32.822-.548a12.873,12.873,0,0,0,3.105-3.47,13.657,13.657,0,0,0,1.7-4.353,13.273,13.273,0,0,0,.122-4.658,13.836,13.836,0,0,0-1.553-4.536,13.661,13.661,0,0,0-3.5-3.957,12.477,12.477,0,0,0-4.505-2.222,14.119,14.119,0,0,0-5.084-.365,12.225,12.225,0,0,0-4.962,1.7l-.822.487a4.051,4.051,0,0,0-.578.426l-.061.03a12.833,12.833,0,0,0-3.166,3.5,13.068,13.068,0,0,0-1.7,4.292,13.6,13.6,0,0,0-.122,4.718,11.95,11.95,0,0,0,1.583,4.475l.122.244a3.406,3.406,0,0,1-1.4,4.658,3.454,3.454,0,0,1-2.831.365,3.683,3.683,0,0,1-2.131-1.7,20.042,20.042,0,0,1-1.918-15.4,21.459,21.459,0,0,1,3.44-6.941,19.15,19.15,0,0,1,6.058-5.3A19.929,19.929,0,0,1,156.751,53.2a20.492,20.492,0,0,1,7.123,3.5,18.986,18.986,0,0,1,5.206,6,21.2,21.2,0,0,1,2.557,7.519A19.443,19.443,0,0,1,171,78.136a24.529,24.529,0,0,1-3.44,7.062c-3.318,4.9-4.718,7.732-16.195,17.23,0,0,3.257-.152,4.658-.4a40.648,40.648,0,0,0,5.145-1.187c1.461-.548,2.648-.974,3.5-1.4,1.187-.578,1.583-.792,1.735-.883a32.953,32.953,0,0,0,3.2-2.192,28.811,28.811,0,0,0,10.654-15.8A29.34,29.34,0,0,0,181.1,69a31.6,31.6,0,0,0-3.714-11.081,27.8,27.8,0,0,0-7.58-8.767,32.163,32.163,0,0,0-10.472-5.206,29.055,29.055,0,0,0-7.791-1.076,28.1,28.1,0,0,0-3.777.253" transform="translate(-8.012 -9.236)" fill="url(#a)"/></g></svg>