<svg xmlns="http://www.w3.org/2000/svg" width="16.242" height="16.937" viewBox="0 0 16.242 16.937">
  <g id="offers" transform="translate(0.503 0.5)">
    <path id="Path_797" data-name="Path 797" d="M22.086,11.145l.345,1.035a1.528,1.528,0,0,0,.59.807l.873.586a1.542,1.542,0,0,1,.573,1.852l-.345.838a1.538,1.538,0,0,0,0,1.155l.345.817a1.542,1.542,0,0,1-.531,1.835l-.776.555a1.531,1.531,0,0,0-.586.831l-.279.979a1.538,1.538,0,0,1-1.611,1.114l-.838-.069a1.521,1.521,0,0,0-1.1.345l-.807.652a1.542,1.542,0,0,1-1.949,0l-.69-.566a1.535,1.535,0,0,0-.979-.345H13.112a1.535,1.535,0,0,1-1.5-1.193l-.221-.938a1.531,1.531,0,0,0-.635-.928l-.742-.545a1.535,1.535,0,0,1-.583-1.783l.345-.945a1.531,1.531,0,0,0,0-1.066l-.31-.828a1.538,1.538,0,0,1,.6-1.835l.817-.528a1.545,1.545,0,0,0,.648-.879l.241-.869a1.542,1.542,0,0,1,1.618-1.121l.773.066a1.545,1.545,0,0,0,1.1-.345L16,9.238a1.545,1.545,0,0,1,1.956,0l.642.538a1.528,1.528,0,0,0,1.1.345l.811-.059a1.542,1.542,0,0,1,1.573,1.083Z" transform="translate(-9.343 -8.889)" fill="none" stroke="#dc2140" stroke-width="1"/>
    <path id="Path_798" data-name="Path 798" d="M22.883,22.911a1.3,1.3,0,1,0-1.3-1.3A1.3,1.3,0,0,0,22.883,22.911Zm3.966,5.463a1.3,1.3,0,1,0-1.3-1.3A1.3,1.3,0,0,0,26.849,28.374Zm1.3-7.415L21.3,27.811" transform="translate(-17.176 -16.371)" fill="none" stroke="#dc2140" stroke-linecap="round" stroke-linejoin="round" stroke-width="1"/>
  </g>
</svg>
