<svg id="saudi" xmlns="http://www.w3.org/2000/svg" xmlns:xlink="http://www.w3.org/1999/xlink" width="20" height="14" viewBox="0 0 20 14">
  <defs>
    <clipPath id="clip-path">
      <path id="Path_23" data-name="Path 23" d="M-80,0h20V14H-80Z" fill="rgba(0,0,0,0.67)"/>
    </clipPath>
  </defs>
  <g id="saudi-2" data-name="saudi" transform="translate(80)" clip-path="url(#clip-path)">
    <path id="Path_6" data-name="Path 6" d="M-120,0h21.66V14.44H-120Z" transform="translate(38.797)" fill="#199d00" fill-rule="evenodd"/>
    <path id="Path_7" data-name="Path 7" d="M60.954,119.018c-.025.337-.055.931.232.992.347.033.156-.587.281-.7.024-.056.067-.056.071.014v.526a.252.252,0,0,0,.2.257c.091-.007.152,0,.187.084l.043.91s.211.06.221-.512a5.345,5.345,0,0,1-.022-.682c0-.064.084-.068.14-.037.091.064.131.143.272.111.214-.059.343-.163.346-.328a1.426,1.426,0,0,0-.1-.469c.009-.028-.041-.1-.032-.131.039.06.1.055.11,0a.469.469,0,0,0-.185-.285c-.076-.067-.187-.053-.227.086a.759.759,0,0,0,.175.507.5.5,0,0,1,.044.253.136.136,0,0,1-.177-.034s-.171-.128-.171-.156a.612.612,0,0,0-.015-.4.546.546,0,0,0-.113-.222c-.043-.045-.1-.045-.128,0a.765.765,0,0,0,.014.537c.039.116.1.188.071.188-.023.065-.072.05-.107-.025a1.877,1.877,0,0,1-.06-.493c-.015-.13-.032-.407-.117-.477-.052-.071-.129-.036-.156.028a2.324,2.324,0,0,0,.008.376,4.114,4.114,0,0,1,.105.6c.008.286-.165.124-.157-.018a1.287,1.287,0,0,0-.006-.547c-.028-.073-.061-.091-.13-.079-.054,0-.194.149-.233.4a2.287,2.287,0,0,0-.048.246c-.019.131-.105.223-.166-.018-.052-.175-.084-.607-.171-.506Z" transform="translate(-136.699 -114.925)" fill="#fff" fill-rule="evenodd"/>
    <path id="Path_8" data-name="Path 8" d="M63.653,177.377c-.306.15-.6.289-.9.434a.918.918,0,0,1,.714-.579c.186.005.139.072.188.146Z" transform="translate(-138.456 -171.9)" fill="#fff" fill-rule="evenodd"/>
    <path id="Path_9" data-name="Path 9" d="M77.615,120.754c-.476,1.226,1.114,1.4,1.292.05.017-.055.084-.111.1-.02-.037,1.22-1.23,1.3-1.433.92a1.181,1.181,0,0,1-.07-.412c-.03-.24-.156-.147-.176.09a1.484,1.484,0,0,0-.015.3c.064.963,1.6.55,1.85-.246.132-.441-.022-.766.05-.764.152.164.365.022.412-.035a.069.069,0,0,1,.106-.01.247.247,0,0,0,.372-.106,3.347,3.347,0,0,0,.05-.457c-.1.03-.169.05-.176.09l-.02.131c-.008.042-.092.044-.1-.01-.037-.168-.189-.189-.281.07-.062.05-.174.06-.186-.015.015-.174-.055-.2-.2-.116-.045-.345-.09-.675-.136-1.02.059,0,.112.042.166-.025a1.859,1.859,0,0,0-.251-.583c-.034-.04-.062-.015-.106-.005a.172.172,0,0,0-.121.211c.087.529.144.933.231,1.463.013.062-.039.144-.106.136-.114-.077-.142-.233-.337-.226a.378.378,0,0,0-.322.3.735.735,0,0,0,0,.347.283.283,0,0,0,.322.08c.085-.035.156-.121.186-.1s0,.307-.4.523c-.246.111-.442.136-.548-.065-.065-.126.005-.6-.156-.493Z" transform="translate(-152.576 -114.994)" fill="#fff" fill-rule="evenodd"/>
    <path id="Path_10" data-name="Path 10" d="M61.739,116.1a4.664,4.664,0,0,0,.548-.553l-.068-.055a.039.039,0,0,1,0-.065.179.179,0,0,0,.018-.274.273.273,0,0,0-.244,0,.2.2,0,0,0-.035.271c.06.028.121.09.08.123-.185.2-.692.539-.633.55A1.146,1.146,0,0,0,61.739,116.1Zm-2.732,1.832a.9.9,0,0,0-.091.795.2.2,0,0,0,.192.064.353.353,0,0,0,.128-.341c-.036-.056-.064-.064-.1-.017-.075.152-.106.048-.113-.037a1.959,1.959,0,0,1,.021-.428C59.064,117.846,59.045,117.883,59.007,117.931Zm7.25-.433c-.164-.353-.391-.7-.463-.836s-.618-.926-.7-1.015c-.177-.211.288.088-.059-.33-.132-.113-.14-.12-.25-.213-.055-.039-.19-.111-.214.008a.684.684,0,0,0,.012.249.884.884,0,0,0,.14.212,15.823,15.823,0,0,1,1.518,2.44c.075-.036.058-.456.015-.515Z" transform="translate(-134.681 -111.586)" fill="#fff" fill-rule="evenodd"/>
    <path id="Path_11" data-name="Path 11" d="M280.686,121.227c-.032.036.08.191.225.191a.856.856,0,0,0,.656-.524.934.934,0,0,0,.149-.4,8.792,8.792,0,0,0-.163-2.04.337.337,0,0,1,.007-.142c.016-.019.069,0,.1-.046s-.11-.394-.2-.529c-.031-.06-.041-.1-.092.007a.762.762,0,0,0-.085.384c.116.8.152,1.506.227,2.309a.318.318,0,0,1-.057.236A2.263,2.263,0,0,1,280.686,121.227Zm3.285,0c-.175.1-.175.217-.034.221a.869.869,0,0,0,.729-.348,1.157,1.157,0,0,0,.119-.45,8.715,8.715,0,0,0-.133-2.014,1.1,1.1,0,0,1-.024-.207c.016-.04.1,0,.123-.042s-.205-.36-.292-.495c-.031-.06-.041-.1-.092.007a.628.628,0,0,0-.051.384,18.192,18.192,0,0,1,.245,2.3.81.81,0,0,1-.048.205,1.642,1.642,0,0,1-.24.279c-.079.059-.248.115-.3.159Z" transform="translate(-349.829 -114.133)" fill="#fff" fill-rule="evenodd"/>
    <path id="Path_12" data-name="Path 12" d="M270.492,121.315c0-.2,0-.38,0-.532a.954.954,0,0,0-.086-.384,1.381,1.381,0,0,1-.042-.332c-.023-.123-.018-.308-.053-.454a1.569,1.569,0,0,1-.03-.258c.014-.041.069,0,.1-.046a1.639,1.639,0,0,0-.23-.64c-.033-.059-.092-.039-.165.058-.068.064-.043.209-.017.346a11.606,11.606,0,0,1,.276,2.6C270.227,121.748,270.493,121.454,270.492,121.315Zm-1.289-1.13c-.11,0-.34-.214-.407-.338a.228.228,0,0,1,.013-.181c.041-.026.1-.056.15-.028,0,0,.048.068.039.076.06.029.085.012.091-.012,0-.043-.018-.068-.018-.115a.127.127,0,0,1,.226-.066.481.481,0,0,1,.061.226c0,.036-.059-.006-.093,0s-.042.047-.044.082c-.006.092-.017.241-.019.353Zm-2.026,1.356a8.323,8.323,0,0,0-.014-.934c-.011-.386-.074-1.133-.1-1.257-.034-.235.1.026.079-.111a1.5,1.5,0,0,0-.326-.609c-.049-.07-.048-.084-.124.017a.711.711,0,0,0,.01.472,8.8,8.8,0,0,1,.2,1.373,11.1,11.1,0,0,1,.012,1.383c.083,0,.216-.134.262-.334Z" transform="translate(-336.219 -115.007)" fill="#fff" fill-rule="evenodd"/>
    <path id="Path_13" data-name="Path 13" d="M347.582,123.594c-.194-.325-.486-.676-.564-.807s-.738-.982-.822-1.068c-.241-.254.111-.041-.046-.237a1.873,1.873,0,0,0-.285-.279c-.057-.037-.091-.107-.11.013a2.358,2.358,0,0,0-.008.316.425.425,0,0,0,.1.2,16.249,16.249,0,0,1,1.738,2.377C347.652,124.066,347.628,123.652,347.582,123.594Z" transform="translate(-412.936 -117.504)" fill="#fff" fill-rule="evenodd"/>
    <path id="Path_14" data-name="Path 14" d="M113.747,181.537c-.014.024-.045.056-.035.089a.081.081,0,0,0,.075.037c.031,0,.075.007.085-.011a.093.093,0,0,0,.016-.093A.083.083,0,0,0,113.747,181.537Z" transform="translate(-187.882 -176.046)" fill="#1ba400" fill-rule="evenodd"/>
    <path id="Path_15" data-name="Path 15" d="M114.954,120.354c.259.01.428.012.658.039,0,0,.2-.02.269-.03.3-.029.313.428.313.428,0,.268-.107.282-.239.31-.075.01-.115-.045-.155-.1a.391.391,0,0,1-.2.012c-.108-.007-.216-.006-.324-.013s-.176.012-.29,0c-.024.037-.054.088-.124.072s-.127-.17-.107-.295c.042-.089.031-.061.026-.1-1.058-.027-2.127-.074-3.165-.061-.812,0-1.614.037-2.417.071a1.066,1.066,0,0,1-.981-.4c.02,0,1.092.061,1.405.04.58-.007,1.109-.054,1.7-.071,1.163.02,2.316.02,3.478.1a.162.162,0,0,1,.056-.3c.015-.01.022.089.048.088.137-.01.077.175.047.214Zm-4.668-6.409c-.176.5.1,1.055.293,1,.139.057.227-.206.284-.5.039-.081.068-.09.088-.048-.005.384.028.469.126.586a.319.319,0,0,0,.417.007l.172-.172a.1.1,0,0,1,.143-.007c.052.048.045.13.157.187a.348.348,0,0,0,.343-.073c.063-.108.078-.145.107-.186.045-.06.122-.033.122-.014s-.052.067-.021.127c.053.04.066.014.1.005.112-.053.2-.3.2-.3,0-.09-.046-.083-.079-.064s-.046.035-.089.061c-.055.008-.161.044-.213-.037a3.229,3.229,0,0,1-.1-.332c0-.007-.071-.155,0-.165.033.006.1.025.116-.035.035-.058-.075-.224-.15-.307a.163.163,0,0,0-.243-.007c-.061.056-.052.119-.064.179a.278.278,0,0,0,.057.243.743.743,0,0,1,.136.493.2.2,0,0,1-.178.09c-.047-.01-.124-.03-.165-.333-.031-.229.007-.549-.09-.7-.035-.091-.061-.178-.146-.023a.36.36,0,0,0-.05.343.516.516,0,0,1-.047.679.169.169,0,0,1-.218.03.233.233,0,0,1-.13-.183,2.5,2.5,0,0,0-.02-.59.107.107,0,0,0-.179-.036,1.347,1.347,0,0,0-.324.665c-.05.162-.1.115-.141.05-.091-.085-.1-.753-.207-.643Z" transform="translate(-182.559 -110.129)" fill="#fff" fill-rule="evenodd"/>
    <path id="Path_16" data-name="Path 16" d="M104.694,118.916c.08-.057.043-.1.162.023a2.032,2.032,0,0,1,.261.882c-.006.072.045.118.068.1.014-.17.427-.407.806-.442.058-.013.03-.124.039-.18a.346.346,0,1,1,.679-.015c-.029.421-.467.492-.714.526-.038.014-.054.032,0,.052l1.032,0,.053.03c.006.025-.015,0-.056.071a.835.835,0,0,0-.1.325,5.054,5.054,0,0,1-.949.181c-.112.057-.168.132-.145.218s.287.189.287.193c.047.03.1.1-.013.24a1.136,1.136,0,0,1-1.029-.539c-.041-.032-.085,0-.113.041a1.592,1.592,0,0,1-.725.6.49.49,0,0,1-.5-.162c-.065-.074-.062-.157-.086-.175-.108.048-1.037.443-.92.259a6.463,6.463,0,0,1,.964-.659c.025-.08.07-.351.207-.439.008,0-.022.159-.019.226s0,.076.008.062a2.5,2.5,0,0,0,.475-.446c.041-.058.012-.2.012-.209-.079-.2-.189-.22-.23-.321-.037-.134-.02-.287.056-.329a.153.153,0,0,1,.223.013.687.687,0,0,1,.182.335c-.015.044-.111-.029-.144-.007a.448.448,0,0,1,.108.218.67.67,0,0,1-.017.471,1.483,1.483,0,0,1-.633.654.159.159,0,0,0,.069.152.319.319,0,0,0,.263,0,1.538,1.538,0,0,0,.63-.659,1.437,1.437,0,0,0-.069-.624c-.082-.189-.178-.459-.178-.463,0-.118.006-.159.058-.217Zm-2.7-1.089c.119.057.342.033.333-.159,0-.017,0-.074-.006-.09-.024-.056-.09-.043-.105.016,0,.019.008.05-.009.06s-.048,0-.046-.049a.09.09,0,0,0-.02-.046.039.039,0,0,0-.026-.006c-.017,0-.016,0-.025.019a.163.163,0,0,0-.009.044c0,.019-.009.026-.023.028s-.012,0-.025-.006-.017-.011-.017-.025a.151.151,0,0,0-.008-.047.05.05,0,0,0-.029-.016c-.065,0-.069.074-.066.1C101.906,117.657,101.9,117.79,101.992,117.826Z" transform="translate(-176.437 -114.006)" fill="#fff" fill-rule="evenodd"/>
    <path id="Path_17" data-name="Path 17" d="M217.745,120.368c.119.057.4.024.333-.159,0-.017,0-.074-.006-.09-.024-.056-.09-.042-.105.016,0,.019.008.05-.009.06s-.048,0-.046-.049a.09.09,0,0,0-.02-.046.039.039,0,0,0-.026-.006c-.017,0-.016,0-.025.019a.162.162,0,0,0-.009.044c0,.019-.009.026-.023.028s-.012,0-.025-.006-.017-.011-.017-.025a.151.151,0,0,0-.008-.047.05.05,0,0,0-.029-.016c-.065,0-.069.074-.066.1C217.66,120.2,217.657,120.331,217.745,120.368Zm2.031-.61c.119.057.342.033.333-.159,0-.017,0-.074-.006-.09-.024-.056-.09-.043-.105.016,0,.019.008.05-.009.06s-.048,0-.046-.049a.09.09,0,0,0-.02-.046.039.039,0,0,0-.026-.006c-.017,0-.016,0-.025.019a.163.163,0,0,0-.009.044c0,.019-.009.026-.023.028s-.012,0-.025-.006-.017-.011-.017-.025a.151.151,0,0,0-.008-.047.05.05,0,0,0-.029-.016c-.065,0-.069.074-.066.1C219.69,119.588,219.687,119.721,219.776,119.758Zm1.052,1.532a.722.722,0,0,0-.069.7.551.551,0,0,0,.256.292.18.18,0,0,0,.267-.029c.122-.126.123-.448.18-.512a.107.107,0,0,1,.19-.045.465.465,0,0,0,.173.149.291.291,0,0,0,.383.027.443.443,0,0,0,.2-.249,7.733,7.733,0,0,0,.014-1.327c0-.034-.118-.6-.118-.6s-.015-.288-.027-.355c0-.027-.009-.035.02-.032a.165.165,0,0,0,.053.035c.031.006.058-.046.039-.094l-.283-.523c-.023-.022-.052-.047-.088.006a.205.205,0,0,0-.07.155c.008.124.03.25.039.374l.113.636c.036.453.045.824.08,1.278,0,.192-.065.359-.121.383,0,0-.085.049-.142-.005a1.714,1.714,0,0,1-.208-.277.126.126,0,0,0-.2,0,2.788,2.788,0,0,0-.356.67c-.029.046-.112.086-.2,0A.943.943,0,0,1,220.828,121.29Zm-1-2.644a.392.392,0,0,1,.157.365c-.021.13-.078.271-.118.253s.03-.129-.012-.248c-.024-.077-.169-.218-.153-.26C219.672,118.669,219.764,118.631,219.829,118.646Z" transform="translate(-288.708 -115.073)" fill="#fff" fill-rule="evenodd"/>
    <path id="Path_18" data-name="Path 18" d="M156.689,122.155a3.2,3.2,0,0,0-.022-.569c-.007-.152-.172-1.313-.206-1.428-.04-.218.161-.029.139-.156-.07-.16-.243-.392-.3-.531-.033-.059-.019-.112-.092-.016a1.19,1.19,0,0,0-.066.542,11.159,11.159,0,0,1,.325,2.535c.083,0,.178-.189.219-.377Zm1.818-2.405c.1.048.154.318.143.4-.019.141-.071.293-.108.273s.008-.209-.011-.269c-.021-.084-.154-.236-.14-.281a.092.092,0,0,1,.116-.119Zm-7.211,1.916c.093.035.147.234.137.291-.018.1-.068.215-.1.2s.008-.154-.011-.2c-.008-.106-.137-.161-.134-.207-.024-.084.054-.1.111-.087Z" transform="translate(-224.227 -115.81)" fill="#fff" fill-rule="evenodd"/>
    <path id="Path_19" data-name="Path 19" d="M211.779,202.966c.12.008.18.1.067.141s-.217.067-.218.227c.041.223-.056.146-.114.116a.583.583,0,0,1-.287-.422.108.108,0,0,1,.12-.112,3.206,3.206,0,0,0,.432.049Z" transform="translate(-282.466 -196.813)" fill="#1b9d00" fill-rule="evenodd"/>
    <path id="Path_20" data-name="Path 20" d="M68.878,113.481c.137.041.145.243.135.3-.018.107-.067.223-.1.208s0-.159-.02-.2c-.02-.064-.136-.18-.123-.214C68.743,113.5,68.822,113.468,68.878,113.481Zm2.7.949a.246.246,0,0,0-.08.325.158.158,0,0,0,.17.055c.1.013.164-.193.164-.193s0-.058-.119.051c-.051.01-.058-.01-.071-.039a.254.254,0,0,1,.016-.161C71.681,114.417,71.641,114.394,71.582,114.43Zm.788-1.027a.382.382,0,0,0-.161.27c0,.071-.016.071.03.116s.067.044.135.009a.144.144,0,0,0,.065-.1c.016-.08-.085.038-.1-.051s.042-.117.1-.2C72.446,113.4,72.445,113.359,72.37,113.4Zm.635.113a1.661,1.661,0,0,0-.045.313c-.018.078.082.112.127.011a.953.953,0,0,0,.073-.341C73.138,113.38,73.058,113.384,73,113.516Zm4,2.037c.014-.014.564-.4.564-.4.056-.02.044.2.018.2a2.189,2.189,0,0,1-.582.4c-.027.02-.055-.152,0-.2Zm.5,0c.1.048.136.332.125.409,0,.15-.093.27-.131.251s0-.186-.016-.246c-.021-.084-.1-.241-.09-.286A.1.1,0,0,1,77.509,115.549Zm-3.273,1.222a.723.723,0,0,1,.159-.136.1.1,0,0,1,.1.018c.009.055-.035.105-.021.178.012.029.021.062.074.049a.4.4,0,0,1,.256-.078c.067,0,.07.117.027.118a1.916,1.916,0,0,0-.349.122.081.081,0,0,1-.1-.013.106.106,0,0,1-.01-.1c0-.058-.019-.09-.068-.083s-.068.033-.087-.009S74.212,116.789,74.236,116.772Zm3.852.153a.071.071,0,0,1,0,.107c-.039.035-.066.055-.1.09-.018.031-.03.078.026.093.1.029.341-.125.341-.129a.075.075,0,0,0,.023-.084c-.023-.026-.073-.01-.107-.015-.016,0-.07-.008-.044-.055a.322.322,0,0,0,.043-.083c.016-.035,0-.059-.056-.078a.456.456,0,0,0-.148,0c-.035.008-.047.023-.054.066C78.008,116.9,78.047,116.9,78.088,116.924Z" transform="translate(-144.288 -109.973)" fill="#fff" fill-rule="evenodd"/>
    <path id="Path_21" data-name="Path 21" d="M167.387,124.626c-.015.026-.066.025-.114,0s-.074-.071-.059-.1.066-.025.114,0S167.4,124.6,167.387,124.626Zm-2.512-1.512a.085.085,0,0,1-.083-.057c-.018-.038-.008-.075.02-.082a.085.085,0,0,1,.083.057C164.913,123.07,164.9,123.107,164.875,123.114Z" transform="translate(-237.419 -119.274)" fill="#259f00" fill-rule="evenodd"/>
    <path id="Path_22" data-name="Path 22" d="M331.944,351.534c.264.013.512,0,.775.016.048.041.014.14-.018.133l-.221-.006c0-.084-.217-.07-.211,0a2.07,2.07,0,0,1-.336-.008c-.034-.043-.03-.119.011-.137Z" transform="translate(-399.518 -340.959)" fill="#209000" fill-rule="evenodd"/>
  </g>
</svg>
