<svg xmlns="http://www.w3.org/2000/svg" width="18" height="18" viewBox="0 0 18 18">
  <g id="telephone" transform="translate(0 0)">
    <g id="Group_330" data-name="Group 330" transform="translate(12.689 10.596)">
      <g id="Group_329" data-name="Group 329">
        <path id="Path_562" data-name="Path 562" d="M365.765,304.078l-2.237-2.238a1.621,1.621,0,0,0-2.238,0l-.373.373,4.475,4.475.373-.373A1.581,1.581,0,0,0,365.765,304.078Z" transform="translate(-360.917 -301.393)" fill="#fff"/>
      </g>
    </g>
    <g id="Group_332" data-name="Group 332" transform="translate(0 1.597)">
      <g id="Group_331" data-name="Group 331">
        <path id="Path_563" data-name="Path 563" d="M11.922,55.987a1.187,1.187,0,0,1-1.572-.081L5.927,51.48a1.187,1.187,0,0,1-.081-1.573L1.381,45.443a5.694,5.694,0,0,0,.274,7.732l7,7a5.661,5.661,0,0,0,7.732.274Z" transform="translate(0 -45.443)" fill="#fff"/>
      </g>
    </g>
    <g id="Group_334" data-name="Group 334" transform="translate(2.096 0)">
      <g id="Group_333" data-name="Group 333">
        <path id="Path_564" data-name="Path 564" d="M64.46,2.685,62.223.448a1.621,1.621,0,0,0-2.238,0l-.373.373L64.087,5.3l.373-.373A1.581,1.581,0,0,0,64.46,2.685Z" transform="translate(-59.612 0)" fill="#fff"/>
      </g>
    </g>
  </g>
</svg>
