<svg xmlns="http://www.w3.org/2000/svg" width="61.5" height="61.347" viewBox="0 0 61.5 61.347">
  <g id="wallet" transform="translate(0.5 0.275)">
    <circle id="Ellipse_53" data-name="Ellipse 53" cx="0.427" cy="0.427" r="0.427" transform="translate(60.147 26.021)" fill="#231f20"/>
    <circle id="Ellipse_54" data-name="Ellipse 54" cx="0.427" cy="0.427" r="0.427" transform="translate(54.28 36.898)" fill="#231f20"/>
    <circle id="Ellipse_55" data-name="Ellipse 55" cx="1.6" cy="1.6" r="1.6" transform="translate(1.708 10.984)" fill="none" stroke="#fbd108" stroke-linecap="round" stroke-linejoin="round" stroke-width="0.5"/>
    <path id="Path_860" data-name="Path 860" d="M44.5,4.886h2.559m-1.28,1.28V3.5" transform="translate(-0.668 -3.5)" fill="none" stroke="#f16723" stroke-linecap="round" stroke-linejoin="round" stroke-width="0.55"/>
    <circle id="Ellipse_56" data-name="Ellipse 56" cx="0.533" cy="0.533" r="0.533" transform="translate(6.294 0.746)" fill="#231f20"/>
    <path id="Path_861" data-name="Path 861" d="M52.2,21.18h2.666m-1.386,1.28V19.9" transform="translate(-0.158 -2.411)" fill="none" stroke="#44cab4" stroke-linecap="round" stroke-linejoin="round" stroke-width="0.55"/>
    <path id="Path_862" data-name="Path 862" d="M44.457,55.879,5.213,61.211a1.627,1.627,0,0,1-1.813-1.6V27.938a1.615,1.615,0,0,1,1.386-1.6L44.457,20.9a7.024,7.024,0,0,1,6.718,7.252V48.52c0,4.052-2.986,7.358-6.718,7.358Z" transform="translate(-3.4 -2.344)" fill="#e39c0f"/>
    <path id="Path_863" data-name="Path 863" d="M3.4,27.938a1.615,1.615,0,0,1,1.386-1.6L44.457,20.9a7.024,7.024,0,0,1,6.718,7.252V48.52a6.956,6.956,0,0,1-6.718,7.252L5.213,61.1A1.627,1.627,0,0,1,3.4,59.5" transform="translate(-3.4 -2.344)" fill="none" stroke="#231f20" stroke-linecap="round" stroke-linejoin="round" stroke-width="1"/>
    <path id="Path_864" data-name="Path 864" d="M0,0H21.222V29.433H0Z" transform="matrix(0.833, 0.554, -0.554, 0.833, 29.118, 2.423)" fill="#fafdff"/>
    <path id="Path_865" data-name="Path 865" d="M33.07,41.932l-15.57-9.7L33.71,7.7,49.066,17.831Z" transform="translate(-2.461 -3.22)" fill="#44cab4"/>
    <path id="Path_866" data-name="Path 866" d="M32.346,41.467,28.4,38.481,44.29,14.7l4.052,2.666Z" transform="translate(-1.739 -2.756)" fill="#27b19b"/>
    <path id="Path_867" data-name="Path 867" d="M47.493,20.517,33.2,42.058,15.5,30.221,31.71,5.8l17.7,11.731-.533.853" transform="translate(-2.594 -3.347)" fill="none" stroke="#231f20" stroke-linecap="round" stroke-linejoin="round" stroke-width="1"/>
    <path id="Path_868" data-name="Path 868" d="M0,0H21.222V29.433H0Z" transform="translate(13.47 2.981) rotate(13.993)" fill="#fafdff"/>
    <path id="Path_869" data-name="Path 869" d="M29.816,39.926,11.9,35.98,19.045,7.4l17.809,4.479Z" transform="translate(-2.836 -3.241)" fill="#44cab4"/>
    <path id="Path_870" data-name="Path 870" d="M28.986,39.72,24.4,38.227,31.225,10.5l4.8,1.173Z" transform="translate(-2.005 -3.036)" fill="#27b19b"/>
    <path id="Path_871" data-name="Path 871" d="M33.714,24.856,29.982,40,9.4,34.88l4.906-19.622m.746-2.986L16.438,6.3l20.689,5.119L34.354,22.4" transform="translate(-3.001 -3.314)" fill="none" stroke="#231f20" stroke-linecap="round" stroke-linejoin="round" stroke-width="1"/>
    <path id="Path_872" data-name="Path 872" d="M47.863,61.279H7.339A3.823,3.823,0,0,1,3.5,57.439v-27.3A3.823,3.823,0,0,1,7.339,26.3H47.97a7.419,7.419,0,0,1,7.465,7.465V53.92A7.559,7.559,0,0,1,47.863,61.279Z" transform="translate(-3.393 -1.986)" fill="#e39c0f"/>
    <path id="Path_874" data-name="Path 874" d="M6.706,60.852H4.68a1.3,1.3,0,0,1-1.28-1.28V27.58A1.3,1.3,0,0,1,4.68,26.3H6.706Z" transform="translate(-3.4 -1.986)" fill="#fafdff"/>
    <path id="Path_875" data-name="Path 875" d="M3.4,39.417V27.9A1.64,1.64,0,0,1,5,26.3H47.976a7.259,7.259,0,0,1,7.252,7.252V53.92a7.259,7.259,0,0,1-7.252,7.252H26.221M3.4,48.268v-6.4M23.342,61.279H5.106a1.64,1.64,0,0,1-1.6-1.6V50.828" transform="translate(-3.4 -1.986)" fill="none" stroke="#231f20" stroke-linecap="round" stroke-linejoin="round" stroke-width="1"/>
    <path id="Path_876" data-name="Path 876" d="M12.986,29.4A4.552,4.552,0,0,0,8.4,33.986m0,2.346V37.4m0,13.97v6.079" transform="translate(-3.07 -1.779)" fill="none" stroke="#fff" stroke-linecap="round" stroke-width="1.5"/>
    <ellipse id="Ellipse_57" data-name="Ellipse 57" cx="7.572" cy="2.559" rx="7.572" ry="2.559" transform="matrix(0.763, -0.646, 0.646, 0.763, 28.471, 54.676)" fill="#fbd108" stroke="#707070" stroke-width="1"/>
    <path id="Path_877" data-name="Path 877" d="M31.7,57.2c.96,1.066,4.266-.213,7.465-2.879s5.012-5.759,4.052-6.825l2.773,3.306c.96,1.066-.853,4.159-4.052,6.825s-6.505,3.946-7.465,2.879L31.7,57.2Z" transform="translate(-1.52 -0.578)" fill="#fbd108"/>
    <path id="Path_878" data-name="Path 878" d="M38.152,59.479l-.213.107a2.839,2.839,0,0,1-3.946-.32L32.5,57.453v-.107l3.2-.746Z" transform="translate(-1.466 0.027)" fill="#fafdff"/>
    <path id="Path_879" data-name="Path 879" d="M43.846,55.132l.853-1.173a2.744,2.744,0,0,0,.32-3.946L43.526,48.2H43.42L41.5,52.252Z" transform="translate(-0.87 -0.531)" fill="#f9ae19"/>
    <path id="Path_880" data-name="Path 880" d="M31.8,57.3c.96,1.066,4.266-.213,7.465-2.879s5.012-5.759,4.052-6.825l2.773,3.306c.96,1.066-.853,4.159-4.052,6.825s-6.505,3.946-7.465,2.879L31.8,57.3Z" transform="translate(-1.513 -0.571)" fill="none" stroke="#231f20" stroke-linecap="round" stroke-linejoin="round" stroke-width="1"/>
    <ellipse id="Ellipse_58" data-name="Ellipse 58" cx="7.572" cy="2.559" rx="7.572" ry="2.559" transform="matrix(0.763, -0.646, 0.646, 0.763, 28.633, 54.874)" fill="none" stroke="#231f20" stroke-linecap="round" stroke-linejoin="round" stroke-width="1.5"/>
    <ellipse id="Ellipse_59" data-name="Ellipse 59" cx="7.572" cy="2.559" rx="7.572" ry="2.559" transform="translate(41.806 41.484)" fill="#fbd108" stroke="#707070" stroke-width="1"/>
    <path id="Path_881" data-name="Path 881" d="M42.7,44.8c0,1.386,3.413,2.559,7.572,2.559s7.572-1.173,7.572-2.559v4.372c0,1.386-3.413,2.559-7.572,2.559S42.7,50.559,42.7,49.172Z" transform="translate(-0.791 -0.757)" fill="#fbd108"/>
    <path id="Path_882" data-name="Path 882" d="M45.793,51.132h-.213A2.867,2.867,0,0,1,42.7,48.253V45.907c0-.107,0-.107.107-.107l2.986,1.493v3.839Z" transform="translate(-0.791 -0.69)" fill="#fafdff"/>
    <path id="Path_883" data-name="Path 883" d="M53.1,51.452l1.386-.32a2.867,2.867,0,0,0,2.879-2.879V45.907c0-.107,0-.107-.107-.107L53.1,47.613Z" transform="translate(-0.101 -0.69)" fill="#f9ae19"/>
    <path id="Path_884" data-name="Path 884" d="M42.7,44.9c0,1.386,3.413,2.559,7.572,2.559s7.572-1.173,7.572-2.559v4.372c0,1.386-3.413,2.559-7.572,2.559S42.7,50.659,42.7,49.272Z" transform="translate(-0.791 -0.75)" fill="none" stroke="#231f20" stroke-linecap="round" stroke-linejoin="round" stroke-width="1"/>
    <path id="Path_885" data-name="Path 885" d="M42.7,49.1c0,1.386,3.413,2.559,7.572,2.559s7.572-1.173,7.572-2.559v4.372c0,1.386-3.413,2.559-7.572,2.559S42.7,54.859,42.7,53.472Z" transform="translate(-0.791 -0.471)" fill="#fbd108"/>
    <path id="Path_886" data-name="Path 886" d="M45.793,55.432h-.213A2.867,2.867,0,0,1,42.7,52.553V50.207c0-.107,0-.107.107-.107l2.986,1.493v3.839Z" transform="translate(-0.791 -0.404)" fill="#fafdff"/>
    <path id="Path_887" data-name="Path 887" d="M53.1,55.852l1.386-.32a2.867,2.867,0,0,0,2.879-2.879V50.307c0-.107,0-.107-.107-.107L53.1,52.013Z" transform="translate(-0.101 -0.398)" fill="#f9ae19"/>
    <path id="Path_888" data-name="Path 888" d="M42.7,49.3c0,1.386,3.413,2.559,7.572,2.559s7.572-1.173,7.572-2.559v4.372c0,1.386-3.413,2.559-7.572,2.559S42.7,55.059,42.7,53.672Z" transform="translate(-0.791 -0.458)" fill="none" stroke="#231f20" stroke-linecap="round" stroke-linejoin="round" stroke-width="1"/>
    <path id="Path_889" data-name="Path 889" d="M42.7,53.5c0,1.386,3.413,2.559,7.572,2.559s7.572-1.173,7.572-2.559v4.372c0,1.386-3.413,2.559-7.572,2.559S42.7,59.259,42.7,57.872Z" transform="translate(-0.791 -0.179)" fill="#fbd108"/>
    <path id="Path_890" data-name="Path 890" d="M45.793,59.832h-.213A2.867,2.867,0,0,1,42.7,56.953V54.607c0-.107,0-.107.107-.107l2.986,1.493v3.839Z" transform="translate(-0.791 -0.112)" fill="#fafdff"/>
    <path id="Path_891" data-name="Path 891" d="M53.1,60.252l1.386-.32a2.867,2.867,0,0,0,2.879-2.879V54.707c0-.107,0-.107-.107-.107L53.1,56.413Z" transform="translate(-0.101 -0.106)" fill="#f9ae19"/>
    <path id="Path_892" data-name="Path 892" d="M42.7,53.7c0,1.386,3.413,2.559,7.572,2.559s7.572-1.173,7.572-2.559v4.372c0,1.386-3.413,2.559-7.572,2.559S42.7,59.459,42.7,58.072Z" transform="translate(-0.791 -0.165)" fill="none" stroke="#231f20" stroke-linecap="round" stroke-linejoin="round" stroke-width="1"/>
    <ellipse id="Ellipse_60" data-name="Ellipse 60" cx="7.572" cy="2.559" rx="7.572" ry="2.559" transform="translate(41.806 41.591)" fill="none" stroke="#231f20" stroke-linecap="round" stroke-linejoin="round" stroke-width="1"/>
  </g>
</svg>
